<svg width="1080" height="1080" viewBox="0 0 1080 1080" fill="none" xmlns="http://www.w3.org/2000/svg">
<path d="M411.078 539.22C413.657 528.293 406.89 517.345 395.963 514.766C385.037 512.187 374.088 518.954 371.509 529.881C368.93 540.807 375.698 551.756 386.624 554.335C397.551 556.914 408.499 550.147 411.078 539.22Z" fill="white"/>
<path d="M456.859 554.896C468.086 554.896 477.187 545.795 477.187 534.568C477.187 523.341 468.086 514.24 456.859 514.24C445.632 514.24 436.531 523.341 436.531 534.568C436.531 545.795 445.632 554.896 456.859 554.896Z" fill="white"/>
<path d="M525.246 554.896C536.473 554.896 545.574 545.795 545.574 534.568C545.574 523.341 536.473 514.24 525.246 514.24C514.019 514.24 504.918 523.341 504.918 534.568C504.918 545.795 514.019 554.896 525.246 554.896Z" fill="white"/>
<path d="M591.209 554.896C602.436 554.896 611.537 545.795 611.537 534.568C611.537 523.341 602.436 514.24 591.209 514.24C579.982 514.24 570.881 523.341 570.881 534.568C570.881 545.795 579.982 554.896 591.209 554.896Z" fill="white"/>
<path d="M656.684 554.896C667.91 554.896 677.012 545.795 677.012 534.568C677.012 523.341 667.91 514.24 656.684 514.24C645.457 514.24 636.355 523.341 636.355 534.568C636.355 545.795 645.457 554.896 656.684 554.896Z" fill="white"/>
<path d="M425.404 519.106C435.684 519.106 444.018 510.772 444.018 500.492C444.018 490.211 435.684 481.877 425.404 481.877C415.123 481.877 406.789 490.211 406.789 500.492C406.789 510.772 415.123 519.106 425.404 519.106Z" fill="white"/>
<path d="M459.79 483.477C450.21 483.477 442.383 475.65 442.383 466.07C442.383 456.49 450.21 448.662 459.79 448.662C469.37 448.662 477.198 456.49 477.198 466.07C477.198 475.65 469.37 483.477 459.79 483.477Z" fill="white"/>
<path d="M492.795 449.048C483.994 449.048 476.828 441.883 476.828 433.082C476.828 424.281 483.994 417.115 492.795 417.115C501.596 417.115 508.761 424.281 508.761 433.082C508.761 441.883 501.596 449.048 492.795 449.048Z" fill="white"/>
<path d="M525.386 415.464C534.204 415.41 541.308 408.218 541.255 399.4C541.201 390.582 534.009 383.478 525.191 383.531C516.373 383.585 509.268 390.777 509.322 399.595C509.376 408.413 516.568 415.518 525.386 415.464Z" fill="white"/>
<path d="M591.197 415.441C582.396 415.441 575.23 408.275 575.23 399.474C575.23 390.673 582.396 383.508 591.197 383.508C599.998 383.508 607.164 390.673 607.164 399.474C607.164 408.275 599.998 415.441 591.197 415.441Z" fill="white"/>
<path d="M659.619 415.441C650.818 415.441 643.652 408.275 643.652 399.474C643.652 390.673 650.818 383.508 659.619 383.508C668.42 383.508 675.585 390.673 675.585 399.474C675.585 408.275 668.42 415.441 659.619 415.441Z" fill="white"/>
<path d="M739.045 399.603C739.097 390.785 731.991 383.594 723.173 383.542C714.355 383.49 707.165 390.596 707.112 399.413C707.06 408.231 714.166 415.422 722.984 415.474C731.802 415.527 738.992 408.421 739.045 399.603Z" fill="white"/>
<path d="M791.191 415.441C782.39 415.441 775.225 408.275 775.225 399.474C775.225 390.673 782.39 383.508 791.191 383.508C799.992 383.508 807.158 390.673 807.158 399.474C807.158 408.275 799.992 415.441 791.191 415.441Z" fill="white"/>
<path d="M559.228 381.834C551.128 381.834 544.547 375.253 544.547 367.153C544.547 359.053 551.128 352.472 559.228 352.472C567.328 352.472 573.91 359.053 573.91 367.153C573.91 375.253 567.328 381.834 559.228 381.834Z" fill="white"/>
<path d="M627.175 381.818C635.283 381.769 641.816 375.156 641.766 367.048C641.717 358.939 635.104 352.407 626.996 352.456C618.887 352.506 612.355 359.119 612.404 367.227C612.454 375.335 619.067 381.868 627.175 381.818Z" fill="white"/>
<path d="M692.168 381.834C684.068 381.834 677.486 375.253 677.486 367.153C677.486 359.053 684.068 352.472 692.168 352.472C700.268 352.472 706.849 359.053 706.849 367.153C706.849 375.253 700.268 381.834 692.168 381.834Z" fill="white"/>
<path d="M760.023 381.834C751.923 381.834 745.342 375.253 745.342 367.153C745.342 359.053 751.923 352.472 760.023 352.472C768.123 352.472 774.705 359.053 774.705 367.153C774.705 375.253 768.123 381.834 760.023 381.834Z" fill="white"/>
<path d="M827.875 381.834C819.775 381.834 813.193 375.253 813.193 367.153C813.193 359.053 819.775 352.472 827.875 352.472C835.975 352.472 842.556 359.053 842.556 367.153C842.556 375.253 835.975 381.834 827.875 381.834Z" fill="white"/>
<path d="M559.228 716.588C551.128 716.588 544.547 710.007 544.547 701.907C544.547 693.807 551.128 687.225 559.228 687.225C567.328 687.225 573.91 693.807 573.91 701.907C573.91 710.007 567.328 716.588 559.228 716.588Z" fill="white"/>
<path d="M625.24 716.588C617.14 716.588 610.559 710.007 610.559 701.907C610.559 693.807 617.14 687.225 625.24 687.225C633.34 687.225 639.921 693.807 639.921 701.907C639.921 710.007 633.34 716.588 625.24 716.588Z" fill="white"/>
<path d="M691.252 716.588C683.152 716.588 676.57 710.007 676.57 701.907C676.57 693.807 683.152 687.225 691.252 687.225C699.352 687.225 705.933 693.807 705.933 701.907C705.933 710.007 699.352 716.588 691.252 716.588Z" fill="white"/>
<path d="M757.256 716.588C749.155 716.588 742.574 710.007 742.574 701.907C742.574 693.807 749.155 687.225 757.256 687.225C765.356 687.225 771.937 693.807 771.937 701.907C771.937 710.007 765.356 716.588 757.256 716.588Z" fill="white"/>
<path d="M823.304 716.588C815.204 716.588 808.623 710.007 808.623 701.907C808.623 693.807 815.204 687.225 823.304 687.225C831.405 687.225 837.986 693.807 837.986 701.907C837.986 710.007 831.405 716.588 823.304 716.588Z" fill="white"/>
<path d="M593.869 345.502C600.643 345.502 606.135 340.01 606.135 333.235C606.135 326.461 600.643 320.969 593.869 320.969C587.094 320.969 581.602 326.461 581.602 333.235C581.602 340.01 587.094 345.502 593.869 345.502Z" fill="white"/>
<path d="M659.572 345.502C666.347 345.502 671.839 340.01 671.839 333.235C671.839 326.461 666.347 320.969 659.572 320.969C652.797 320.969 647.305 326.461 647.305 333.235C647.305 340.01 652.797 345.502 659.572 345.502Z" fill="white"/>
<path d="M725.263 345.502C732.038 345.502 737.53 340.01 737.53 333.235C737.53 326.461 732.038 320.969 725.263 320.969C718.488 320.969 712.996 326.461 712.996 333.235C712.996 340.01 718.488 345.502 725.263 345.502Z" fill="white"/>
<path d="M791.003 345.502C797.778 345.502 803.27 340.01 803.27 333.235C803.27 326.461 797.778 320.969 791.003 320.969C784.228 320.969 778.736 326.461 778.736 333.235C778.736 340.01 784.228 345.502 791.003 345.502Z" fill="white"/>
<path d="M856.708 345.502C863.483 345.502 868.975 340.01 868.975 333.235C868.975 326.461 863.483 320.969 856.708 320.969C849.933 320.969 844.441 326.461 844.441 333.235C844.441 340.01 849.933 345.502 856.708 345.502Z" fill="white"/>
<path d="M593.869 746.808C600.643 746.808 606.135 741.316 606.135 734.541C606.135 727.766 600.643 722.274 593.869 722.274C587.094 722.274 581.602 727.766 581.602 734.541C581.602 741.316 587.094 746.808 593.869 746.808Z" fill="white"/>
<path d="M659.572 746.808C666.347 746.808 671.839 741.316 671.839 734.541C671.839 727.766 666.347 722.274 659.572 722.274C652.797 722.274 647.305 727.766 647.305 734.541C647.305 741.316 652.797 746.808 659.572 746.808Z" fill="white"/>
<path d="M725.263 746.808C732.038 746.808 737.53 741.316 737.53 734.541C737.53 727.766 732.038 722.274 725.263 722.274C718.488 722.274 712.996 727.766 712.996 734.541C712.996 741.316 718.488 746.808 725.263 746.808Z" fill="white"/>
<path d="M791.003 746.808C797.778 746.808 803.27 741.316 803.27 734.541C803.27 727.766 797.778 722.274 791.003 722.274C784.228 722.274 778.736 727.766 778.736 734.541C778.736 741.316 784.228 746.808 791.003 746.808Z" fill="white"/>
<path d="M856.708 746.808C863.483 746.808 868.975 741.316 868.975 734.541C868.975 727.766 863.483 722.274 856.708 722.274C849.933 722.274 844.441 727.766 844.441 734.541C844.441 741.316 849.933 746.808 856.708 746.808Z" fill="white"/>
<path d="M627.134 310.883C633.157 310.883 638.038 306.001 638.038 299.979C638.038 293.957 633.157 289.075 627.134 289.075C621.112 289.075 616.23 293.957 616.23 299.979C616.23 306.001 621.112 310.883 627.134 310.883Z" fill="white"/>
<path d="M693.713 310.88C699.735 310.88 704.617 305.998 704.617 299.976C704.617 293.954 699.735 289.072 693.713 289.072C687.69 289.072 682.809 293.954 682.809 299.976C682.809 305.998 687.69 310.88 693.713 310.88Z" fill="white"/>
<path d="M760.291 310.88C766.313 310.88 771.195 305.998 771.195 299.976C771.195 293.954 766.313 289.072 760.291 289.072C754.269 289.072 749.387 293.954 749.387 299.976C749.387 305.998 754.269 310.88 760.291 310.88Z" fill="white"/>
<path d="M826.904 310.88C832.926 310.88 837.808 305.998 837.808 299.976C837.808 293.954 832.926 289.072 826.904 289.072C820.882 289.072 816 293.954 816 299.976C816 305.998 820.882 310.88 826.904 310.88Z" fill="white"/>
<path d="M893.443 310.916C887.407 310.916 882.539 306.009 882.539 300.012C882.539 294.014 887.446 289.108 893.443 289.108C899.44 289.108 904.347 294.014 904.347 300.012C904.347 306.009 899.44 310.916 893.443 310.916Z" fill="white"/>
<path d="M627.134 780.683C633.157 780.683 638.038 775.801 638.038 769.779C638.038 763.757 633.157 758.875 627.134 758.875C621.112 758.875 616.23 763.757 616.23 769.779C616.23 775.801 621.112 780.683 627.134 780.683Z" fill="white"/>
<path d="M694.545 780.683C688.508 780.683 683.641 775.776 683.641 769.779C683.641 763.782 688.547 758.875 694.545 758.875C700.542 758.875 705.449 763.782 705.449 769.779C705.449 775.776 700.542 780.683 694.545 780.683Z" fill="white"/>
<path d="M762.045 780.683C768.067 780.683 772.948 775.801 772.948 769.779C772.948 763.757 768.067 758.875 762.045 758.875C756.022 758.875 751.141 763.757 751.141 769.779C751.141 775.801 756.022 780.683 762.045 780.683Z" fill="white"/>
<path d="M829.498 780.683C823.462 780.683 818.594 775.776 818.594 769.779C818.594 763.782 823.501 758.875 829.498 758.875C835.495 758.875 840.402 763.782 840.402 769.779C840.402 775.776 835.495 780.683 829.498 780.683Z" fill="white"/>
<path d="M896.951 780.683C890.915 780.683 886.047 775.776 886.047 769.779C886.047 763.782 890.954 758.875 896.951 758.875C902.948 758.875 907.855 763.782 907.855 769.779C907.855 775.776 902.948 780.683 896.951 780.683Z" fill="white"/>
<path d="M661.468 274.783C656.444 274.783 652.355 270.694 652.355 265.67C652.355 260.647 656.444 256.558 661.468 256.558C666.492 256.558 670.581 260.647 670.581 265.67C670.581 270.694 666.492 274.783 661.468 274.783Z" fill="white"/>
<path d="M659.617 810.985C654.593 810.985 650.504 806.896 650.504 801.872C650.504 796.849 654.593 792.76 659.617 792.76C664.64 792.76 668.729 796.849 668.729 801.872C668.729 806.896 664.64 810.985 659.617 810.985Z" fill="white"/>
<path d="M727.999 810.985C722.976 810.985 718.887 806.896 718.887 801.872C718.887 796.849 722.976 792.76 727.999 792.76C733.023 792.76 737.112 796.849 737.112 801.872C737.112 806.896 733.023 810.985 727.999 810.985Z" fill="white"/>
<path d="M793.562 810.985C788.538 810.985 784.449 806.896 784.449 801.872C784.449 796.849 788.538 792.76 793.562 792.76C798.585 792.76 802.674 796.849 802.674 801.872C802.674 806.896 798.585 810.985 793.562 810.985Z" fill="white"/>
<path d="M859.882 810.985C854.858 810.985 850.77 806.896 850.77 801.872C850.77 796.849 854.858 792.76 859.882 792.76C864.906 792.76 868.995 796.849 868.995 801.872C868.995 806.896 864.906 810.985 859.882 810.985Z" fill="white"/>
<path d="M927.556 810.985C922.532 810.985 918.443 806.896 918.443 801.872C918.443 796.849 922.532 792.76 927.556 792.76C932.58 792.76 936.669 796.849 936.669 801.872C936.669 806.896 932.58 810.985 927.556 810.985Z" fill="white"/>
<path d="M727.781 274.783C722.757 274.783 718.668 270.694 718.668 265.67C718.668 260.647 722.757 256.558 727.781 256.558C732.804 256.558 736.893 260.647 736.893 265.67C736.893 270.694 732.804 274.783 727.781 274.783Z" fill="white"/>
<path d="M794.046 274.783C789.023 274.783 784.934 270.694 784.934 265.67C784.934 260.647 789.023 256.558 794.046 256.558C799.07 256.558 803.159 260.647 803.159 265.67C803.159 270.694 799.07 274.783 794.046 274.783Z" fill="white"/>
<path d="M860.449 274.783C855.425 274.783 851.336 270.694 851.336 265.67C851.336 260.647 855.425 256.558 860.449 256.558C865.472 256.558 869.561 260.647 869.561 265.67C869.561 270.694 865.472 274.783 860.449 274.783Z" fill="white"/>
<path d="M926.718 274.783C921.694 274.783 917.605 270.694 917.605 265.67C917.605 260.647 921.694 256.558 926.718 256.558C931.742 256.558 935.831 260.647 935.831 265.67C935.831 270.694 931.742 274.783 926.718 274.783Z" fill="white"/>
<path d="M693.713 241.528C698.208 241.528 701.852 237.884 701.852 233.389C701.852 228.894 698.208 225.25 693.713 225.25C689.218 225.25 685.574 228.894 685.574 233.389C685.574 237.884 689.218 241.528 693.713 241.528Z" fill="white"/>
<path d="M701.759 838.692C702.479 834.255 699.466 830.075 695.029 829.355C690.592 828.634 686.411 831.647 685.691 836.084C684.971 840.521 687.984 844.702 692.421 845.422C696.858 846.142 701.038 843.129 701.759 838.692Z" fill="white"/>
<path d="M768.602 838.698C769.323 834.261 766.31 830.08 761.873 829.36C757.436 828.64 753.255 831.653 752.535 836.09C751.814 840.527 754.827 844.708 759.264 845.428C763.701 846.148 767.882 843.135 768.602 838.698Z" fill="white"/>
<path d="M827.393 845.485C831.888 845.485 835.532 841.841 835.532 837.346C835.532 832.851 831.888 829.207 827.393 829.207C822.898 829.207 819.254 832.851 819.254 837.346C819.254 841.841 822.898 845.485 827.393 845.485Z" fill="white"/>
<path d="M894.233 845.485C898.728 845.485 902.372 841.841 902.372 837.346C902.372 832.851 898.728 829.207 894.233 829.207C889.738 829.207 886.094 832.851 886.094 837.346C886.094 841.841 889.738 845.485 894.233 845.485Z" fill="white"/>
<path d="M961.037 845.485C965.532 845.485 969.177 841.841 969.177 837.346C969.177 832.851 965.532 829.207 961.037 829.207C956.542 829.207 952.898 832.851 952.898 837.346C952.898 841.841 956.542 845.485 961.037 845.485Z" fill="white"/>
<path d="M760.026 241.564C755.547 241.564 751.887 237.903 751.887 233.425C751.887 228.947 755.547 225.286 760.026 225.286C764.504 225.286 768.165 228.947 768.165 233.425C768.165 237.903 764.504 241.564 760.026 241.564Z" fill="white"/>
<path d="M826.338 241.528C830.833 241.528 834.477 237.884 834.477 233.389C834.477 228.894 830.833 225.25 826.338 225.25C821.843 225.25 818.199 228.894 818.199 233.389C818.199 237.884 821.843 241.528 826.338 241.528Z" fill="white"/>
<path d="M900.515 235.265C901.548 230.89 898.838 226.507 894.463 225.474C890.088 224.442 885.705 227.151 884.672 231.526C883.64 235.901 886.349 240.284 890.724 241.317C895.099 242.349 899.483 239.64 900.515 235.265Z" fill="white"/>
<path d="M958.975 241.528C963.47 241.528 967.114 237.884 967.114 233.389C967.114 228.894 963.47 225.25 958.975 225.25C954.48 225.25 950.836 228.894 950.836 233.389C950.836 237.884 954.48 241.528 958.975 241.528Z" fill="white"/>
<path d="M727.773 206.475C723.84 206.475 720.646 203.282 720.646 199.348C720.646 195.415 723.84 192.222 727.773 192.222C731.706 192.222 734.899 195.415 734.899 199.348C734.899 203.282 731.706 206.475 727.773 206.475Z" fill="white"/>
<path d="M727.773 877.812C723.84 877.812 720.646 874.618 720.646 870.685C720.646 866.752 723.84 863.559 727.773 863.559C731.706 863.559 734.899 866.752 734.899 870.685C734.899 874.618 731.706 877.812 727.773 877.812Z" fill="white"/>
<path d="M793.556 877.812C789.623 877.812 786.43 874.618 786.43 870.685C786.43 866.752 789.623 863.559 793.556 863.559C797.489 863.559 800.683 866.752 800.683 870.685C800.683 874.618 797.489 877.812 793.556 877.812Z" fill="white"/>
<path d="M859.388 877.812C855.455 877.812 852.262 874.618 852.262 870.685C852.262 866.752 855.455 863.559 859.388 863.559C863.321 863.559 866.515 866.752 866.515 870.685C866.515 874.618 863.321 877.812 859.388 877.812Z" fill="white"/>
<path d="M925.173 877.812C921.24 877.812 918.047 874.618 918.047 870.685C918.047 866.752 921.24 863.559 925.173 863.559C929.107 863.559 932.3 866.752 932.3 870.685C932.3 874.618 929.107 877.812 925.173 877.812Z" fill="white"/>
<path d="M990.957 877.812C987.023 877.812 983.83 874.618 983.83 870.685C983.83 866.752 987.023 863.559 990.957 863.559C994.89 863.559 998.083 866.752 998.083 870.685C998.083 874.618 994.89 877.812 990.957 877.812Z" fill="white"/>
<path d="M794.033 206.475C790.1 206.475 786.906 203.282 786.906 199.348C786.906 195.415 790.1 192.222 794.033 192.222C797.966 192.222 801.159 195.415 801.159 199.348C801.159 203.282 797.966 206.475 794.033 206.475Z" fill="white"/>
<path d="M860.445 206.475C856.512 206.475 853.318 203.282 853.318 199.348C853.318 195.415 856.512 192.222 860.445 192.222C864.378 192.222 867.571 195.415 867.571 199.348C867.571 203.282 864.378 206.475 860.445 206.475Z" fill="white"/>
<path d="M926.752 206.475C922.818 206.475 919.625 203.282 919.625 199.348C919.625 195.415 922.818 192.222 926.752 192.222C930.685 192.222 933.878 195.415 933.878 199.348C933.878 203.282 930.685 206.475 926.752 206.475Z" fill="white"/>
<path d="M993.07 206.475C989.137 206.475 985.943 203.282 985.943 199.348C985.943 195.415 989.137 192.222 993.07 192.222C997.003 192.222 1000.2 195.415 1000.2 199.348C1000.2 203.282 997.003 206.475 993.07 206.475Z" fill="white"/>
<path d="M760.55 174.038C756.617 174.038 753.424 170.845 753.424 166.912C753.424 162.978 756.617 159.785 760.55 159.785C764.484 159.785 767.677 162.978 767.677 166.912C767.677 170.845 764.484 174.038 760.55 174.038Z" fill="white"/>
<path d="M760.55 911.534C756.617 911.534 753.424 908.34 753.424 904.407C753.424 900.474 756.617 897.281 760.55 897.281C764.484 897.281 767.677 900.474 767.677 904.407C767.677 908.34 764.484 911.534 760.55 911.534Z" fill="white"/>
<path d="M827.435 911.534C823.502 911.534 820.309 908.34 820.309 904.407C820.309 900.474 823.502 897.281 827.435 897.281C831.368 897.281 834.562 900.474 834.562 904.407C834.562 908.34 831.368 911.534 827.435 911.534Z" fill="white"/>
<path d="M894.232 911.534C890.299 911.534 887.105 908.34 887.105 904.407C887.105 900.474 890.299 897.281 894.232 897.281C898.165 897.281 901.358 900.474 901.358 904.407C901.358 908.34 898.165 911.534 894.232 911.534Z" fill="white"/>
<path d="M961.078 911.534C957.144 911.534 953.951 908.34 953.951 904.407C953.951 900.474 957.144 897.281 961.078 897.281C965.011 897.281 968.204 900.474 968.204 904.407C968.204 908.34 965.011 911.534 961.078 911.534Z" fill="white"/>
<path d="M1027.87 911.534C1023.94 911.534 1020.75 908.34 1020.75 904.407C1020.75 900.474 1023.94 897.281 1027.87 897.281C1031.81 897.281 1035 900.474 1035 904.407C1035 908.34 1031.81 911.534 1027.87 911.534Z" fill="white"/>
<path d="M826.341 174.038C822.408 174.038 819.215 170.845 819.215 166.912C819.215 162.978 822.408 159.785 826.341 159.785C830.275 159.785 833.468 162.978 833.468 166.912C833.468 170.845 830.275 174.038 826.341 174.038Z" fill="white"/>
<path d="M892.167 174.038C888.234 174.038 885.041 170.845 885.041 166.912C885.041 162.978 888.234 159.785 892.167 159.785C896.101 159.785 899.294 162.978 899.294 166.912C899.294 170.845 896.101 174.038 892.167 174.038Z" fill="white"/>
<path d="M957.962 174.038C954.029 174.038 950.836 170.845 950.836 166.912C950.836 162.978 954.029 159.785 957.962 159.785C961.896 159.785 965.089 162.978 965.089 166.912C965.089 170.845 961.896 174.038 957.962 174.038Z" fill="white"/>
<path d="M1023.74 174.038C1019.8 174.038 1016.61 170.845 1016.61 166.912C1016.61 162.978 1019.8 159.785 1023.74 159.785C1027.67 159.785 1030.86 162.978 1030.86 166.912C1030.86 170.845 1027.67 174.038 1023.74 174.038Z" fill="white"/>
<path d="M525.275 685.548C516.474 685.548 509.309 678.383 509.309 669.582C509.309 660.781 516.474 653.615 525.275 653.615C534.076 653.615 541.242 660.781 541.242 669.582C541.242 678.383 534.076 685.548 525.275 685.548Z" fill="white"/>
<path d="M591.197 685.548C582.396 685.548 575.23 678.383 575.23 669.582C575.23 660.781 582.396 653.615 591.197 653.615C599.998 653.615 607.164 660.781 607.164 669.582C607.164 678.383 599.998 685.548 591.197 685.548Z" fill="white"/>
<path d="M659.619 685.548C650.818 685.548 643.652 678.383 643.652 669.582C643.652 660.781 650.818 653.615 659.619 653.615C668.42 653.615 675.585 660.781 675.585 669.582C675.585 678.383 668.42 685.548 659.619 685.548Z" fill="white"/>
<path d="M728.039 685.548C719.238 685.548 712.072 678.383 712.072 669.582C712.072 660.781 719.238 653.615 728.039 653.615C736.84 653.615 744.005 660.781 744.005 669.582C744.005 678.383 736.84 685.548 728.039 685.548Z" fill="white"/>
<path d="M796.463 685.548C787.662 685.548 780.496 678.383 780.496 669.582C780.496 660.781 787.662 653.615 796.463 653.615C805.264 653.615 812.429 660.781 812.429 669.582C812.429 678.383 805.264 685.548 796.463 685.548Z" fill="white"/>
<path d="M492.864 652.626C501.682 652.572 508.787 645.38 508.733 636.562C508.679 627.744 501.487 620.639 492.669 620.693C483.851 620.747 476.747 627.939 476.801 636.757C476.855 645.575 484.047 652.68 492.864 652.626Z" fill="white"/>
<path d="M459.79 620.284C450.21 620.284 442.383 612.457 442.383 602.877C442.383 593.297 450.21 585.47 459.79 585.47C469.37 585.47 477.198 593.297 477.198 602.877C477.198 612.457 469.37 620.284 459.79 620.284Z" fill="white"/>
<path d="M492.794 586.051C483.214 586.051 475.387 578.224 475.387 568.644C475.387 559.064 483.214 551.236 492.794 551.236C502.374 551.236 510.201 559.064 510.201 568.644C510.201 578.224 502.374 586.051 492.794 586.051Z" fill="white"/>
<path d="M557.784 586.051C548.165 586.051 540.377 578.224 540.377 568.644C540.377 559.064 548.204 551.236 557.784 551.236C567.364 551.236 575.192 559.064 575.192 568.644C575.192 578.224 567.364 586.051 557.784 586.051Z" fill="white"/>
<path d="M623.833 586.051C614.253 586.051 606.426 578.224 606.426 568.644C606.426 559.064 614.253 551.236 623.833 551.236C633.413 551.236 641.241 559.064 641.241 568.644C641.241 578.224 633.413 586.051 623.833 586.051Z" fill="white"/>
<path d="M689.587 586.051C680.007 586.051 672.18 578.224 672.18 568.644C672.18 559.064 680.007 551.236 689.587 551.236C699.167 551.236 706.994 559.064 706.994 568.644C706.994 578.224 699.167 586.051 689.587 586.051Z" fill="white"/>
<path d="M492.794 517.9C483.214 517.9 475.387 510.073 475.387 500.493C475.387 490.913 483.214 483.085 492.794 483.085C502.374 483.085 510.201 490.913 510.201 500.493C510.201 510.073 502.374 517.9 492.794 517.9Z" fill="white"/>
<path d="M559.196 517.9C549.617 517.9 541.789 510.073 541.789 500.493C541.789 490.913 549.617 483.085 559.196 483.085C568.776 483.085 576.604 490.913 576.604 500.493C576.604 510.073 568.776 517.9 559.196 517.9Z" fill="white"/>
<path d="M623.833 517.9C614.253 517.9 606.426 510.073 606.426 500.493C606.426 490.913 614.253 483.085 623.833 483.085C633.413 483.085 641.241 490.913 641.241 500.493C641.241 510.073 633.413 517.9 623.833 517.9Z" fill="white"/>
<path d="M693.14 517.9C683.521 517.9 675.732 510.073 675.732 500.493C675.732 490.913 683.56 483.085 693.14 483.085C702.72 483.085 710.547 490.913 710.547 500.493C710.547 510.073 702.72 517.9 693.14 517.9Z" fill="white"/>
<path d="M525.275 483.477C515.695 483.477 507.867 475.65 507.867 466.07C507.867 456.49 515.695 448.662 525.275 448.662C534.854 448.662 542.682 456.49 542.682 466.07C542.682 475.65 534.854 483.477 525.275 483.477Z" fill="white"/>
<path d="M591.185 483.477C581.566 483.477 573.777 475.65 573.777 466.07C573.777 456.49 581.605 448.662 591.185 448.662C600.765 448.662 608.592 456.49 608.592 466.07C608.592 475.65 600.765 483.477 591.185 483.477Z" fill="white"/>
<path d="M656.704 483.477C647.124 483.477 639.297 475.65 639.297 466.07C639.297 456.49 647.124 448.662 656.704 448.662C666.284 448.662 674.112 456.49 674.112 466.07C674.112 475.65 666.284 483.477 656.704 483.477Z" fill="white"/>
<path d="M723.069 483.477C713.49 483.477 705.662 475.65 705.662 466.07C705.662 456.49 713.49 448.662 723.069 448.662C732.649 448.662 740.477 456.49 740.477 466.07C740.477 475.65 732.649 483.477 723.069 483.477Z" fill="white"/>
<path d="M559.207 449.048C550.406 449.048 543.24 441.883 543.24 433.082C543.24 424.281 550.406 417.115 559.207 417.115C568.008 417.115 575.173 424.281 575.173 433.082C575.173 441.883 568.008 449.048 559.207 449.048Z" fill="white"/>
<path d="M627.099 449.048C618.298 449.048 611.133 441.883 611.133 433.082C611.133 424.281 618.298 417.115 627.099 417.115C635.9 417.115 643.066 424.281 643.066 433.082C643.066 441.883 635.9 449.048 627.099 449.048Z" fill="white"/>
<path d="M689.59 449.048C680.788 449.048 673.623 441.883 673.623 433.082C673.623 424.281 680.788 417.115 689.59 417.115C698.391 417.115 705.556 424.281 705.556 433.082C705.556 441.883 698.391 449.048 689.59 449.048Z" fill="white"/>
<path d="M756.56 449.048C747.759 449.048 740.594 441.883 740.594 433.082C740.594 424.281 747.759 417.115 756.56 417.115C765.361 417.115 772.527 424.281 772.527 433.082C772.527 441.883 765.361 449.048 756.56 449.048Z" fill="white"/>
<path d="M559.207 652.564C550.406 652.564 543.24 645.399 543.24 636.598C543.24 627.797 550.406 620.631 559.207 620.631C568.008 620.631 575.173 627.797 575.173 636.598C575.173 645.399 568.008 652.564 559.207 652.564Z" fill="white"/>
<path d="M625.256 652.564C616.455 652.564 609.289 645.399 609.289 636.598C609.289 627.797 616.455 620.631 625.256 620.631C634.057 620.631 641.222 627.797 641.222 636.598C641.222 645.399 634.057 652.564 625.256 652.564Z" fill="white"/>
<path d="M689.59 652.564C680.788 652.564 673.623 645.399 673.623 636.598C673.623 627.797 680.788 620.631 689.59 620.631C698.391 620.631 705.556 627.797 705.556 636.598C705.556 645.399 698.391 652.564 689.59 652.564Z" fill="white"/>
<path d="M756.626 652.65C765.444 652.596 772.549 645.404 772.495 636.587C772.441 627.769 765.249 620.664 756.431 620.718C747.613 620.772 740.509 627.964 740.562 636.782C740.616 645.6 747.808 652.704 756.626 652.65Z" fill="white"/>
<path d="M525.275 620.284C515.695 620.284 507.867 612.457 507.867 602.877C507.867 593.297 515.695 585.47 525.275 585.47C534.854 585.47 542.682 593.297 542.682 602.877C542.682 612.457 534.854 620.284 525.275 620.284Z" fill="white"/>
<path d="M591.185 620.284C581.566 620.284 573.777 612.457 573.777 602.877C573.777 593.297 581.605 585.47 591.185 585.47C600.765 585.47 608.592 593.297 608.592 602.877C608.592 612.457 600.765 620.284 591.185 620.284Z" fill="white"/>
<path d="M659.607 620.284C649.988 620.284 642.199 612.457 642.199 602.877C642.199 593.297 650.027 585.47 659.607 585.47C669.186 585.47 677.014 593.297 677.014 602.877C677.014 612.457 669.186 620.284 659.607 620.284Z" fill="white"/>
<path d="M723.069 620.284C713.49 620.284 705.662 612.457 705.662 602.877C705.662 593.297 713.49 585.47 723.069 585.47C732.649 585.47 740.477 593.297 740.477 602.877C740.477 612.457 732.649 620.284 723.069 620.284Z" fill="white"/>
<path d="M425.404 587.257C435.684 587.257 444.018 578.923 444.018 568.642C444.018 558.362 435.684 550.028 425.404 550.028C415.123 550.028 406.789 558.362 406.789 568.642C406.789 578.923 415.123 587.257 425.404 587.257Z" fill="white"/>
<path d="M44.9941 909.119L370.01 583.558L513.981 719.429L316.58 909.119H44.9941Z" fill="#333333"/>
<path d="M44.9941 909.119L370.01 583.558L513.981 719.429L316.58 909.119H44.9941Z" fill="url(#paint0_linear_2918_45048)"/>
<path d="M44.9941 909.119L370.01 583.558L513.981 719.429L316.58 909.119H44.9941Z" fill="#8B63FF"/>
<path d="M44.9941 160.604L370.01 486.164L513.981 350.293L316.58 160.604H44.9941Z" fill="#333333"/>
<path d="M44.9941 160.604L370.01 486.164L513.981 350.293L316.58 160.604H44.9941Z" fill="url(#paint1_linear_2918_45048)"/>
<path d="M44.9941 160.604L370.01 486.164L513.981 350.293L316.58 160.604H44.9941Z" fill="#8B63FF"/>
<defs>
<linearGradient id="paint0_linear_2918_45048" x1="440.54" y1="851.196" x2="147.431" y2="667.201" gradientUnits="userSpaceOnUse">
<stop stop-color="#8B63FF"/>
<stop offset="1" stop-color="#8B63FF" stop-opacity="0"/>
</linearGradient>
<linearGradient id="paint1_linear_2918_45048" x1="440.54" y1="428.241" x2="147.431" y2="244.247" gradientUnits="userSpaceOnUse">
<stop stop-color="#8B63FF"/>
<stop offset="1" stop-color="#8B63FF" stop-opacity="0"/>
</linearGradient>
</defs>
</svg>
