<svg width="97" height="20" viewBox="0 0 97 20" fill="none" xmlns="http://www.w3.org/2000/svg">
<path d="M95.4335 4.91531V3.24243H93.8663V1.56989H4.54218V3.24243H2.97535V4.91531H1.4082V16.6251H2.97535V18.298H4.54218V19.9705H93.8663V18.298H95.4335V16.6251H97.0003V4.91531H95.4335Z" fill="#C8C8C8"/>
<path d="M94.0244 3.34558V15.0554H95.5912V3.34558H94.0244Z" fill="#C8C8C8"/>
<path d="M92.458 16.7282H94.0251V15.0553H92.458V16.7282Z" fill="#C8C8C8"/>
<path d="M94.0251 3.34542V1.67255H92.458V3.34542H94.0251Z" fill="#C8C8C8"/>
<path d="M89.3236 16.7282H3.13379V18.4008H92.4579V16.7282H89.3236Z" fill="#C8C8C8"/>
<path d="M6.26808 1.67254H92.4579V0H3.13379V1.67254H6.26808Z" fill="#C8C8C8"/>
<path d="M1.56641 15.0553V16.7282H3.13324V15.0553H1.56641Z" fill="#C8C8C8"/>
<path d="M3.13324 1.67255H1.56641V3.34542H3.13324V1.67255Z" fill="#C8C8C8"/>
<path d="M1.56714 11.71V3.34558H0V15.0554H1.56714V11.71Z" fill="#C8C8C8"/>
</svg>
