<svg width="164" height="40" viewBox="0 0 164 40" fill="none" xmlns="http://www.w3.org/2000/svg">
<g clip-path="url(#clip0_457_232)">
<path d="M161.062 9.95497V6.67796H158.421V3.40161H7.8889V6.67796H5.24843V9.95497H2.60742V32.8934H5.24843V36.1704H7.8889V39.4467H158.421V36.1704H161.062V32.8934H163.702V9.95497H161.062Z" fill="black"/>
<path d="M156.047 6.87979V3.60278H5.5145V6.87979H2.87402V29.8182H5.5145V33.0952H156.047V29.8182H158.688V6.87979H156.047Z" fill="#F88989"/>
<path d="M158.688 6.87988V29.8183H161.329V6.87988H158.688Z" fill="black"/>
<path d="M156.048 33.0951H158.689V29.8181H156.048V33.0951Z" fill="black"/>
<path d="M158.689 6.87979V3.60278H156.048V6.87979H158.689Z" fill="black"/>
<path d="M150.766 33.0952H5.51562V36.3716H156.048V33.0952H150.766Z" fill="black"/>
<path d="M10.7976 3.60252H156.048V0.326172H5.51562V3.60252H10.7976Z" fill="black"/>
<path d="M2.87402 29.8181V33.0951H5.5145V29.8181H2.87402Z" fill="black"/>
<path d="M5.5145 3.60278H2.87402V6.87979H5.5145V3.60278Z" fill="black"/>
<path d="M2.87538 23.2649V6.87988H0.234375V29.8183H2.87538V23.2649Z" fill="black"/>
<path d="M33.3949 10.5287H49.9109V13.8319H36.6981V17.135H46.6077V20.4382H36.6981V23.7414H49.9109V27H33.3949V10.5287ZM52.7008 10.5287H56.004V13.8319H59.3072V17.135H56.004V27H52.7008V10.5287ZM65.9136 10.5287H69.2168V27H65.9136V23.7414H62.6104V20.4382H65.9136V10.5287ZM59.3072 17.135H62.6104V20.4382H59.3072V17.135ZM72.0066 10.5287H88.5226V13.8319H81.9162V27H78.613V13.8319H72.0066V10.5287ZM91.3125 10.5287H107.828V13.8319H94.6157V17.135H104.525V20.4382H94.6157V23.7414H107.828V27H91.3125V10.5287ZM110.618 10.5287H123.831V13.8319H113.922V17.135H123.831V20.4382H113.922V27H110.618V10.5287ZM123.831 13.8319H127.134V17.135H123.831V13.8319ZM123.831 20.4382H127.134V27H123.831V20.4382Z" fill="black"/>
</g>
<defs>
<clipPath id="clip0_457_232">
<rect width="163.468" height="39.1206" fill="white" transform="translate(0.234375 0.326172)"/>
</clipPath>
</defs>
</svg>
