<svg width="394" height="63" viewBox="0 0 394 63" fill="none" xmlns="http://www.w3.org/2000/svg">
<path d="M387.636 16.0743V10.9247H381.27V5.77612H18.4495V10.9247H12.0852V16.0743H5.71973V52.1203H12.0852V57.2699H18.4495V62.4184H381.27V57.2699H387.636V52.1203H394V16.0743H387.636Z" fill="black"/>
<path d="M375.55 11.2416V6.09204H12.7295V11.2416H6.36523V47.2877H12.7295V52.4372H375.55V47.2877H381.916V11.2416H375.55Z" fill="#FFFF92"/>
<path d="M364.315 37.2695V42.1591H367.914V47.0497H371.512V42.1591H375.11V37.2695H364.315Z" fill="black"/>
<path d="M381.916 11.2417V47.2877H388.28V11.2417H381.916Z" fill="black"/>
<path d="M375.551 52.4372H381.916V47.2876H375.551V52.4372Z" fill="black"/>
<path d="M381.916 11.2416V6.09204H375.551V11.2416H381.916Z" fill="black"/>
<path d="M362.819 52.4373H12.7295V57.5858H375.55V52.4373H362.819Z" fill="black"/>
<path d="M25.4605 6.09191H375.55V0.943359H12.7295V6.09191H25.4605Z" fill="black"/>
<path d="M6.36523 47.2876V52.4372H12.7295V47.2876H6.36523Z" fill="black"/>
<path d="M12.7295 6.09204H6.36523V11.2416H12.7295V6.09204Z" fill="black"/>
<path d="M6.3655 36.9896V11.2417H0V47.2877H6.3655V36.9896Z" fill="black"/>
</svg>
