<svg width="165" height="40" viewBox="0 0 165 40" fill="none" xmlns="http://www.w3.org/2000/svg">
<g clip-path="url(#clip0_457_220)">
<path d="M161.799 9.95497V6.67796H159.158V3.40161H8.62621V6.67796H5.98573V9.95497H3.34473V32.8934H5.98573V36.1704H8.62621V39.4467H159.158V36.1704H161.799V32.8934H164.44V9.95497H161.799Z" fill="black"/>
<path d="M156.784 6.87979V3.60278H6.25181V6.87979H3.61133V29.8182H6.25181V33.0952H156.784V29.8182H159.425V6.87979H156.784Z" fill="#B0F889"/>
<path d="M159.426 6.87988V29.8183H162.066V6.87988H159.426Z" fill="black"/>
<path d="M156.785 33.0951H159.426V29.8181H156.785V33.0951Z" fill="black"/>
<path d="M159.426 6.87979V3.60278H156.785V6.87979H159.426Z" fill="black"/>
<path d="M151.503 33.0952H6.25293V36.3716H156.785V33.0952H151.503Z" fill="black"/>
<path d="M11.5349 3.60252H156.785V0.326172H6.25293V3.60252H11.5349Z" fill="black"/>
<path d="M3.61133 29.8181V33.0951H6.25181V29.8181H3.61133Z" fill="black"/>
<path d="M6.25181 3.60278H3.61133V6.87979H6.25181V3.60278Z" fill="black"/>
<path d="M3.61268 23.2649V6.87988H0.97168V29.8183H3.61268V23.2649Z" fill="black"/>
</g>
<defs>
<clipPath id="clip0_457_220">
<rect width="163.468" height="39.1206" fill="white" transform="translate(0.97168 0.326172)"/>
</clipPath>
</defs>
</svg>
