<svg width="164" height="40" viewBox="0 0 164 40" fill="none" xmlns="http://www.w3.org/2000/svg">
<g clip-path="url(#clip0_458_348)">
<path d="M160.828 9.6288V6.35179H158.187V3.07544H7.65453V6.35179H5.01405V9.6288H2.37305V32.5672H5.01405V35.8442H7.65453V39.1205H158.187V35.8442H160.828V32.5672H163.468V9.6288H160.828Z" fill="black"/>
<path d="M155.812 6.55362V3.27661H5.28013V6.55362H2.63965V29.492H5.28013V32.769H155.812V29.492H158.453V6.55362H155.812Z" fill="#F88989"/>
<path d="M158.454 6.55371V29.4921H161.095V6.55371H158.454Z" fill="black"/>
<path d="M155.813 32.7689H158.454V29.4919H155.813V32.7689Z" fill="black"/>
<path d="M158.454 6.55362V3.27661H155.813V6.55362H158.454Z" fill="black"/>
<path d="M150.531 32.769H5.28125V36.0454H155.813V32.769H150.531Z" fill="black"/>
<path d="M10.5633 3.27635H155.813V0H5.28125V3.27635H10.5633Z" fill="black"/>
<path d="M2.63965 29.4919V32.7689H5.28013V29.4919H2.63965Z" fill="black"/>
<path d="M5.28013 3.27661H2.63965V6.55362H5.28013V3.27661Z" fill="black"/>
<path d="M2.64101 22.9387V6.55371H0V29.4921H2.64101V22.9387Z" fill="black"/>
<path d="M43.3949 10.5287H46.6981V13.8319H50.0013V17.135H46.6981V27H43.3949V10.5287ZM56.6077 10.5287H59.9109V27H56.6077V17.135H53.3045V13.8319H56.6077V10.5287ZM50.0013 17.135H53.3045V20.4382H50.0013V17.135ZM62.7008 10.5287H79.2168V13.8319H66.004V17.135H75.9136V20.4382H66.004V23.7414H79.2168V27H62.7008V10.5287ZM82.0066 10.5287H85.3098V13.8319H88.613V17.135H85.3098V27H82.0066V10.5287ZM95.2194 10.5287H98.5226V27H95.2194V23.7414H91.9162V20.4382H95.2194V10.5287ZM88.613 17.135H91.9162V20.4382H88.613V17.135ZM101.312 10.5287H104.616V23.7414H101.312V10.5287ZM114.525 10.5287H117.828V23.7414H114.525V10.5287ZM104.616 23.7414H114.525V27H104.616V23.7414Z" fill="black"/>
</g>
<defs>
<clipPath id="clip0_458_348">
<rect width="163.468" height="39.1206" fill="white"/>
</clipPath>
</defs>
</svg>
