<svg width="251" height="45" viewBox="0 0 251 45" fill="none" xmlns="http://www.w3.org/2000/svg">
<g clip-path="url(#clip0_659_11617)">
<path d="M246.945 11.0014V7.25719H242.89V3.51367H11.7531V7.25719H7.69873V11.0014H3.64355V37.2105H7.69873V40.9548H11.7531V44.6983H242.89V40.9548H246.945V37.2105H251V11.0014H246.945Z" fill="black"/>
<path d="M239.245 7.48743V3.74316H8.10808V7.48743H4.05371V33.6965H8.10808V37.4408H239.245V33.6965H243.3V7.48743H239.245Z" fill="#FF0000"/>
<path d="M243.301 7.48779V33.6969H247.355V7.48779H243.301Z" fill="black"/>
<path d="M239.246 37.4413H243.301V33.697H239.246V37.4413Z" fill="black"/>
<path d="M243.301 7.48743V3.74316H239.246V7.48743H243.301Z" fill="black"/>
<path d="M231.136 37.4412H8.10938V41.1847H239.246V37.4412H231.136Z" fill="black"/>
<path d="M16.2197 3.74351H239.246V0H8.10938V3.74351H16.2197Z" fill="black"/>
<path d="M4.05371 33.697V37.4413H8.10808V33.697H4.05371Z" fill="black"/>
<path d="M8.10808 3.74316H4.05371V7.48743H8.10808V3.74316Z" fill="black"/>
<path d="M4.05518 26.2091V7.48779H0V33.6969H4.05518V26.2091Z" fill="black"/>
</g>
<path d="M15.9986 15.2088H25.4571V17.5734H18.3632V24.6673H25.4571V27H15.9986V15.2088ZM25.4571 17.5734H27.8217V24.6673H25.4571V17.5734ZM29.8189 15.2088H41.642V17.5734H32.1835V19.9381H39.2774V22.3027H32.1835V24.6673H41.642V27H29.8189V15.2088ZM43.6392 15.2088H53.0977V17.5734H46.0038V19.9381H53.0977V22.3027H46.0038V27H43.6392V15.2088ZM53.0977 17.5734H55.4623V19.9381H53.0977V17.5734ZM59.8241 15.2088H66.918V17.5734H59.8241V15.2088ZM57.4595 17.5734H59.8241V24.6673H57.4595V17.5734ZM66.918 17.5734H69.2826V24.6673H66.918V17.5734ZM59.8241 24.6673H66.918V27H59.8241V24.6673ZM73.6444 15.2088H83.1029V17.5734H73.6444V15.2088ZM71.2797 17.5734H73.6444V19.9381H71.2797V17.5734ZM73.6444 19.9381H80.7383V22.3027H73.6444V19.9381ZM80.7383 22.3027H83.1029V24.6673H80.7383V22.3027ZM71.2797 24.6673H80.7383V27H71.2797V24.6673ZM85.1 15.2088H96.9232V17.5734H92.1939V24.6673H96.9232V27H85.1V24.6673H89.8293V17.5734H85.1V15.2088ZM98.9203 15.2088H110.743V17.5734H106.014V27H103.65V17.5734H98.9203V15.2088ZM122.199 15.2088H124.564V17.5734H122.199V15.2088ZM119.835 17.5734H122.199V19.9381H119.835V17.5734ZM117.47 19.9381H119.835V22.3027H117.47V19.9381ZM115.105 22.3027H117.47V24.6673H115.105V22.3027ZM112.741 24.6673H115.105V27H112.741V24.6673ZM126.561 15.2088H128.926V22.3027H131.29V24.6673H128.926V27H126.561V15.2088ZM136.019 15.2088H138.384V27H136.019V24.6673H133.655V22.3027H136.019V15.2088ZM131.29 19.9381H133.655V22.3027H131.29V19.9381ZM140.381 15.2088H152.204V17.5734H147.475V24.6673H152.204V27H140.381V24.6673H145.11V17.5734H140.381V15.2088ZM154.202 15.2088H166.025V17.5734H161.295V27H158.931V17.5734H154.202V15.2088ZM168.022 15.2088H170.386V19.9381H177.48V15.2088H179.845V27H177.48V22.3027H170.386V27H168.022V15.2088ZM181.842 15.2088H191.301V17.5734H184.207V24.6673H191.301V27H181.842V15.2088ZM191.301 17.5734H193.665V24.6673H191.301V17.5734ZM195.662 15.2088H205.121V17.5734H198.027V19.9381H205.121V22.3027H198.027V27H195.662V15.2088ZM205.121 17.5734H207.486V19.9381H205.121V17.5734ZM205.121 22.3027H207.486V27H205.121V22.3027ZM211.847 15.2088H218.941V17.5734H211.847V15.2088ZM209.483 17.5734H211.847V19.9381H218.941V17.5734H221.306V27H218.941V22.3027H211.847V27H209.483V17.5734ZM223.303 15.2088H225.668V22.3027H228.032V24.6673H225.668V27H223.303V15.2088ZM232.761 15.2088H235.126V27H232.761V24.6673H230.397V22.3027H232.761V15.2088ZM228.032 19.9381H230.397V22.3027H228.032V19.9381Z" fill="white"/>
<defs>
<clipPath id="clip0_659_11617">
<rect width="251" height="44.6986" fill="white"/>
</clipPath>
</defs>
</svg>
