<svg width="164" height="40" viewBox="0 0 164 40" fill="none" xmlns="http://www.w3.org/2000/svg">
<g clip-path="url(#clip0_559_897)">
<path d="M160.828 9.62874V6.35173H158.187V3.07538H7.65453V6.35173H5.01405V9.62874H2.37305V32.5671H5.01405V35.8441H7.65453V39.1205H158.187V35.8441H160.828V32.5671H163.468V9.62874H160.828Z" fill="black"/>
<path d="M155.812 6.5535V3.27649H5.28013V6.5535H2.63965V29.4919H5.28013V32.7689H155.812V29.4919H158.453V6.5535H155.812Z" fill="#F88989"/>
<path d="M158.454 6.55377V29.4922H161.095V6.55377H158.454Z" fill="black"/>
<path d="M155.813 32.7691H158.454V29.4921H155.813V32.7691Z" fill="black"/>
<path d="M158.454 6.5535V3.27649H155.813V6.5535H158.454Z" fill="black"/>
<path d="M150.531 32.769H5.28125V36.0454H155.813V32.769H150.531Z" fill="black"/>
<path d="M10.5633 3.27641H155.813V6.10352e-05H5.28125V3.27641H10.5633Z" fill="black"/>
<path d="M2.63965 29.4921V32.7691H5.28013V29.4921H2.63965Z" fill="black"/>
<path d="M5.28013 3.27649H2.63965V6.5535H5.28013V3.27649Z" fill="black"/>
<path d="M2.64101 22.9388V6.55377H0V29.4922H2.64101V22.9388Z" fill="black"/>
<path d="M20.8292 14.2091H28.6832V16.1726H22.7927V18.136H28.6832V20.0995H22.7927V22.063H28.6832V24H20.8292V14.2091ZM28.6832 16.1726H30.6467V18.136H28.6832V16.1726ZM28.6832 20.0995H30.6467V22.063H28.6832V20.0995ZM34.2685 14.2091H40.159V16.1726H34.2685V14.2091ZM32.305 16.1726H34.2685V18.136H40.159V16.1726H42.1225V24H40.159V20.0995H34.2685V24H32.305V16.1726ZM45.7443 14.2091H51.6348V16.1726H45.7443V14.2091ZM43.7808 16.1726H45.7443V22.063H43.7808V16.1726ZM51.6348 16.1726H53.5983V18.136H51.6348V16.1726ZM51.6348 20.0995H53.5983V22.063H51.6348V20.0995ZM45.7443 22.063H51.6348V24H45.7443V22.063ZM55.2567 14.2091H57.2202V18.136H61.1472V20.0995H57.2202V24H55.2567V14.2091ZM63.1107 14.2091H65.0742V16.1726H63.1107V14.2091ZM61.1472 16.1726H63.1107V18.136H61.1472V16.1726ZM61.1472 20.0995H63.1107V22.063H61.1472V20.0995ZM63.1107 22.063H65.0742V24H63.1107V22.063ZM71.3759 14.2091H81.1934V16.1726H77.2664V24H75.3029V16.1726H71.3759V14.2091ZM84.8152 14.2091H90.7057V16.1726H84.8152V14.2091ZM82.8518 16.1726H84.8152V22.063H82.8518V16.1726ZM90.7057 16.1726H92.6692V22.063H90.7057V16.1726ZM84.8152 22.063H90.7057V24H84.8152V22.063ZM98.971 14.2091H106.825V16.1726H100.934V18.136H106.825V20.0995H100.934V24H98.971V14.2091ZM106.825 16.1726H108.788V18.136H106.825V16.1726ZM106.825 20.0995H108.788V24H106.825V20.0995ZM112.41 14.2091H118.301V16.1726H112.41V14.2091ZM110.447 16.1726H112.41V18.136H118.301V16.1726H120.264V24H118.301V20.0995H112.41V24H110.447V16.1726ZM123.886 14.2091H129.777V16.1726H123.886V14.2091ZM121.923 16.1726H123.886V22.063H121.923V16.1726ZM129.777 16.1726H131.74V18.136H129.777V16.1726ZM129.777 20.0995H131.74V22.063H129.777V20.0995ZM123.886 22.063H129.777V24H123.886V22.063ZM133.398 14.2091H143.216V16.1726H135.362V18.136H141.252V20.0995H135.362V22.063H143.216V24H133.398V14.2091Z" fill="black"/>
</g>
<defs>
<clipPath id="clip0_559_897">
<rect width="163.468" height="39.1206" fill="white"/>
</clipPath>
</defs>
</svg>
