<svg width="223" height="72" viewBox="0 0 223 72" fill="none" xmlns="http://www.w3.org/2000/svg">
<path d="M202.887 58.9047H209.427V39.2698H202.887V58.9047Z" fill="#298941"/>
<path d="M202.888 52.3481H196.349V65.4437H202.888V52.3481Z" fill="#298941"/>
<path d="M170.174 65.4269H196.349V58.8876H170.174V65.4269Z" fill="#298941"/>
<path d="M19.635 6.53955H13.0957V13.0789H19.635V6.53955Z" fill="#07042D"/>
<path d="M202.888 0H19.6348V6.53931H202.888V0Z" fill="#07042D"/>
<path d="M13.0955 65.4437H19.6348V58.9044H13.0955V65.4437Z" fill="#07042D"/>
<path d="M6.55639 26.1742H13.0957L13.0957 13.0787H6.55639L6.55639 26.1742Z" fill="#07042D"/>
<path d="M6.55639 58.9047H13.0957L13.0957 45.8091H6.55639L6.55639 58.9047Z" fill="#07042D"/>
<path d="M202.888 65.4437H19.6348V71.983H202.888V65.4437Z" fill="#07042D"/>
<path d="M6.53931 26.1742H0V45.809H6.53931V26.1742Z" fill="#07042D"/>
<path d="M209.427 58.9047H202.888V65.444H209.427V58.9047Z" fill="#07042D"/>
<path d="M209.427 6.53955H202.888V13.0789H209.427V6.53955Z" fill="#07042D"/>
<path d="M215.966 45.8091H209.427V58.9046H215.966V45.8091Z" fill="#07042D"/>
<path d="M215.966 13.0956H209.427V26.1911H215.966V13.0956Z" fill="#07042D"/>
<path d="M222.522 26.1742H215.982V45.809H222.522V26.1742Z" fill="#07042D"/>
<path d="M19.635 13.0956H13.0957V58.9045H19.635V13.0956Z" fill="#4EB947"/>
<path d="M209.427 13.0956H202.888V58.9045H209.427V13.0956Z" fill="#4EB947"/>
<path d="M26.1741 6.53955H19.6348V65.444H26.1741V6.53955Z" fill="#4EB947"/>
<path d="M32.7131 6.53955H26.1738V65.444H32.7131V6.53955Z" fill="#4EB947"/>
<path d="M39.2698 6.53955H32.7305V65.444H39.2698V6.53955Z" fill="#4EB947"/>
<path d="M45.8088 6.53955H39.2695V65.444H45.8088V6.53955Z" fill="#4EB947"/>
<path d="M52.3479 6.53955H45.8086V65.444H52.3479V6.53955Z" fill="#4EB947"/>
<path d="M58.9045 6.53955H52.3652V65.444H58.9045V6.53955Z" fill="#4EB947"/>
<path d="M65.4436 6.53955H58.9043V65.444H65.4436V6.53955Z" fill="#4EB947"/>
<path d="M71.9827 6.53955H65.4434V65.444H71.9827V6.53955Z" fill="#4EB947"/>
<path d="M78.5383 6.53955H71.999V65.444H78.5383V6.53955Z" fill="#4EB947"/>
<path d="M85.0784 6.53955H78.5391V65.444H85.0784V6.53955Z" fill="#4EB947"/>
<path d="M91.6184 6.53955H85.0791V65.444H91.6184V6.53955Z" fill="#4EB947"/>
<path d="M98.1741 6.53955H91.6348V65.444H98.1741V6.53955Z" fill="#4EB947"/>
<path d="M104.713 6.53955H98.1738V65.444H104.713V6.53955Z" fill="#4EB947"/>
<path d="M111.253 6.53955H104.714V65.444H111.253V6.53955Z" fill="#4EB947"/>
<path d="M117.791 6.53955H111.252V65.444H117.791V6.53955Z" fill="#4EB947"/>
<path d="M124.349 6.53955H117.81V65.444H124.349V6.53955Z" fill="#4EB947"/>
<path d="M130.887 6.53955H124.348V65.444H130.887V6.53955Z" fill="#4EB947"/>
<path d="M137.427 6.53955H130.888V65.444H137.427V6.53955Z" fill="#4EB947"/>
<path d="M143.983 6.53955H137.443V65.444H143.983V6.53955Z" fill="#4EB947"/>
<path d="M150.522 6.53955H143.982V65.444H150.522V6.53955Z" fill="#4EB947"/>
<path d="M157.062 6.53955H150.522V65.444H157.062V6.53955Z" fill="#4EB947"/>
<path d="M163.617 6.53955H157.078V65.444H163.617V6.53955Z" fill="#4EB947"/>
<path d="M170.157 6.53955H163.618V65.444H170.157V6.53955Z" fill="#4EB947"/>
<path d="M196.331 6.53955H170.157V65.444H196.331V6.53955Z" fill="#4EB947"/>
<path d="M202.888 6.53955H196.349V65.444H202.888V6.53955Z" fill="#4EB947"/>
<path d="M13.0784 26.1742H6.53906V45.809H13.0784V26.1742Z" fill="#4EB947"/>
<path d="M215.966 26.1742H209.427V45.809H215.966V26.1742Z" fill="#4EB947"/>
<path d="M202.888 58.9047H19.6348V65.444H202.888V58.9047Z" fill="#298941"/>
<path d="M13.0955 58.9047H19.6348L19.6348 39.2698H13.0955L13.0955 58.9047Z" fill="#298941"/>
<path d="M202.887 58.9047H209.427V39.2698H202.887V58.9047Z" fill="#298941"/>
<path d="M19.6345 65.4437H26.1738V52.3482H19.6345V65.4437Z" fill="#298941"/>
<path d="M26.1912 65.4437H32.7305V58.9044H26.1912V65.4437Z" fill="#298941"/>
<path d="M6.55639 45.826H13.0957L13.0957 26.1912H6.55639L6.55639 45.826Z" fill="#298941"/>
<path d="M13.0955 19.6349H19.6348V13.0956H13.0955V19.6349Z" fill="#6AE061"/>
<path d="M19.6345 19.6349H26.1738V13.0956H19.6345V19.6349Z" fill="white"/>
<path d="M13.0955 26.1742H19.6348V19.6349H13.0955V26.1742Z" fill="white"/>
<path d="M202.887 19.6349H209.427V13.0956H202.887V19.6349Z" fill="#6AE061"/>
<path d="M196.348 52.3652H202.888V45.8259H196.348V52.3652Z" fill="#6AE061"/>
<path d="M183.253 58.9215H196.349V52.3822H183.253V58.9215Z" fill="#6AE061"/>
<path d="M196.348 58.9215H202.888V52.3822H196.348V58.9215Z" fill="#298941"/>
<path d="M209.443 45.826H215.982V26.1912H209.443V45.826Z" fill="#298941"/>
<path d="M202.888 6.53955H19.6348V13.0789H202.888V6.53955Z" fill="#6AE061"/>
<path d="M26.174 13.0956L39.2695 13.0956V6.55627L26.174 6.55627V13.0956Z" fill="white"/>
</svg>
