<svg width="204" height="42" viewBox="0 0 204 42" fill="none" xmlns="http://www.w3.org/2000/svg">
<path d="M200.704 10.3375V6.81926H197.408V3.30176H9.55196V6.81926H6.25678V10.3375H2.96094V34.9642H6.25678V38.4824H9.55196V41.9999H197.408V38.4824H200.704V34.9642H203.999V10.3375H200.704Z" fill="black"/>
<path d="M194.446 7.03585V3.51764H6.58913V7.03585H3.29395V31.6626H6.58913V35.1808H194.446V31.6626H197.741V7.03585H194.446Z" fill="currentColor"/>
<path d="M197.742 7.03613V31.6629H201.037V7.03613H197.742Z" fill="black"/>
<path d="M194.447 35.181H197.743V31.6628H194.447V35.181Z" fill="black"/>
<path d="M197.743 7.03585V3.51764H194.447V7.03585H197.743Z" fill="black"/>
<path d="M187.856 35.181H6.59082V38.6985H194.447V35.181H187.856Z" fill="black"/>
<path d="M13.1825 3.51763H194.447V0.00012207H6.59082V3.51763H13.1825Z" fill="black"/>
<path d="M3.29395 31.6628V35.181H6.58913V31.6628H3.29395Z" fill="black"/>
<path d="M6.58913 3.51764H3.29395V7.03585H6.58913V3.51764Z" fill="black"/>
<path d="M3.29584 24.6272V7.03613H0V31.6629H3.29584V24.6272Z" fill="black"/>
</svg>
