<svg width="89" height="29" viewBox="0 0 89 29" fill="none" xmlns="http://www.w3.org/2000/svg">
<g clip-path="url(#clip0_309_25545)">
<path d="M81.1472 23.5593H83.7627V15.7062H81.1472V23.5593Z" fill="#298941"/>
<path d="M81.1477 20.937H78.5322V26.1747H81.1477V20.937Z" fill="#298941"/>
<path d="M68.0636 26.168H78.5322V23.5525H68.0636V26.168Z" fill="#298941"/>
<path d="M7.85277 2.61548H5.2373V5.23094H7.85277V2.61548Z" fill="#07042D"/>
<path d="M81.1472 0H7.85352V2.61546H81.1472V0Z" fill="#07042D"/>
<path d="M5.23806 26.1746H7.85352V23.5591H5.23806V26.1746Z" fill="#07042D"/>
<path d="M2.62184 10.4685H5.2373L5.2373 5.23083H2.62184L2.62184 10.4685Z" fill="#07042D"/>
<path d="M2.62184 23.5593H5.2373L5.2373 18.3216H2.62184L2.62184 23.5593Z" fill="#07042D"/>
<path d="M81.1472 26.1746H7.85352V28.79H81.1472V26.1746Z" fill="#07042D"/>
<path d="M2.61546 10.4685H0V18.3216H2.61546V10.4685Z" fill="#07042D"/>
<path d="M83.7619 23.5593H81.1465V26.1748H83.7619V23.5593Z" fill="#07042D"/>
<path d="M83.7619 2.61548H81.1465V5.23094H83.7619V2.61548Z" fill="#07042D"/>
<path d="M86.3782 18.3218H83.7627V23.5595H86.3782V18.3218Z" fill="#07042D"/>
<path d="M86.3782 5.23755H83.7627V10.4752H86.3782V5.23755Z" fill="#07042D"/>
<path d="M88.9993 10.4685H86.3838V18.3216H88.9993V10.4685Z" fill="#07042D"/>
<path d="M7.85277 5.23755H5.2373V23.5593H7.85277V5.23755Z" fill="#4EB947"/>
<path d="M83.7619 5.23755H81.1465V23.5593H83.7619V5.23755Z" fill="#4EB947"/>
<path d="M10.469 2.61548H7.85352V26.1749H10.469V2.61548Z" fill="#4EB947"/>
<path d="M13.0832 2.61548H10.4678V26.1749H13.0832V2.61548Z" fill="#4EB947"/>
<path d="M15.7063 2.61548H13.0908V26.1749H15.7063V2.61548Z" fill="#4EB947"/>
<path d="M18.3215 2.61548H15.7061V26.1749H18.3215V2.61548Z" fill="#4EB947"/>
<path d="M20.9367 2.61548H18.3213V26.1749H20.9367V2.61548Z" fill="#4EB947"/>
<path d="M23.5588 2.61548H20.9434V26.1749H23.5588V2.61548Z" fill="#4EB947"/>
<path d="M26.175 2.61548H23.5596V26.1749H26.175V2.61548Z" fill="#4EB947"/>
<path d="M28.7903 2.61548H26.1748V26.1749H28.7903V2.61548Z" fill="#4EB947"/>
<path d="M31.4123 2.61548H28.7969V26.1749H31.4123V2.61548Z" fill="#4EB947"/>
<path d="M34.0285 2.61548H31.4131V26.1749H34.0285V2.61548Z" fill="#4EB947"/>
<path d="M36.6438 2.61548H34.0283V26.1749H36.6438V2.61548Z" fill="#4EB947"/>
<path d="M39.2659 2.61548H36.6504V26.1749H39.2659V2.61548Z" fill="#4EB947"/>
<path d="M41.8811 2.61548H39.2656V26.1749H41.8811V2.61548Z" fill="#4EB947"/>
<path d="M44.4973 2.61548H41.8818V26.1749H44.4973V2.61548Z" fill="#4EB947"/>
<path d="M47.1125 2.61548H44.4971V26.1749H47.1125V2.61548Z" fill="#4EB947"/>
<path d="M49.7346 2.61548H47.1191V26.1749H49.7346V2.61548Z" fill="#4EB947"/>
<path d="M52.3498 2.61548H49.7344V26.1749H52.3498V2.61548Z" fill="#4EB947"/>
<path d="M54.9651 2.61548H52.3496V26.1749H54.9651V2.61548Z" fill="#4EB947"/>
<path d="M57.5871 2.61548H54.9717V26.1749H57.5871V2.61548Z" fill="#4EB947"/>
<path d="M60.2024 2.61548H57.5869V26.1749H60.2024V2.61548Z" fill="#4EB947"/>
<path d="M62.8186 2.61548H60.2031V26.1749H62.8186V2.61548Z" fill="#4EB947"/>
<path d="M65.4397 2.61548H62.8242V26.1749H65.4397V2.61548Z" fill="#4EB947"/>
<path d="M68.0559 2.61548H65.4404V26.1749H68.0559V2.61548Z" fill="#4EB947"/>
<path d="M78.5252 2.61548H68.0566V26.1749H78.5252V2.61548Z" fill="#4EB947"/>
<path d="M81.1477 2.61548H78.5322V26.1749H81.1477V2.61548Z" fill="#4EB947"/>
<path d="M5.23167 10.4685H2.61621V18.3216H5.23167V10.4685Z" fill="#4EB947"/>
<path d="M86.3782 10.4685H83.7627V18.3216H86.3782V10.4685Z" fill="#4EB947"/>
<path d="M81.1472 23.5593H7.85352V26.1748H81.1472V23.5593Z" fill="#298941"/>
<path d="M5.23806 23.5593H7.85352L7.85352 15.7062H5.23806L5.23806 23.5593Z" fill="#298941"/>
<path d="M81.1472 23.5593H83.7627V15.7062H81.1472V23.5593Z" fill="#298941"/>
<path d="M7.85231 26.1746H10.4678V20.9369H7.85231V26.1746Z" fill="#298941"/>
<path d="M10.4754 26.1746H13.0908V23.5591H10.4754V26.1746Z" fill="#298941"/>
<path d="M2.62184 18.3284H5.2373L5.2373 10.4752H2.62184L2.62184 18.3284Z" fill="#298941"/>
<path d="M5.23806 7.85327H7.85352V5.23781H5.23806V7.85327Z" fill="#6AE061"/>
<path d="M7.85231 7.85327H10.4678V5.23781H7.85231V7.85327Z" fill="white"/>
<path d="M5.23806 10.4685H7.85352V7.85305H5.23806V10.4685Z" fill="white"/>
<path d="M81.1472 7.85327H83.7627V5.23781H81.1472V7.85327Z" fill="#6AE061"/>
<path d="M78.531 20.9438H81.1465V18.3284H78.531V20.9438Z" fill="#6AE061"/>
<path d="M73.2945 23.5662H78.5322V20.9507H73.2945V23.5662Z" fill="#6AE061"/>
<path d="M78.531 23.5662H81.1465V20.9507H78.531V23.5662Z" fill="#298941"/>
<path d="M83.7683 18.3284H86.3838V10.4752H83.7683V18.3284Z" fill="#298941"/>
<path d="M81.1472 2.61548H7.85352V5.23094H81.1472V2.61548Z" fill="#6AE061"/>
<path d="M10.4684 5.23755L15.7061 5.23755V2.62209L10.4684 2.62209V5.23755Z" fill="white"/>
<path d="M20.0008 10.3839H24.2211V11.7907H20.0008V10.3839ZM18.5941 11.7907H20.0008V16.0109H18.5941V11.7907ZM24.2211 11.7907H25.6278V13.1974H24.2211V11.7907ZM24.2211 14.6042H25.6278V16.0109H24.2211V14.6042ZM20.0008 16.0109H24.2211V17.3987H20.0008V16.0109ZM28.2227 10.3839H32.4429V11.7907H28.2227V10.3839ZM26.8159 11.7907H28.2227V16.0109H26.8159V11.7907ZM32.4429 11.7907H33.8497V16.0109H32.4429V11.7907ZM28.2227 16.0109H32.4429V17.3987H28.2227V16.0109ZM35.0378 10.3839H36.4446V11.7907H37.8513V13.1974H36.4446V17.3987H35.0378V10.3839ZM40.6648 10.3839H42.0716V17.3987H40.6648V16.0109H39.2581V14.6042H40.6648V10.3839ZM37.8513 13.1974H39.2581V14.6042H37.8513V13.1974ZM43.2597 10.3839H50.2935V11.7907H44.6665V13.1974H48.8867V14.6042H44.6665V17.3987H43.2597V10.3839ZM51.4816 10.3839H58.5153V11.7907H55.7018V16.0109H58.5153V17.3987H51.4816V16.0109H54.2951V11.7907H51.4816V10.3839ZM59.7035 10.3839H65.3305V11.7907H61.1102V13.1974H65.3305V14.6042H61.1102V17.3987H59.7035V10.3839ZM65.3305 11.7907H66.7372V13.1974H65.3305V11.7907ZM65.3305 14.6042H66.7372V17.3987H65.3305V14.6042ZM67.9254 10.3839H69.3321V11.7907H70.7389V13.1974H69.3321V17.3987H67.9254V10.3839ZM73.5524 10.3839H74.9591V17.3987H73.5524V13.1974H72.1456V11.7907H73.5524V10.3839ZM70.7389 13.1974H72.1456V14.6042H70.7389V13.1974Z" fill="white"/>
</g>
<defs>
<clipPath id="clip0_309_25545">
<rect width="89" height="28.7971" fill="white"/>
</clipPath>
</defs>
</svg>
