<svg xmlns="http://www.w3.org/2000/svg" width="219" height="236" viewBox="0 0 219 236" fill="none">
<g clip-path="url(#clip0_550_100)">
<path d="M214.116 9.83251C215.636 9.83251 217.156 9.83251 218.674 9.83251C218.843 9.83251 218.936 9.95736 218.982 10.2408C217.468 11.2857 215.764 10.7382 214.136 10.8354C212.496 10.8876 210.856 10.8856 209.217 10.8375C196.615 10.9613 184.01 10.7689 171.573 10.9418C170.902 12.0338 170.962 12.8085 171.288 13.8369C175.742 14.585 180.355 13.6108 184.568 14.3701C185.963 15.7353 185.147 17.433 186.093 18.7972C188.517 19.138 191.032 19.1462 193.39 18.8003C193.965 18.2036 193.952 17.6408 194.028 17.1076C194.375 14.6546 194.839 14.1276 197.238 14.145C199.632 14.1634 202.079 13.7111 204.403 14.5615C205.266 16.3125 205.107 17.9396 204.637 19.4388C203.394 20.6055 201.839 19.9843 200.651 20.674C199.763 21.8171 200.51 23.4136 199.551 24.5813C198.489 25.533 196.933 24.8668 195.717 25.6159C195.167 26.4745 195.271 27.3822 195.607 28.4516C198.431 29.4238 201.516 28.2142 204.137 29.213C204.793 29.8311 204.939 30.4349 204.954 31.0499C205.052 35.0012 205.055 38.9524 204.954 42.9026C204.944 43.3129 204.834 43.71 204.626 44.0712C203.52 45.2757 201.86 44.3885 200.576 45.1755C199.604 46.3513 200.645 48.1637 199.437 49.3252C196.386 49.798 193.337 50.0395 190.289 49.3303C189.47 48.5955 189.659 47.5947 189.638 46.6665C189.588 44.5031 189.136 42.397 188.988 40.3523C187.605 39.5224 186.105 40.2469 184.921 39.4548C183.888 38.2698 184.715 36.6549 183.988 35.3317C182.833 34.6686 181.524 35.1178 180.285 34.951C178.536 34.7463 176.697 35.4156 175.033 34.3923C174.256 33.2614 174.824 31.8236 174.208 30.6641C172.468 29.9427 47.1266 29.8618 44.9197 30.5823C44.1482 31.6875 44.7382 33.1478 44.0317 34.2838C42.58 35.4617 40.8678 34.7392 39.2854 34.9459C37.8936 35.0462 36.4571 34.6839 35.1078 35.2897C34.2847 36.4554 34.9173 37.8748 34.384 39.0639C34.2817 39.2737 34.1296 39.4344 33.9299 39.5521C32.8036 40.0924 31.5111 39.6104 30.3423 40.1538C29.1907 41.3419 30.4031 43.2863 29.0752 44.4489C25.7451 45.1161 22.3815 44.6484 19.0352 44.7375C17.5866 44.7763 16.0762 45.0527 14.7421 44.3455C13.6493 43.1952 14.3032 41.6387 13.625 40.38C12.5727 39.5469 11.1454 40.1845 9.9989 39.6022C8.60604 38.6147 9.68464 36.8279 8.751 35.6704C7.78391 35.0974 6.61508 35.5538 5.61251 35.0943C5.3905 34.9868 5.24757 34.8139 5.18066 34.5765C5.2273 34.468 5.27393 34.3605 5.32056 34.2521C5.41686 34.1855 5.51317 34.119 5.60846 34.0515C6.59481 33.5725 7.77985 34.0351 8.83413 33.33C9.46466 31.5504 9.02775 29.6316 9.15649 27.7557C9.23455 26.6208 8.93955 25.4214 9.7181 24.4052C10.893 23.5824 12.4065 24.3039 13.8125 23.433C13.6209 20.3599 14.9175 18.4544 18.1807 18.8903C18.9095 18.175 18.8558 17.4617 18.8872 16.7986C18.9714 15.067 19.832 14.1399 21.5574 14.1573C24.0958 14.1828 26.6605 13.8308 28.9708 14.4244C30.1649 15.7455 29.5374 17.2877 30.1426 18.5444C31.058 19.2014 32.0089 19.0981 33.2152 18.5966C33.1737 15.5275 34.3445 13.3785 37.7689 13.9966C38.3893 12.9108 38.3771 12.1382 37.9888 11.3297C37.1728 10.685 36.1966 10.8723 35.2751 10.8702C27.9215 10.8538 20.567 10.8651 13.2134 10.8579C12.4055 10.8579 11.5783 10.9255 10.8129 10.6144C10.4297 10.4588 9.79514 10.3145 10.3162 9.635C11.5783 8.92274 12.959 9.17858 14.291 9.17756C64.3578 9.16426 114.425 9.1663 164.491 9.1663C178.545 9.1663 192.598 9.16528 206.652 9.16835C207.462 9.16835 208.274 9.12127 209.081 9.2277C210.77 9.33618 212.542 8.74775 214.116 9.83149V9.83251Z" fill="#D5AA71"/>
<path d="M214.116 230.707C214.162 230.859 214.122 230.988 213.977 231.045C213.863 231.09 213.733 231.112 213.61 231.113C212.156 231.117 210.704 231.116 209.25 231.116C208.657 231.662 207.918 231.733 207.168 231.76C206.222 231.793 205.276 231.778 204.33 231.778C141.236 231.778 78.1421 231.778 15.0478 231.786C13.7807 231.786 12.4852 231.613 11.3163 232.11C10.5084 233.205 11.0862 234.662 10.1546 235.615C10.0025 235.662 9.86164 235.622 9.82007 235.473C9.76939 235.289 9.75317 235.09 9.75215 234.898C9.74607 233.694 9.74911 232.492 9.74911 231.34C9.63963 231.157 9.53015 231.113 9.39025 231.113C8.12715 231.117 6.86304 231.116 5.59994 231.115C5.42558 231.115 5.33333 230.991 5.28771 230.706C6.26798 229.776 7.64462 230.443 8.75566 229.835C9.35781 229.005 9.25543 228.112 8.92597 227.176C8.04606 226.601 7.1631 226.7 6.27812 227.066C5.43876 228.162 6.27812 229.687 5.28568 230.705C5.13667 230.751 5.00995 230.711 4.95318 230.566C4.90858 230.451 4.88526 230.32 4.88526 230.196C4.88019 228.866 4.88222 227.536 4.88222 226.206C4.71496 226.005 4.57912 225.785 4.47268 225.545C4.275 222.458 3.80463 219.36 4.77477 216.309C6.38963 215.546 8.02882 215.678 9.67815 216.175C10.8602 217.316 9.85454 219.082 10.8389 220.276C11.7401 220.995 12.7964 220.709 13.7827 220.71C45.2609 220.725 76.7391 220.719 108.217 220.731C109.414 220.731 110.655 220.516 111.911 221.199C112.881 222.774 112.717 224.446 112.133 226.021C110.925 227.193 109.362 226.544 108.175 227.251C107.628 227.999 107.761 228.766 108.04 229.538C109.21 230.293 110.456 230.037 111.642 230.037C143.255 230.051 174.869 230.048 206.482 230.05C207.359 230.05 208.238 230.004 209.113 230.103C210.793 230.206 212.553 229.628 214.117 230.706L214.116 230.707Z" fill="#6C3F31"/>
<path d="M209.25 230.707C175.287 230.707 141.322 230.707 107.358 230.704C107.301 230.704 107.245 230.653 107.189 230.626C107.148 230.574 107.072 230.523 107.072 230.472C107.066 229.112 107.067 227.753 107.067 226.424C107.167 226.262 107.277 226.207 107.415 226.207C108.765 226.209 110.115 226.205 111.466 226.212C111.616 226.212 111.736 226.208 111.83 226.106C111.865 226.052 111.929 225.999 111.929 225.945C111.934 224.452 111.933 222.959 111.933 221.531C111.816 221.327 111.704 221.293 111.558 221.295C110.951 221.303 110.342 221.299 109.735 221.299C77.1215 221.299 44.5069 221.299 11.8934 221.296C11.2264 221.296 10.5543 221.366 9.89332 221.232C9.74126 221.201 9.70072 221.046 9.74836 220.89C10.3424 220.345 11.0804 220.273 11.8316 220.247C12.7774 220.214 13.7232 220.228 14.67 220.228C77.9213 220.228 141.172 220.228 204.423 220.221C205.627 220.221 206.857 220.389 208.055 219.903C209 218.79 208.257 217.197 209.093 216.053C210.699 214.973 212.377 215.196 214.073 215.777C214.861 216.599 214.677 217.653 214.725 218.648C214.823 220.658 214.529 222.687 214.943 224.64C216.187 225.637 217.862 224.726 218.982 225.797C219.028 225.95 218.988 226.079 218.843 226.135C218.729 226.18 218.599 226.203 218.476 226.204C217.023 226.208 215.57 226.207 214.116 226.207C213.001 227.217 211.477 226.449 210.236 227.112C209.437 228.158 210.236 229.692 209.25 230.705V230.707Z" fill="#874E3D"/>
<path d="M9.74902 4.92425V0.628162C9.9396 0.437816 10.1312 0.245424 10.3603 0.0161899H11.7248C77.0543 0.0161899 142.383 0.0161899 207.712 0.01926C208.176 0.01926 208.648 -0.0523755 209.105 0.080662C209.257 0.124667 209.298 0.267938 209.25 0.424513C209.54 1.98617 209.645 3.54578 209.174 5.09618C208.382 5.6273 207.48 5.49426 206.613 5.49426C141.889 5.50347 77.1647 5.50347 12.4405 5.49119C11.518 5.49119 10.5255 5.68973 9.74902 4.92323V4.92425Z" fill="#010101"/>
<path d="M10.1562 235.615C10.1562 234.185 10.1562 232.754 10.1562 231.323C10.2627 231.255 10.3671 231.129 10.4756 231.126C11.0828 231.106 11.691 231.116 12.2993 231.116H209.253C209.253 232.547 209.253 233.978 209.253 235.408C209.146 235.477 209.042 235.603 208.933 235.606C208.326 235.625 207.718 235.615 207.11 235.615H10.1562Z" fill="black"/>
<path d="M0.0175781 147.265V49.5085C1.6 49.0694 3.19662 49.4399 5.00814 49.2782C6.05431 52.6553 5.16324 56.0416 5.47344 59.343C5.59408 60.5649 5.53731 61.7899 5.53629 63.0138C5.52007 89.2723 5.57786 115.53 5.51602 141.785C5.48966 142.033 5.46838 142.285 5.46027 142.534C5.3518 143.961 5.5738 145.406 5.26158 146.826C5.17744 147.056 5.03653 147.242 4.84392 147.388C4.61583 147.444 4.38369 147.469 4.14851 147.463C2.7739 147.355 1.378 147.697 0.0175781 147.266V147.265Z" fill="#010101"/>
<path d="M9.74971 4.92482H209.251C209.386 4.7181 209.521 4.7181 209.656 4.92482C211.041 4.92482 212.426 4.92482 213.809 4.92482C213.978 4.92482 214.069 5.04967 214.117 5.33314C212.552 6.40869 210.794 5.82742 209.115 5.93488C208.307 6.03824 207.496 5.99423 206.686 5.99423C142.737 5.99628 78.7884 5.99423 14.8406 6.00447C13.6434 6.00447 12.4077 5.79672 11.2713 6.38618C10.511 7.4249 11.0878 8.8791 10.1562 9.83287C10.1086 9.98843 10.1491 10.1491 10.3002 10.1726C10.6246 10.2228 10.956 10.2392 11.2855 10.2402C19.7805 10.2432 28.2745 10.2422 36.7695 10.2422H38.7433C38.8254 10.3251 38.9115 10.3701 38.9156 10.4213C38.9967 11.6493 38.9531 13.7073 38.8355 14.6488C38.7808 14.6795 38.726 14.7379 38.6713 14.7379C37.3291 14.743 35.9869 14.742 34.7157 14.742C34.4603 14.9845 34.2646 15.1697 34.0791 15.3457C34.0791 16.7273 34.0791 18.0873 34.0791 19.4474C33.9716 19.5149 33.8652 19.6408 33.7578 19.6418C32.2848 19.6551 30.8119 19.651 29.4048 19.651C29.2984 19.5231 29.2203 19.473 29.2193 19.4218C29.2132 17.9267 29.2142 16.4326 29.2142 14.9425C29.0966 14.8719 28.9892 14.7512 28.8807 14.7501C25.9815 14.7399 23.0832 14.742 20.182 14.742C19.8799 14.8914 19.6771 15.1482 19.4663 15.4368V19.4638C19.4014 19.5293 19.3537 19.6193 19.3061 19.6193C17.9609 19.6265 16.6167 19.6255 15.2705 19.6255C15.0667 19.8219 14.8751 20.0072 14.6855 20.1904C14.5517 20.657 14.6338 21.1288 14.6207 21.5954C14.6075 22.0713 14.6278 22.5482 14.6146 23.023C14.6014 23.4897 14.6825 23.9615 14.5527 24.4199C14.501 24.468 14.4524 24.553 14.4027 24.554C12.8517 24.5611 11.3017 24.5601 9.75073 24.5601C9.0026 23.7875 9.14351 22.7958 9.13235 21.8615C9.10093 19.1424 9.13134 16.4223 9.11512 13.7032C9.11005 12.8968 9.21142 12.0659 8.75322 11.2994C8.02334 10.7723 7.25494 10.8747 6.45714 11.2032C5.75564 12.0004 5.93203 12.99 5.92898 13.9192C5.90972 19.7657 5.92899 25.6132 5.91277 31.4607C5.90972 32.4697 6.02326 33.5207 5.28932 34.3783C5.01866 34.499 4.80375 34.4335 4.64561 34.1818C4.14686 33.2321 4.26445 32.1954 4.26141 31.1844C4.24722 25.475 4.26242 19.7657 4.24722 14.0563C4.24519 13.1199 4.39522 12.1457 3.84274 11.2717C2.67797 10.5124 1.10974 11.2676 0.0179564 10.2463C-0.0276612 10.0938 0.0118741 9.96489 0.156837 9.9086C0.271388 9.86358 0.401144 9.84106 0.523805 9.84004C1.97749 9.83595 3.43015 9.83697 4.88383 9.83697C6.00299 8.83202 7.51141 9.59955 8.76437 8.95892C9.3422 8.13102 9.25907 7.24376 8.87892 6.31966C7.66245 5.47027 6.0263 6.40153 4.88383 5.33825C4.83822 5.18577 4.87775 5.05683 5.02271 5.00054C5.13727 4.95552 5.26702 4.933 5.38968 4.93198C6.84336 4.92789 8.29603 4.92891 9.74971 4.92891V4.92482Z" fill="#C98D61"/>
<path d="M218.982 54.4168V112.907C217.337 113.263 215.686 113.165 214.035 112.953C213.202 111.75 213.527 110.371 213.502 109.061C213.466 107.26 213.431 105.455 213.526 103.653C213.527 103.389 213.528 103.125 213.521 102.861C213.435 90.0831 213.43 77.3054 213.517 64.5276C213.523 64.2646 213.527 64.0006 213.523 63.7376C213.438 61.3286 213.49 58.9196 213.501 56.5106C213.504 55.7758 213.515 55.0288 214.003 54.4055C215.662 54.1067 217.323 54.0822 218.982 54.4158V54.4168Z" fill="#010000"/>
<path d="M218.984 225.798C217.442 225.798 215.9 225.799 214.358 225.793C214.307 225.793 214.256 225.72 214.205 225.681C214.176 225.626 214.121 225.571 214.121 225.515C214.117 222.337 214.117 219.158 214.117 215.981C213.479 215.262 213.485 214.371 213.486 213.494C213.492 208.028 213.421 202.561 213.516 197.097C213.524 196.837 213.53 196.577 213.529 196.317C213.602 194.792 213.154 193.204 214.064 191.779C215.706 191.622 217.348 191.481 218.983 191.849V225.798H218.984Z" fill="#010100"/>
<path d="M214.116 10.2427H218.982V44.1918C217.405 44.6114 215.816 44.3228 214.197 44.3422C213.127 42.9341 213.571 41.3509 213.526 39.8445C213.527 39.5785 213.528 39.3134 213.521 39.0473C213.404 30.2126 213.485 21.3769 213.48 12.5422C213.48 11.7235 213.523 10.9017 214.116 10.2427Z" fill="#010101"/>
<path d="M0.0175781 10.2427C1.56554 10.2427 3.11349 10.2417 4.66145 10.2479C4.71112 10.2479 4.7608 10.3297 4.80945 10.3727C4.83378 10.43 4.88042 10.4883 4.88042 10.5457C4.88346 18.489 4.88346 26.4314 4.88346 34.3747C5.01321 34.605 5.12878 34.8424 5.23116 35.087C5.52312 38.112 5.74918 41.1351 5.1673 44.244C3.32333 44.4201 1.674 44.5562 0.0175781 44.1919V10.2427Z" fill="#010101"/>
<path d="M214.117 112.907H218.983C219.028 113.059 218.989 113.188 218.844 113.244C218.729 113.289 218.599 113.312 218.477 113.313C217.023 113.317 215.57 113.316 214.117 113.316C212.651 114.335 210.997 113.824 209.419 113.902C206.49 113.978 203.549 113.76 200.721 114.037C199.754 115.28 200.272 116.537 200.168 117.713C200.142 117.97 200.037 118.186 199.857 118.367C199.629 118.485 199.388 118.549 199.134 118.563C196.519 118.504 193.898 118.227 190.923 118.768C190.688 131.588 190.936 144.357 190.79 157.121C190.892 164.659 190.833 172.196 190.814 179.732C190.812 180.59 190.895 181.538 189.983 182.097C189.724 181.987 189.536 181.804 189.416 181.548C189.06 180.634 189.136 179.673 189.136 178.725C189.129 157.851 189.128 136.976 189.136 116.102C189.136 115.088 189.049 114.054 189.503 113.093C189.642 112.852 189.839 112.675 190.088 112.558C193.192 111.986 196.323 112.356 199.442 112.309C201.112 112.257 202.781 112.258 204.451 112.309C206.919 112.212 209.388 112.273 211.855 112.276C212.659 112.277 213.466 112.316 214.114 112.907H214.117Z" fill="#A05B47"/>
<path d="M209.25 113.317H214.116C214.116 114.747 214.116 116.179 214.116 117.61C214.223 117.678 214.328 117.806 214.436 117.807C215.719 117.822 217.002 117.814 218.286 117.819C218.478 117.819 218.67 117.848 218.83 117.861C218.9 117.95 218.976 118.001 218.976 118.052C218.981 140.879 218.981 163.706 218.981 186.532C218.85 186.557 218.72 186.58 218.589 186.605C218.499 186.506 218.408 186.408 218.317 186.31C217.76 185.151 217.936 183.904 217.936 182.69C217.924 162.657 217.931 142.624 217.921 122.592C217.921 121.514 218.081 120.407 217.575 119.39C216.968 118.9 216.341 118.878 215.631 119.232C214.941 120.171 215.181 121.297 215.18 122.355C215.164 142.388 215.171 162.421 215.165 182.453C215.165 183.608 215.262 184.772 214.98 185.913C214.901 186.165 214.766 186.385 214.583 186.572C214.318 186.685 214.097 186.626 213.922 186.395C213.273 184.963 213.628 183.442 213.542 181.958C213.532 181.699 213.522 181.443 213.503 181.184C213.447 163.604 213.431 146.025 213.503 128.447C213.515 128.193 213.526 127.937 213.528 127.682C213.495 126.204 213.492 124.724 213.536 123.247C213.426 121.932 213.748 120.584 213.265 119.275C211.987 118.289 209.97 119.419 208.954 117.736C208.559 116.228 208.322 114.733 209.248 113.318L209.25 113.317Z" fill="#030302"/>
<path d="M218.983 54.4168H214.117C213.584 54.9029 212.926 55.0093 212.246 55.0288C206.485 55.1945 200.757 54.4526 195.003 54.3748C194.756 54.2694 194.559 54.1026 194.408 53.8795C193.852 52.4243 193.932 50.9936 194.457 49.565C196.318 48.8333 198.306 49.9355 200.004 48.8497C203.054 48.2459 206.103 48.2213 209.151 48.863C210.342 50.0245 209.451 51.7212 210.167 53.023C211.376 53.8273 212.989 52.9534 214.117 54.0074C215.637 54.0074 217.156 54.0074 218.675 54.0074C218.844 54.0074 218.936 54.1323 218.983 54.4158V54.4168Z" fill="#A05B47"/>
<path d="M218.981 191.849H214.116C213.201 192.632 212.089 192.462 211.031 192.458C208.951 192.451 206.868 192.567 204.789 192.363C204.534 192.331 204.284 192.272 204.037 192.203C201.851 191.795 199.644 192.111 197.449 192.009C196.526 191.966 195.571 192.125 194.532 191.436C193.873 190.003 193.736 188.423 194.591 186.812C195.3 186.29 196.127 186.381 196.927 186.372C201.43 186.32 205.936 186.491 210.429 185.938C211.662 185.786 213 185.628 214.116 186.53C214.248 186.621 214.292 186.712 214.248 186.802C214.205 186.894 214.16 186.939 214.116 186.939C212.996 187.943 211.488 187.176 210.235 187.816C209.658 188.645 209.739 189.533 210.121 190.457C211.336 191.307 212.973 190.375 214.116 191.438C215.635 191.438 217.155 191.438 218.673 191.438C218.843 191.438 218.935 191.563 218.981 191.847V191.849Z" fill="#74433A"/>
<path d="M4.88515 225.798V226.207C3.33313 226.207 1.78213 226.207 0.230122 226.207C0.160175 226.102 0.0324459 225.999 0.028391 225.892C0.00913026 225.28 0.0192675 224.667 0.0192675 224.055C0.0192675 201.802 0.0192675 179.55 0.0192675 157.297C0.122667 157.225 0.226067 157.093 0.330481 157.092C1.61183 157.078 2.89419 157.085 4.17554 157.081C4.36916 157.081 4.56177 157.056 4.72498 157.043C4.79695 156.961 4.88008 156.911 4.88008 156.862C4.88616 153.8 4.88515 150.737 4.88515 147.675C4.74322 147.584 4.69659 147.493 4.74322 147.403C4.78986 147.312 4.8375 147.267 4.88515 147.267C5.05951 147.12 5.25009 146.996 5.45385 146.894C6.80615 146.639 8.15542 146.575 9.49557 146.977C9.71656 147.087 9.83922 147.266 9.86456 147.512C9.78245 147.73 9.63546 147.89 9.42764 147.993C8.43622 148.434 7.2897 148.023 6.1077 148.64C5.58968 151.184 5.9232 153.827 5.93739 156.306C7.27855 157.367 8.66026 156.519 9.83618 157.044C9.99533 157.234 10.1068 157.443 10.1819 157.678C10.3572 159.201 10.6806 160.736 9.76522 162.153C8.10068 162.755 6.44223 162.819 4.79391 162.091C3.97381 161.067 4.53744 159.666 3.85317 158.553C3.12735 158.055 2.35996 158.184 1.61892 158.406C0.905263 160.152 0.801863 222.554 1.48511 224.756C2.49276 225.469 3.92718 224.862 4.88413 225.798H4.88515Z" fill="#73433A"/>
<path d="M214.116 54.0069C212.581 54.0069 211.046 54.0079 209.51 54.0028C209.457 54.0028 209.405 53.9394 209.352 53.9046C209.319 53.8513 209.255 53.7981 209.255 53.7449C209.25 52.1966 209.251 50.6472 209.251 49.0988C208.347 47.5863 208.421 46.0543 209.154 44.506C210.822 43.7518 212.479 43.63 214.116 44.6001V54.0079V54.0069Z" fill="#020101"/>
<path d="M0.0175781 44.1917C1.55844 44.1917 3.10031 44.1927 4.64118 44.1866C4.69288 44.1866 4.74356 44.1139 4.79526 44.076C4.82466 44.0208 4.8794 43.9655 4.8794 43.9103C4.88346 40.8678 4.88346 37.8263 4.88346 34.7839C5.01828 34.6396 5.15412 34.6396 5.28895 34.7839C6.29456 35.9127 5.52312 37.4559 6.18711 38.7167C7.25659 39.4883 8.73966 38.7351 9.8061 39.6111C10.7377 41.0049 10.1052 42.6648 10.5725 44.1385C10.7479 45.8076 10.908 47.4777 10.4944 49.1386C10.3941 49.3648 10.2278 49.5244 10.0028 49.6186C9.76048 49.5909 9.58207 49.4661 9.46853 49.2481C8.92315 48.0805 9.47766 46.7153 8.87652 45.5753C7.63369 44.7361 6.0239 45.6479 4.88346 44.601C3.36388 44.601 1.84431 44.601 0.32575 44.601C0.156458 44.601 0.0642095 44.4762 0.0175781 44.1927V44.1917Z" fill="#9E5946"/>
<path d="M4.88387 59.325C4.88387 56.1474 4.88387 52.9689 4.87982 49.7913C4.87982 49.7361 4.82508 49.6808 4.79568 49.6245C4.74499 49.5856 4.69329 49.513 4.6426 49.513C3.10073 49.5068 1.55885 49.5078 0.0169798 49.5078C-0.0286378 49.3554 0.0108975 49.2264 0.15586 49.1701C0.270411 49.1251 0.400168 49.1026 0.522828 49.1016C1.97651 49.0975 3.42918 49.0985 4.88286 49.0985C6.5403 48.8109 8.19064 48.5981 9.74874 49.5078C10.656 50.9068 10.4644 52.3722 10.0143 53.8531C9.01885 55.0606 7.44454 54.1918 6.22807 54.9419C5.51846 56.0359 6.05675 57.3765 5.75567 58.5912C5.70499 58.8184 5.61274 59.0262 5.48197 59.2186C5.31065 59.4212 5.11095 59.456 4.88184 59.325H4.88387Z" fill="#9F5B47"/>
<path d="M214.116 44.5993H209.25C209.05 44.4161 208.907 44.194 208.822 43.9351C208.559 42.4758 208.423 41.0267 209.244 39.4896C210.842 39.068 212.483 38.7293 214.116 39.6912V44.0252C214.272 44.1234 214.325 44.1869 214.379 44.1869C215.914 44.192 217.448 44.191 218.982 44.191C219.028 44.3434 218.988 44.4724 218.843 44.5287C218.729 44.5737 218.599 44.5962 218.476 44.5972C217.023 44.6013 215.57 44.6003 214.116 44.6003V44.5993Z" fill="#BB7253"/>
<path d="M9.75068 49.5089H5.51027C5.3724 49.3769 5.23555 49.2306 5.08147 49.1047C5.04092 49.072 4.95171 49.0996 4.88379 49.0996V44.5999C6.41958 44.5999 7.95436 44.5999 9.49015 44.6039C9.54287 44.6039 9.59558 44.6674 9.64829 44.7022C9.68175 44.7554 9.74561 44.8086 9.74561 44.8618C9.75068 46.4102 9.74967 47.9596 9.74967 49.5079L9.75068 49.5089Z" fill="#040303"/>
<path d="M214.117 191.44C212.566 191.44 211.016 191.44 209.465 191.44C209.393 191.337 209.261 191.234 209.26 191.128C209.246 189.837 209.25 188.544 209.254 187.253C209.254 187.194 209.296 187.136 209.319 187.077C209.367 187.032 209.416 186.947 209.465 186.947C211.016 186.939 212.566 186.94 214.117 186.94V191.44Z" fill="#030302"/>
<path d="M4.88379 5.33264C6.43479 5.33264 7.98477 5.33264 9.53577 5.33264C9.60775 5.436 9.73953 5.53936 9.74054 5.64477C9.75474 6.93625 9.75068 8.22877 9.74663 9.52025C9.74663 9.57858 9.70405 9.63692 9.68175 9.69627C9.63309 9.7413 9.58443 9.82624 9.53577 9.82624C7.98579 9.8334 6.43479 9.83238 4.88379 9.83238V5.33264Z" fill="#090807"/>
<path d="M209.251 5.33264H214.117V9.83238H209.251C208.371 8.33213 208.371 6.83289 209.251 5.33264Z" fill="#070504"/>
<path d="M209.251 230.707C209.251 229.294 209.25 227.881 209.255 226.467C209.255 226.414 209.32 226.362 209.353 226.309C209.406 226.275 209.459 226.212 209.513 226.212C211.047 226.207 212.582 226.208 214.116 226.208V230.708H209.25L209.251 230.707Z" fill="#010101"/>
<path d="M214.117 186.941V186.531H214.523C215.874 185.673 217.226 185.673 218.578 186.531H218.983C219.029 186.684 218.989 186.813 218.844 186.869C218.73 186.914 218.6 186.937 218.477 186.938C217.024 186.942 215.571 186.941 214.117 186.941Z" fill="#A05B47"/>
<path d="M209.656 4.92511H209.251V0.425372C209.402 0.37932 209.529 0.419232 209.586 0.564549C209.63 0.679166 209.653 0.810157 209.653 0.933984C209.658 2.26436 209.656 3.59473 209.656 4.92409V4.92511Z" fill="#E2C59C"/>
<path d="M0.0175781 147.265H4.47797C4.58137 147.356 4.61583 147.448 4.58137 147.538C4.5469 147.629 4.51243 147.674 4.47797 147.674C3.09322 147.674 1.70847 147.674 0.324737 147.674C0.156458 147.674 0.0652232 147.549 0.0175781 147.265Z" fill="#BB7354"/>
<path d="M4.47852 147.674V147.265H4.88401V147.674H4.47852Z" fill="#9F5A47"/>
<path d="M209.252 5.3337V9.83344H10.1562C10.1562 8.40277 10.1562 6.97211 10.1562 5.54144C10.2627 5.47288 10.3671 5.347 10.4756 5.34393C11.0828 5.32449 11.691 5.33472 12.2993 5.33472H209.253L209.252 5.3337Z" fill="#E2C59C"/>
<path d="M43.8125 34.3745V30.0774C44.0021 29.8881 44.1947 29.6967 44.4258 29.4664C87.8132 29.4664 131.241 29.4664 174.67 29.4685C174.797 29.4685 174.924 29.5063 175.038 29.5258C175.094 29.58 175.185 29.6261 175.185 29.6732C175.192 31.2399 175.191 32.8077 175.191 34.3745C174.482 35.0949 173.562 34.9425 172.704 34.9425C130.569 34.9558 88.4346 34.9558 46.3002 34.9425C45.4416 34.9425 44.5211 35.0949 43.8125 34.3745Z" fill="#C88C61"/>
<path d="M214.116 39.6911C212.582 39.6911 211.047 39.6911 209.513 39.6952C209.46 39.6952 209.407 39.7576 209.354 39.7914C209.319 39.8446 209.256 39.8968 209.256 39.95C209.251 41.3633 209.252 42.7766 209.252 44.1898C207.63 45.0884 206.008 45.1395 204.386 44.1898C204.386 39.3503 204.386 34.5119 204.386 29.6724C204.279 29.6028 204.174 29.4739 204.067 29.4739C201.23 29.4626 198.392 29.4677 195.554 29.4616C195.295 29.4616 195.023 29.5363 194.779 29.3869C194.736 29.3326 194.66 29.2815 194.659 29.2303C194.653 27.8702 194.654 26.5102 194.654 25.1706C194.866 24.9567 195.056 24.7643 195.262 24.5566C196.597 24.5566 197.947 24.5576 199.296 24.5515C199.345 24.5515 199.395 24.4706 199.449 24.4235C199.591 23.9671 199.502 23.4933 199.516 23.0266C199.53 22.5498 199.509 22.0718 199.522 21.596C199.535 21.1283 199.453 20.6555 199.587 20.1878C199.776 20.0047 199.969 19.8194 200.164 19.6321H204.199C204.263 19.5677 204.352 19.5196 204.353 19.4705C204.369 17.9743 204.378 16.4792 204.381 14.983C204.381 14.9308 204.308 14.8786 204.269 14.8274C202.712 14.7149 197.756 14.6975 195.276 14.7937C195.033 15.0035 194.828 15.1785 194.644 15.3371V19.4479C194.553 19.5953 194.442 19.6495 194.304 19.6495C191.264 19.6485 188.223 19.6495 185.183 19.6444C185.129 19.6444 185.076 19.58 185.023 19.5452C184.989 19.4909 184.927 19.4367 184.927 19.3824C184.922 17.8883 184.923 16.3952 184.923 14.9779C184.803 14.763 184.689 14.7364 184.541 14.7364C179.947 14.7415 175.352 14.7394 170.757 14.7456C170.605 14.7456 170.487 14.7405 170.404 14.6146C170.377 14.4887 170.33 14.3639 170.33 14.238C170.325 12.9516 170.327 11.6652 170.327 10.4423C170.44 10.3338 170.489 10.2469 170.537 10.2469C183.443 10.2407 196.349 10.2407 209.254 10.2407C210.034 11.1638 209.882 12.2905 209.884 13.3651C209.9 20.719 209.885 28.0718 209.899 35.4257C209.901 36.3631 209.757 37.3374 210.309 38.2246C211.454 39.0106 213.037 38.2543 214.119 39.2808V39.6901L214.116 39.6911Z" fill="#C98D61"/>
<path d="M43.8106 34.3745H180.461C181.462 35.5002 180.704 37.0373 181.356 38.293C182.395 39.0953 183.915 38.2868 184.921 39.2826C186.459 39.2826 187.998 39.2815 189.536 39.2867C189.587 39.2867 189.64 39.3542 189.692 39.391C189.723 39.4453 189.783 39.4995 189.783 39.5538C189.788 41.0356 189.787 42.5184 189.787 43.9737C189.938 44.1415 190.07 44.2878 190.192 44.424V49.0977C189.968 49.2154 189.775 49.1775 189.612 48.9841C188.958 47.9658 189.473 46.7132 188.926 45.5722C187.689 44.8118 186.252 45.3307 184.897 45.172C183.4 45.126 181.89 45.3634 180.414 44.9377C180.194 44.8364 180.038 44.6716 179.947 44.4485C179.969 44.208 180.087 44.03 180.296 43.9153C181.459 43.332 182.846 43.9675 184.001 43.2542C184.486 42.4161 184.431 41.579 184.049 40.6426C182.63 39.9252 181.075 40.3745 179.564 40.309C178.411 40.3827 177.263 40.351 176.116 40.351C131.897 40.353 87.6775 40.353 43.4588 40.351C42.2444 40.351 41.0289 40.3919 39.8165 40.3162C39.5631 40.2977 39.3066 40.2834 39.0512 40.2793C37.4495 40.2016 35.8143 40.5638 34.2522 39.9211C34.013 39.7584 33.9552 39.5446 34.0788 39.2815C35.048 38.3636 36.4074 38.9674 37.4799 38.4055C38.1388 37.6912 37.8104 36.7446 38.0526 35.9403C38.2047 35.4368 38.0709 34.4247 39.1596 35.0643C39.8155 35.9925 39.3522 37.241 40.0385 38.6225C86.3211 38.6225 132.604 38.6225 178.648 38.6225C179.496 37.5766 179.388 36.804 179.07 35.9679C178.01 35.1523 176.752 35.4552 175.576 35.4552C131.401 35.4398 87.2264 35.4439 43.0523 35.4327C41.7842 35.4327 40.4775 35.6496 39.2671 35.0305C38.9954 34.8934 38.888 34.6754 38.9457 34.3745H43.8116H43.8106Z" fill="#C68A5F"/>
<path d="M214.117 39.2827C212.568 39.2827 211.02 39.2827 209.471 39.2827C209.398 39.1804 209.265 39.0801 209.262 38.9757C209.241 38.3648 209.252 37.7528 209.252 37.1418V10.2427H214.117V39.2837V39.2827Z" fill="#E3C69D"/>
<path d="M5.28906 34.3747V10.3716C5.47559 10.2918 5.53337 10.2457 5.59115 10.2457C6.87453 10.2417 8.15689 10.2417 9.44026 10.2457C9.49805 10.2457 9.55684 10.2887 9.61463 10.3112C9.65923 10.3604 9.74438 10.4095 9.74438 10.4596C9.75046 15.1599 9.75046 19.8592 9.75046 24.5596C9.75046 27.7371 9.75046 30.9136 9.74641 34.0912C9.74641 34.1464 9.69268 34.2027 9.6643 34.258C9.61361 34.2969 9.56293 34.3706 9.51123 34.3706C8.10418 34.3767 6.69611 34.3757 5.28906 34.3757V34.3747Z" fill="#E2C59D"/>
<path d="M189.789 49.0991H199.52C199.655 48.9538 199.791 48.9538 199.926 49.0991C199.974 49.2547 199.933 49.4082 199.782 49.4389C199.526 49.49 199.262 49.5044 199 49.5054C197.653 49.5115 196.307 49.5074 194.96 49.5115C194.902 49.5115 194.844 49.5555 194.786 49.5791C194.742 49.6282 194.66 49.6783 194.66 49.7274C194.652 51.154 194.653 52.5806 194.653 54.0072C193.724 54.9927 192.265 54.3244 191.235 55.1165C190.67 56.1051 190.85 57.2175 190.85 58.2879C190.838 75.3167 190.847 92.3455 190.832 109.374C190.831 110.579 191.059 111.851 190.193 112.906H189.788C189.042 112.136 189.142 111.146 189.141 110.207C189.124 90.7368 189.124 71.2662 189.141 51.7957C189.141 50.8572 189.04 49.8666 189.788 49.0971L189.789 49.0991Z" fill="#BB7354"/>
<path d="M199.924 49.0989H199.519V44.8304C199.675 44.6626 199.852 44.4712 200.023 44.286C200.155 44.2522 200.275 44.1949 200.395 44.1939C201.725 44.1877 203.055 44.1898 204.385 44.1898H209.251V49.0978H199.925L199.924 49.0989Z" fill="#BC7354"/>
<path d="M10.1556 44.191C10.0046 44.237 9.87784 44.1971 9.82107 44.0518C9.77647 43.9372 9.75315 43.8062 9.75315 43.6824C9.74809 42.352 9.75011 41.0216 9.75011 39.6923C9.64671 39.6012 9.61225 39.5101 9.64671 39.42C9.68118 39.329 9.71565 39.2839 9.75011 39.2839C11.3021 39.2839 12.8541 39.2839 14.4062 39.2839C14.4761 39.3893 14.6048 39.4947 14.6069 39.6012C14.6211 40.8947 14.614 42.1882 14.618 43.4808C14.618 43.6752 14.6444 43.8696 14.6565 44.0334C14.7397 44.106 14.7893 44.1869 14.839 44.1869C19.6299 44.193 24.4217 44.192 29.2136 44.192C30.7079 43.1594 32.3906 43.6946 33.9984 43.6025C35.6041 43.6957 37.2596 43.2433 38.8004 44.0487C39.0082 44.2544 39.0305 44.4785 38.8683 44.7231C37.3275 45.5715 35.6619 45.1007 34.0481 45.1918C32.4048 45.2502 30.7616 45.2379 29.1173 45.198C23.552 45.1591 17.9785 45.5664 12.4263 44.8562C11.6285 44.7538 10.8054 44.7876 10.1556 44.192V44.191Z" fill="#BC7454"/>
<path d="M34.0788 44.1915H29.2129V39.923C29.369 39.7552 29.5464 39.5638 29.7086 39.3878C29.7816 39.3448 29.8353 39.2875 29.889 39.2875C31.2849 39.2824 32.6819 39.2834 34.0778 39.2834V39.6928C34.9587 41.193 34.9577 42.6922 34.0778 44.1925L34.0788 44.1915Z" fill="#C78B60"/>
<path d="M38.946 34.3745V34.7839C38.7919 34.7358 38.6398 34.7767 38.6094 34.9292C38.5587 35.186 38.5445 35.4542 38.5435 35.7172C38.5374 36.8623 38.5405 38.0075 38.5405 39.0871C38.4198 39.1956 38.3712 39.2775 38.3215 39.2785C36.9074 39.2856 35.4942 39.2836 34.0801 39.2836V35.0151C34.2362 34.8473 34.4136 34.6559 34.5758 34.4799C34.6488 34.4369 34.7025 34.3796 34.7562 34.3796C36.1521 34.3745 37.549 34.3755 38.9449 34.3755L38.946 34.3745Z" fill="#C78B60"/>
<path d="M184.92 39.2827C183.519 39.2827 182.118 39.2837 180.717 39.2786C180.664 39.2786 180.611 39.2131 180.559 39.1793C180.526 39.1261 180.464 39.0729 180.464 39.0186C180.459 37.4703 180.46 35.9229 180.46 34.3746C181.861 34.3746 183.262 34.3736 184.664 34.3787C184.717 34.3787 184.769 34.4442 184.821 34.478C184.855 34.5312 184.916 34.5844 184.916 34.6386C184.921 36.187 184.92 37.7343 184.92 39.2827Z" fill="#C68A5F"/>
<path d="M9.74953 39.2825V39.6918C8.34857 39.6918 6.9476 39.6929 5.54562 39.6877C5.4929 39.6877 5.44019 39.6222 5.38849 39.5885C5.35504 39.5353 5.2932 39.482 5.2932 39.4278C5.28813 37.8795 5.28915 36.3321 5.28915 34.7838C6.6891 34.7838 8.09007 34.7827 9.49002 34.7879C9.54273 34.7879 9.59545 34.8513 9.64816 34.8861C9.68161 34.9393 9.74548 34.9925 9.74548 35.0458C9.75055 36.458 9.74953 37.8713 9.74953 39.2835V39.2825Z" fill="#BC7354"/>
<path d="M5.28928 34.7839H4.88379V34.3745H5.28928V34.7839Z" fill="#BC7354"/>
<path d="M4.88526 161.99H9.75114C11.0041 161.442 12.4081 162.225 13.6925 161.531C14.4802 160.307 13.6753 158.738 14.4579 157.487C14.6261 157.3 14.8248 157.168 15.059 157.081C19.2558 156.753 23.4557 156.844 27.6545 156.891C28.2577 156.898 28.8538 157.004 29.3393 157.426C29.9222 158.261 29.8543 159.228 29.8553 160.167C29.8594 167.201 29.8888 174.233 29.8503 181.264C29.8026 182.791 29.6637 184.327 30.0388 185.768C31.3171 186.802 32.9269 185.944 34.1211 186.797C35.0841 187.978 34.266 189.587 35.0598 190.832C36.259 191.682 37.8577 190.848 39.0447 191.765C39.7777 193.19 39.6236 194.655 39.2505 196.132C39.137 196.359 38.9667 196.531 38.7447 196.651C37.5089 197.13 36.2134 196.945 34.9412 196.953C30.9623 196.978 26.9824 196.957 23.0026 196.965C22.1977 196.967 21.3806 196.922 20.6304 197.323C19.7049 198.459 20.4358 200.052 19.5194 201.24C18.4864 202.24 16.9161 201.529 15.6814 202.313C15.0843 203.195 15.2009 204.157 15.4949 205.085C16.7793 205.924 18.3181 205.187 19.4971 206.107C20.4774 207.199 19.7495 208.749 20.4257 210.013C21.3248 210.619 22.2777 210.53 23.2742 210.111C24.2271 208.836 23.1313 206.605 25.102 205.868C26.4543 205.363 27.8715 205.371 29.1396 206.046C30.1939 207.241 29.4833 208.798 30.1777 210.022C31.3212 210.848 32.8772 210.102 34.2295 211.169C34.8155 212.72 35.0811 214.446 34.042 216.184C33.2472 216.666 32.3613 216.621 31.4905 216.625C24.7674 216.654 18.0454 216.602 11.3224 216.655C10.7831 216.659 10.2438 216.662 9.75013 216.392H4.88425C4.7697 216.115 4.83863 215.897 5.08902 215.737C6.1808 215.107 7.50777 215.591 9.1125 214.758C9.1206 197.837 9.11655 180.688 9.11452 163.782C7.66287 162.675 6.21426 163.336 5.087 162.649C4.83661 162.487 4.7697 162.267 4.88425 161.991L4.88526 161.99Z" fill="#BC7354"/>
<path d="M9.74902 216.39C9.81694 216.39 9.90716 216.419 9.94771 216.385C10.1018 216.259 10.2407 216.113 10.3775 215.981H34.0784C35.1895 215.064 36.5215 215.328 37.7795 215.327C57.833 215.311 77.8875 215.316 97.942 215.316C119.684 215.316 141.426 215.316 163.168 215.316C163.911 215.316 164.654 215.302 165.394 215.373C179.258 215.27 193.123 215.339 206.987 215.338C207.66 215.338 208.337 215.368 208.953 215.706C209.053 215.797 209.152 215.89 209.251 215.982C209.251 217.549 209.251 219.116 209.251 220.684C209.145 220.753 209.04 220.878 208.932 220.881C208.324 220.9 207.716 220.89 207.108 220.89H9.74902V216.39Z" fill="#E3C69D"/>
<path d="M4.88526 215.982V225.798C3.46909 225.798 2.0519 225.798 0.635729 225.798C0.565782 225.692 0.441094 225.591 0.435011 225.481C0.410682 225.074 0.424874 224.666 0.424874 224.258C0.424874 202.212 0.424874 180.167 0.427915 158.122C0.427915 157.931 0.343776 157.71 0.563754 157.56C0.612413 157.539 0.670195 157.494 0.727978 157.493C2.00933 157.489 3.29169 157.489 4.57304 157.493C4.63183 157.493 4.68961 157.534 4.74841 157.557C4.79403 157.606 4.88019 157.654 4.88019 157.703C4.88729 159.132 4.88628 160.56 4.88628 161.99V162.399C5.58068 163.185 5.53506 164.16 5.53607 165.108C5.54925 181.163 5.54925 197.218 5.53607 213.273C5.53607 214.22 5.58068 215.196 4.88628 215.982H4.88526Z" fill="#010101"/>
<path d="M5.28906 230.707V226.357C5.46038 226.265 5.51512 226.211 5.56986 226.211C6.90595 226.206 8.24103 226.207 9.55684 226.207C9.93293 226.648 9.71194 227.135 9.74134 227.586C9.77682 228.124 9.76263 228.666 9.7454 229.207C9.7312 229.668 9.83359 230.138 9.66835 230.585C9.61158 230.628 9.5609 230.701 9.51021 230.701C8.10316 230.707 6.69611 230.706 5.29008 230.706L5.28906 230.707Z" fill="#020202"/>
<path d="M214.117 196.758V215.982H209.251C208.71 215.383 208.621 214.638 208.617 213.881C208.584 208.838 208.569 203.794 208.626 198.751C208.634 198 208.732 197.255 209.396 196.505C210.907 196.112 212.523 195.821 214.117 196.757V196.758Z" fill="#E3C59D"/>
<path d="M4.88379 59.3252H5.28928C6.66896 58.3694 8.11656 58.7992 9.39385 58.963C10.3914 59.8072 10.3873 60.7917 10.3883 61.7373C10.3914 82.1759 10.4735 102.615 10.3569 123.052C10.3751 129.48 10.5262 135.912 10.2697 142.135C8.50583 143.223 7.03187 142.935 5.57008 142.779C5.31868 142.676 5.08958 142.535 4.88379 142.357V59.3252Z" fill="#E3C69D"/>
<path d="M5.28928 147.265H4.88379V142.766C5.14634 142.716 5.35517 142.8 5.51128 143.02C5.98875 144.464 6.16716 145.893 5.28928 147.265Z" fill="#9F5A47"/>
<path d="M5.28928 142.766H4.88379V142.357H5.28928C5.33997 142.425 5.39065 142.493 5.44134 142.561C5.39065 142.63 5.33997 142.697 5.28928 142.766Z" fill="#BB7354"/>
<path d="M190.192 112.907C190.192 93.3792 190.192 73.8514 190.195 54.3225C190.195 54.2631 190.236 54.2048 190.258 54.1455C190.307 54.0994 190.355 54.0134 190.404 54.0124C191.82 54.0053 193.238 54.0063 194.654 54.0063C197.834 54.5548 201.053 53.9561 204.22 54.3112C205.383 55.2783 204.636 56.8349 205.409 57.9319C206.551 58.679 208.088 57.9176 209.259 58.8734C210.212 59.9582 209.556 61.4871 210.19 62.7612C211.315 63.6668 212.993 62.752 214.117 63.8234V64.2328C213.066 65.1978 211.616 64.6053 210.417 65.2009C209.693 66.0318 209.904 67.0941 209.903 68.0847C209.886 78.6182 209.897 89.1517 209.887 99.6852C209.886 100.765 210.009 101.867 209.536 102.897C208.448 104.244 206.68 103.226 205.397 104.119C204.577 105.227 205.341 106.769 204.505 107.951C203.419 109.098 201.755 108.07 200.586 108.956C199.586 110.098 200.571 111.785 199.519 112.907H190.192Z" fill="#D5AA71"/>
<path d="M209.251 103.09V64.4314C209.369 64.3229 209.417 64.239 209.467 64.239C211.017 64.2318 212.567 64.2328 214.117 64.2328V103.09C212.495 103.927 210.873 103.976 209.251 103.09Z" fill="#E3C69D"/>
<path d="M214.116 63.8245C212.572 63.8245 211.028 63.8255 209.484 63.8194C209.433 63.8194 209.382 63.7436 209.333 63.7027C209.305 63.6464 209.255 63.5901 209.255 63.5339C209.25 62.1114 209.251 60.6899 209.249 59.2675C209.249 59.205 209.224 59.1426 209.211 59.0812C209.163 59.0331 209.118 58.9451 209.068 58.943C207.541 58.8919 206.012 58.9318 204.548 58.9123C204.453 58.7609 204.389 58.7066 204.389 58.6534C204.384 57.3016 204.385 55.9507 204.385 54.6357C204.282 54.4689 204.173 54.4157 204.034 54.4167C201.147 54.4187 198.26 54.4187 195.373 54.4157C195.18 54.4157 194.98 54.4003 194.796 54.3492C194.645 54.3082 194.605 54.1639 194.653 54.0094C197.959 54.0094 201.264 54.0094 204.57 54.0094C204.716 54.1455 204.863 54.2826 205.009 54.4187C208.045 54.4187 211.08 54.4187 214.116 54.4187V63.8265V63.8245Z" fill="#BC7354"/>
<path d="M214.117 112.907H204.385C203.478 111.464 203.634 109.967 204.159 108.453C205.159 106.982 206.934 107.723 208.196 107.061C208.977 105.994 208.344 104.569 209.315 103.408C210.821 103.28 212.465 103.132 214.116 103.5V112.908L214.117 112.907Z" fill="#BC7354"/>
<path d="M214.117 103.5C212.57 103.5 211.023 103.499 209.477 103.505C209.427 103.505 209.378 103.585 209.323 103.631C209.177 104.084 209.268 104.556 209.254 105.021C209.239 105.496 209.258 105.97 209.249 106.445C209.239 106.913 209.302 107.384 209.201 107.846C209.152 107.896 209.104 107.985 209.056 107.986C207.712 107.994 206.368 107.993 205.021 107.993C204.875 108.133 204.737 108.278 204.584 108.404C204.543 108.437 204.453 108.409 204.386 108.409C202.899 109.27 201.413 109.343 199.926 108.409C199.879 108.256 199.919 108.112 200.068 108.071C200.251 108.02 200.448 108.004 200.639 108.004C201.835 107.998 203.029 108.001 204.183 108.001C204.271 107.913 204.359 107.866 204.359 107.818C204.366 106.475 204.365 105.133 204.365 103.829C204.541 103.493 204.789 103.286 205.049 103.093H214.117V103.502V103.5Z" fill="#C98D61"/>
<path d="M214.117 196.758C212.57 196.758 211.024 196.757 209.477 196.763C209.427 196.763 209.378 196.843 209.328 196.885C209.303 196.942 209.255 196.999 209.255 197.057C209.252 203.365 209.252 209.674 209.252 215.982H165.459C164.461 214.38 164.735 212.754 165.229 211.252C166.464 210.088 168.012 210.743 169.239 210.07C170.067 208.929 169.333 207.347 170.53 205.879C173.511 205.264 176.789 205.349 179.85 205.837C181.009 207.27 180.407 208.812 181.025 210C181.981 210.523 182.88 210.482 183.805 210.062C184.665 208.912 183.925 207.319 185.018 206.014C186.51 205.279 188.167 205.349 189.676 205.988C190.704 207.268 190.164 208.723 190.928 210.214C194.939 210.597 199.121 210.502 203.408 210.243C203.97 207.458 203.756 204.921 203.583 202.514C202.224 201.529 200.651 202.26 199.496 201.267C198.53 200.208 199.209 198.633 198.475 197.417C197.434 196.782 196.256 196.988 195.132 197.012C163.716 197.659 132.296 197.352 100.878 197.403C81.3474 197.433 61.817 197.421 42.2856 197.38C41.1289 197.378 39.6752 197.935 38.9443 196.351C39.9895 195.473 41.2506 195.7 42.4447 195.699C61.0841 195.684 79.7244 195.688 98.3638 195.688C124.095 195.688 149.826 195.69 175.557 195.68C176.688 195.68 177.856 195.866 178.936 195.307C179.712 194.271 179.138 192.837 179.97 191.836C180.442 191.388 181.038 191.268 181.648 191.242C189.24 190.914 196.806 191.641 204.384 191.85C205.371 192.953 204.632 194.507 205.341 195.696C206.48 196.417 207.672 196.04 208.853 195.949C210.624 195.812 212.431 195.295 214.116 196.348V196.758H214.117Z" fill="#BC7354"/>
<path d="M214.116 196.348H209.085C208.955 196.464 208.809 196.594 208.638 196.743H205.049C204.78 196.603 204.577 196.35 204.383 196.089V191.849H214.115V196.348H214.116Z" fill="#A05B47"/>
<path d="M214.117 127.632V128.042C213.064 129.011 211.607 128.404 210.411 129.011C209.688 129.851 209.904 130.915 209.902 131.909C209.884 140.976 209.898 150.042 209.884 159.109C209.882 160.188 210.034 161.303 209.423 162.298C208.989 162.723 208.434 162.659 207.906 162.65C204.356 162.585 200.805 162.648 197.255 162.613C196.386 162.605 195.507 162.616 194.773 162.127C193.625 160.978 194.422 159.302 193.607 158.102C192.562 157.41 191.151 158.01 190.194 157.083C190.194 144.103 190.194 131.124 190.196 118.145C190.196 118.084 190.232 118.024 190.25 117.965C190.298 117.916 190.345 117.826 190.393 117.826C193.222 117.819 196.051 117.82 198.896 117.82C199.03 117.948 199.168 118.094 199.322 118.22C199.362 118.253 199.453 118.225 199.52 118.225C200.431 119.211 199.836 120.602 200.477 121.835C203.207 122.583 206.125 121.707 208.921 122.365C209.136 122.456 209.313 122.598 209.455 122.785C210.123 123.99 209.529 125.438 210.112 126.628C211.367 127.484 212.981 126.584 214.117 127.633V127.632Z" fill="#C98D61"/>
<path d="M189.788 49.0996V181.623C188.327 182.928 186.707 183.023 184.736 181.919C184.314 181.255 184.281 180.501 184.281 179.752C184.286 160.748 184.199 141.745 184.319 122.741C184.197 117.979 184.272 113.218 184.269 108.456C184.258 89.542 184.264 70.6281 184.267 51.7143C184.267 50.8987 184.221 50.081 184.324 49.2684C184.409 47.6976 183.894 46.0479 184.922 44.5999C186.457 44.5999 187.992 44.5999 189.525 44.6039C189.578 44.6039 189.632 44.6664 189.684 44.7001C189.719 44.7534 189.783 44.8055 189.784 44.8588C189.789 46.272 189.788 47.6853 189.788 49.0986V49.0996Z" fill="black"/>
<path d="M190.193 157.082C191.609 157.082 193.024 157.082 194.439 157.082C194.511 157.186 194.644 157.289 194.645 157.393C194.659 158.685 194.653 159.976 194.656 161.268C194.656 161.463 194.679 161.659 194.69 161.825C194.767 161.898 194.816 161.985 194.865 161.985C199.447 161.991 204.029 161.991 208.624 161.991C208.761 162.123 208.9 162.27 209.054 162.396C209.094 162.428 209.184 162.401 209.251 162.401C210.039 163.234 209.864 164.293 209.87 165.285C209.897 169.541 209.872 173.798 209.888 178.055C209.891 178.919 209.764 179.82 210.312 180.611C211.475 181.346 213.029 180.611 214.116 181.626V182.035C212.493 183.089 210.729 182.614 209.01 182.478C207.813 182.383 206.622 182.071 205.519 182.573C204.664 183.828 205.338 185.404 204.314 186.628C201.112 186.92 197.817 186.56 194.537 186.817C192.907 187.37 191.308 187.368 189.684 186.616C189.03 185.047 188.795 183.536 189.786 182.035C189.94 182.083 190.099 182.042 190.121 181.891C190.171 181.564 190.188 181.231 190.188 180.9C190.191 172.962 190.191 165.024 190.191 157.085L190.193 157.082Z" fill="#BC7354"/>
<path d="M189.789 182.033C189.789 183.446 189.788 184.859 189.793 186.272C189.793 186.326 189.858 186.378 189.892 186.431C189.945 186.465 189.998 186.527 190.051 186.527C191.586 186.532 193.121 186.531 194.655 186.531C194.797 186.622 194.843 186.714 194.797 186.804C194.75 186.895 194.702 186.94 194.655 186.94C194.655 188.368 194.655 189.796 194.655 191.224C194.758 191.296 194.862 191.43 194.965 191.43C197.864 191.441 200.762 191.438 203.662 191.441C203.855 191.441 204.056 191.457 204.242 191.507C204.394 191.548 204.434 191.692 204.387 191.848H180.057C179.978 191.764 179.899 191.68 179.819 191.596C179.333 190.124 179.408 188.644 179.753 187.16C179.85 186.952 180 186.79 180.196 186.674C181.375 186.11 182.722 186.66 183.958 186.107C184.799 184.956 184.003 183.453 184.692 182.257C184.768 182.181 184.845 182.106 184.922 182.031H189.162C189.3 181.899 189.437 181.752 189.591 181.626C189.632 181.594 189.721 181.621 189.789 181.621V182.031V182.033Z" fill="#A05B47"/>
<path d="M209.251 122.723C206.102 122.723 202.952 122.723 199.802 122.719C199.748 122.719 199.692 122.665 199.637 122.636C199.599 122.585 199.526 122.534 199.526 122.482C199.52 121.063 199.521 119.644 199.521 118.223H199.926C202.803 117.104 205.774 117.552 208.673 117.917C210.096 118.096 210.301 120.565 209.252 122.722L209.251 122.723Z" fill="#BC7354"/>
<path d="M209.251 113.317V117.817C206.141 118.145 203.033 118.145 199.924 117.817C199.77 117.865 199.653 117.818 199.58 117.672C199.552 117.616 199.521 117.553 199.521 117.494C199.518 116.202 199.518 114.91 199.521 113.618C199.521 113.56 199.568 113.503 199.594 113.446C199.644 113.403 199.693 113.323 199.744 113.323C202.913 113.317 206.082 113.318 209.25 113.318L209.251 113.317Z" fill="#75443A"/>
<path d="M199.925 117.815H209.251C209.318 117.815 209.413 117.787 209.446 117.821C209.584 117.963 209.703 118.122 209.787 118.225C211.213 118.225 212.543 118.224 213.874 118.23C213.924 118.23 213.976 118.3 214.027 118.338C214.057 118.393 214.113 118.448 214.113 118.502C214.118 120.045 214.117 121.59 214.117 123.133C212.418 123.926 210.756 124.269 209.251 122.723C209.251 121.304 209.252 119.885 209.246 118.465C209.246 118.414 209.173 118.363 209.134 118.311C209.08 118.282 209.024 118.227 208.969 118.227C205.954 118.223 202.94 118.223 199.925 118.223V117.813V117.815Z" fill="#A05B47"/>
<path d="M199.924 108.408H204.384V112.908H199.519C199.519 111.511 199.519 110.114 199.519 108.718C199.519 108.548 199.642 108.456 199.924 108.409V108.408Z" fill="#C98D61"/>
<path d="M218.577 186.532H214.522V118.352C214.712 118.273 214.769 118.229 214.827 118.228C215.975 118.224 217.124 118.224 218.272 118.228C218.33 118.228 218.388 118.273 218.446 118.296C218.489 118.347 218.571 118.396 218.571 118.446C218.576 141.141 218.576 163.836 218.576 186.531L218.577 186.532Z" fill="#010000"/>
<path d="M214.116 181.623C212.569 181.623 211.023 181.624 209.476 181.618C209.426 181.618 209.377 181.538 209.327 181.496C209.302 181.439 209.254 181.381 209.254 181.324C209.251 175.016 209.251 168.707 209.251 162.399C209.251 151.049 209.251 139.7 209.254 128.349C209.254 128.291 209.298 128.233 209.321 128.174C209.37 128.129 209.419 128.046 209.468 128.046C211.018 128.039 212.567 128.04 214.117 128.04V181.623H214.116Z" fill="#E3C69D"/>
<path d="M194.654 186.94V186.531C197.817 186.531 200.98 186.531 204.142 186.526C204.193 186.526 204.245 186.454 204.302 186.412C204.472 185.963 204.365 185.491 204.381 185.028C204.398 184.553 204.385 184.079 204.385 183.603V182.249C204.619 182.005 204.806 181.811 204.988 181.623H208.633C208.779 181.759 208.924 181.896 209.068 182.032H214.117V186.532C212.43 186.532 210.744 186.532 209.057 186.532C208.912 186.669 208.766 186.806 208.624 186.941H194.653L194.654 186.94Z" fill="#A05B47"/>
<path d="M209.251 122.724C209.318 122.724 209.408 122.696 209.449 122.729C209.602 122.855 209.74 123 209.877 123.133H214.118V127.633C212.582 127.633 211.047 127.633 209.512 127.629C209.459 127.629 209.406 127.565 209.353 127.531C209.32 127.477 209.256 127.424 209.256 127.371C209.251 125.823 209.252 124.273 209.252 122.725L209.251 122.724Z" fill="#BB7354"/>
<path d="M9.75123 157.492V157.082C8.69797 153.947 8.75473 150.81 9.75123 147.675C9.86578 147.643 9.98134 147.612 10.0959 147.579C10.2946 147.719 10.4385 147.902 10.5298 148.127C10.9353 149.215 10.5004 150.441 11.1613 151.688C12.8644 152.237 14.7519 151.91 16.601 152.024C17.6481 152.088 18.7744 151.767 19.6796 152.615C20.296 154.122 20.2737 155.606 19.5996 157.081C17.9269 157.614 16.2188 156.921 14.6181 157.491C12.9962 158.409 11.3742 158.409 9.75224 157.491L9.75123 157.492Z" fill="#74433A"/>
<path d="M5.28906 147.266V142.766C8.4012 143.193 11.3542 140.919 14.5515 142.107C15.5642 143.748 15.2692 145.435 15.0553 147.114C14.9772 147.374 14.8465 147.603 14.667 147.806C13.1434 148.472 11.634 148.584 10.1549 147.674C10.0049 147.553 9.8488 147.437 9.74945 147.264H5.28906V147.266Z" fill="#BB7354"/>
<path d="M9.74945 147.674V157.082C9.68254 157.082 9.59232 157.053 9.55177 157.087C9.39769 157.213 9.25982 157.359 9.12905 157.484H5.48877C5.35191 157.395 5.28906 157.285 5.28906 157.149C5.28906 154.094 5.28906 151.037 5.2921 147.981C5.2921 147.923 5.33671 147.865 5.36002 147.807C5.40868 147.763 5.45835 147.68 5.50803 147.68C6.92217 147.673 8.33632 147.675 9.74945 147.675V147.674Z" fill="#020101"/>
<path d="M9.74902 157.491H14.6149C14.6149 159.034 14.6149 160.579 14.6108 162.122C14.6108 162.176 14.5541 162.231 14.5247 162.286C14.474 162.323 14.4233 162.394 14.3716 162.394C13.0406 162.4 11.7106 162.399 10.2853 162.399C10.2011 162.298 10.0815 162.137 9.94366 161.995C9.91122 161.961 9.81593 161.99 9.74902 161.99V157.49V157.491Z" fill="#A05B47"/>
<path d="M9.74902 147.265C10.0724 147.319 10.1018 147.348 10.1545 147.675H9.74902V147.265Z" fill="#9F5A47"/>
<path d="M10.1562 44.1914H13.9983C14.1453 44.3296 14.2912 44.4677 14.4321 44.6008H29.2143C30.1175 46.1266 30.0658 47.6668 29.2822 49.2192C28.4428 49.8209 27.4717 49.6357 26.5411 49.6705C21.9722 49.8435 17.3841 49.3011 12.8274 50.0921C11.9222 50.2487 10.9257 50.26 10.1562 49.5098V44.1924V44.1914Z" fill="#A05B47"/>
<path d="M10.1562 49.5087H13.9982C14.1452 49.3706 14.2912 49.2324 14.4321 49.0994H29.2142C29.3298 49.3613 29.27 49.5722 29.0358 49.7339C26.3261 50.5362 23.5505 49.9395 20.8114 50.1238C19.0871 50.2394 17.3242 49.8515 15.6364 50.441C14.946 51.5698 15.4894 52.9667 14.5973 54.1118C13.2085 54.8916 11.5916 54.6481 9.99398 54.5733C9.71013 54.4741 9.62904 54.2848 9.7517 54.0074V49.5077H10.1572L10.1562 49.5087Z" fill="#BC7354"/>
<path d="M9.75046 54.4161C9.81737 54.4161 9.90759 54.4447 9.94814 54.411C10.1022 54.2851 10.2401 54.1388 10.3851 53.9996H14.4156C14.5545 53.9095 14.6153 53.8 14.6153 53.6629C14.6153 52.4389 14.6123 51.216 14.6194 49.9921C14.6194 49.8683 14.6751 49.7454 14.7045 49.6216C14.7573 49.5827 14.809 49.5111 14.8607 49.5111C19.6454 49.506 24.4292 49.506 29.214 49.506C29.9611 50.2745 29.8587 51.2662 29.8597 52.2046C29.8759 73.2388 29.8759 94.2731 29.8628 115.307C29.8628 116.122 29.8709 116.948 29.4532 117.693C28.3706 118.899 26.7091 118.055 25.448 118.843C24.6015 119.944 25.301 121.517 24.0572 123.144C19.5643 123.472 14.664 123.513 9.74945 123.132C9.74945 101.968 9.74945 80.8046 9.74641 59.6404C9.74641 59.581 9.70586 59.5227 9.68457 59.4633C9.63591 59.4173 9.58827 59.3303 9.53961 59.3303C8.12242 59.3231 6.70625 59.3241 5.28906 59.3241V58.9148C6.27643 57.9887 7.65814 58.6119 8.73269 58.0511C9.59638 56.9714 8.72255 55.42 9.74945 54.4161H9.75046Z" fill="#D5AA71"/>
<path d="M9.74945 54.4172C9.74945 55.8294 9.75046 57.2427 9.7454 58.655C9.7454 58.7082 9.68255 58.7614 9.64808 58.8146C9.59537 58.8484 9.54265 58.9118 9.48994 58.9128C8.08998 58.918 6.68902 58.9169 5.28906 58.9169C5.28906 57.3686 5.28906 55.8213 5.29312 54.2729C5.29312 54.2197 5.35495 54.1665 5.38841 54.1122C5.44112 54.0774 5.49282 54.013 5.54553 54.013C6.9465 54.0078 8.34747 54.0089 9.74945 54.0089V54.4182V54.4172Z" fill="#BB7254"/>
<path d="M184.922 49.0992V122.724C183.877 123.687 182.415 123.096 181.236 123.743C180.502 124.651 180.711 125.778 180.71 126.839C180.693 139.21 180.706 151.581 180.69 163.951C180.689 165.09 180.875 166.28 180.156 167.311C178.976 167.925 177.581 167.225 176.36 167.964C175.479 169.036 176.164 170.643 175.144 171.866C174.078 172.695 172.684 172.45 171.36 172.451C148.671 172.466 125.982 172.461 103.291 172.461C84.721 172.461 66.1516 172.465 47.5812 172.454C46.314 172.454 45.0073 172.614 43.9227 171.944C42.8552 170.761 43.4543 169.197 42.8076 168.035C41.5597 167.136 40.0735 167.962 38.8449 167.319C38.1181 166.289 38.3036 165.097 38.3015 163.955C38.2863 151.618 38.2965 139.281 38.2863 126.945C38.2863 125.931 38.4242 124.896 37.9903 123.881C36.9888 122.992 35.4297 123.707 34.3318 122.578C33.7013 121.681 33.9233 120.488 33.9223 119.352C33.9091 97.269 33.9131 75.1848 33.9111 53.1016C33.9111 52.0117 33.9517 50.9198 33.8381 49.836C33.8199 49.5863 33.8624 49.3428 33.9577 49.1125C35.1063 48.0492 36.7049 48.9089 37.9751 48.1669C38.7547 47.1221 37.968 45.6065 38.9453 44.5995V44.1901C39.0466 44.0991 39.149 44.008 39.2494 43.9159C39.4927 43.791 39.7491 43.702 40.0147 43.6416C41.0883 43.4768 42.1709 43.5301 43.2495 43.5301C87.5544 43.526 131.858 43.5239 176.163 43.5423C177.477 43.5423 178.887 43.1954 180.055 44.1901V44.5995C180.978 45.5921 180.347 46.987 180.948 48.1076C182.124 48.96 183.776 48.0298 184.921 49.0982L184.922 49.0992Z" fill="#D9A648"/>
<path d="M38.9454 34.7837C85.8899 34.7837 132.835 34.7837 179.779 34.7878C179.834 34.7878 179.89 34.8451 179.944 34.8758C179.982 34.928 180.052 34.9812 180.052 35.0334C180.058 36.3924 180.057 37.7504 180.057 39.0593C179.947 39.2435 179.836 39.2885 179.694 39.2865C179.154 39.2804 178.613 39.2844 178.073 39.2844H40.8856C40.3453 39.2844 39.805 39.2865 39.2647 39.2814C39.2059 39.2814 39.1461 39.2435 39.1015 39.2271C39.0427 39.1709 38.9514 39.1238 38.9514 39.0767C38.9443 37.646 38.9454 36.2154 38.9454 34.7847V34.7837Z" fill="black"/>
<path d="M180.055 44.1915H39.3501C38.5239 42.6913 38.5239 41.192 39.3501 39.6918H180.055C180.935 41.192 180.935 42.6913 180.055 44.1915Z" fill="#EFE0AD"/>
<path d="M184.921 49.0992C183.386 49.0992 181.851 49.0992 180.317 49.0951C180.265 49.0951 180.211 49.0327 180.158 48.9989C180.124 48.9457 180.06 48.8935 180.059 48.8403C180.054 47.427 180.055 46.0137 180.055 44.6005H184.921V49.1002V49.0992Z" fill="#EBDEAB"/>
<path d="M34.0801 44.1915V39.6918H38.946C39.2572 41.192 39.2572 42.6913 38.946 44.1915H34.0801Z" fill="#020101"/>
<path d="M180.055 44.1915V39.6918C181.606 39.6918 183.156 39.6918 184.707 39.6918C184.779 39.7951 184.91 39.8985 184.911 40.0039C184.926 41.2954 184.922 42.5879 184.918 43.8794C184.918 43.9377 184.875 43.996 184.853 44.0554C184.804 44.1004 184.755 44.1854 184.707 44.1854C183.157 44.1925 181.606 44.1915 180.055 44.1915Z" fill="#020201"/>
<path d="M38.9453 44.1915V39.6918H39.3508V44.1915H38.9453Z" fill="#C78B60"/>
<path d="M34.0806 49.0996V49.5089C34.4517 50.2171 34.2672 50.9805 34.2682 51.7153C34.2793 74.4504 33.885 97.1947 34.3969 119.919C34.8359 139.373 34.48 158.818 34.7294 178.265C34.7446 179.476 34.9048 180.726 34.3026 181.872C32.3796 183.035 30.7282 182.953 29.2148 181.624V157.492C28.0905 155.783 28.7707 153.876 28.6227 152.058C28.4899 141.409 28.5832 130.76 28.5751 120.111C28.5751 119.293 28.6227 118.474 29.2148 117.817V44.5999H34.0806C34.9605 46.1001 34.9616 47.5993 34.0806 49.0996Z" fill="black"/>
<path d="M34.0801 49.0996V44.5999H38.946C38.946 46.0131 38.947 47.4264 38.9419 48.8397C38.9419 48.8929 38.877 48.9451 38.8426 48.9983C38.7898 49.032 38.7371 49.0945 38.6834 49.0945C37.1486 49.0996 35.6138 49.0986 34.0801 49.0986V49.0996Z" fill="#EADDAB"/>
<path d="M38.9438 196.348C38.8961 196.505 38.9377 196.636 39.0887 196.692C39.2063 196.736 39.3401 196.752 39.4679 196.754C39.9403 196.761 40.4137 196.757 40.8871 196.757H180.257C180.405 196.608 180.501 196.512 180.597 196.416C180.655 196.393 180.713 196.352 180.772 196.352C186.92 196.349 193.068 196.349 199.216 196.352C199.273 196.352 199.33 196.398 199.388 196.423C199.432 196.473 199.512 196.523 199.513 196.573C199.52 198.07 199.518 199.569 199.518 201.046C199.613 201.195 199.722 201.258 199.857 201.258C201.209 201.258 202.56 201.261 203.911 201.254C204.059 201.254 204.182 201.258 204.277 201.354C204.436 202.75 204.46 205.907 204.35 210.904C204.303 210.952 204.255 211.043 204.207 211.043C199.481 211.058 194.756 211.066 190.03 211.069C189.979 211.069 189.927 210.996 189.852 210.94C189.698 210.433 189.817 209.891 189.792 209.358C189.77 208.882 189.787 208.404 189.787 207.927V206.37C189.685 206.266 189.637 206.176 189.589 206.176C188.104 206.169 186.618 206.17 185.129 206.17C185.062 206.271 184.931 206.375 184.93 206.481C184.916 207.776 184.923 209.071 184.919 210.366C184.919 210.561 184.892 210.755 184.88 210.918C184.794 210.989 184.745 211.068 184.694 211.069C183.21 211.075 181.726 211.074 180.268 211.074C180.113 210.975 180.055 210.864 180.055 210.726C180.056 209.363 180.053 208 180.06 206.637C180.06 206.487 180.056 206.365 179.957 206.27C178.514 206.118 174.921 206.093 170.461 206.204C170.157 206.696 170.372 207.248 170.334 207.771C170.294 208.313 170.349 208.862 170.317 209.405C170.287 209.933 170.446 210.478 170.229 211C169.682 211.158 169.145 211.045 168.615 211.069C168.143 211.091 167.67 211.073 167.197 211.073H165.668C165.555 211.185 165.465 211.232 165.465 211.279C165.458 212.847 165.459 214.414 165.459 215.981H34.0779C34.0779 214.418 34.0779 212.854 34.0779 211.29C33.9755 211.218 33.8731 211.083 33.7697 211.082C32.4894 211.068 31.209 211.074 29.9277 211.071C29.7341 211.071 29.5405 211.048 29.3762 211.036C29.3032 210.958 29.2171 210.91 29.2171 210.86C29.21 209.365 29.211 207.869 29.211 206.373C29.1056 206.303 29.0001 206.174 28.8947 206.173C27.6144 206.159 26.334 206.164 25.0426 206.164C24.7293 206.29 24.5692 206.595 24.3309 206.804V210.882C24.2691 210.944 24.2214 211.033 24.1738 211.034C22.6958 211.053 21.2168 211.063 19.7388 211.067C19.686 211.067 19.6323 211.003 19.5796 210.968C19.5461 210.914 19.4843 210.859 19.4843 210.805C19.4792 209.314 19.4803 207.823 19.4803 206.323C18.9602 205.994 18.4138 206.213 17.8968 206.172C17.3606 206.129 16.8182 206.186 16.2799 206.156C15.7558 206.128 15.2186 206.274 14.7259 206.084C14.6762 205.997 14.6184 205.942 14.6174 205.887C14.6124 204.533 14.6134 203.179 14.6134 201.884C14.8485 201.637 15.0351 201.441 15.2145 201.253C16.5769 201.253 17.9252 201.253 19.2724 201.253C19.3414 201.147 19.4691 201.041 19.4701 200.934C19.4843 199.642 19.4792 198.351 19.4792 197.056C19.6171 196.744 19.8837 196.55 20.1382 196.345H38.9428L38.9438 196.348Z" fill="#C98D61"/>
<path d="M180.057 191.848C180.057 193.279 180.057 194.709 180.057 196.139C179.951 196.208 179.847 196.334 179.738 196.337C179.131 196.357 178.523 196.347 177.916 196.347H38.9461V191.847C38.8448 191.536 38.9522 191.34 39.2655 191.258C40.7435 191.036 42.2296 191.194 43.7117 191.193C87.8594 191.183 132.006 191.182 176.154 191.197C177.476 191.197 178.878 190.895 180.057 191.847V191.848Z" fill="#A05B47"/>
<path d="M4.88379 215.982V162.399C6.43682 162.399 7.99086 162.399 9.5449 162.399C9.61383 162.507 9.73243 162.61 9.74054 162.722C9.7669 163.061 9.74967 163.402 9.74967 163.743C9.74967 180.708 9.74967 197.674 9.74663 214.638C9.74663 215.038 9.80339 215.443 9.69493 215.821C9.63613 215.884 9.59051 215.976 9.54388 215.976C7.99085 215.983 6.43682 215.982 4.88379 215.982Z" fill="#E2C69D"/>
<path d="M29.2132 152.174V157.492H14.6156C14.5679 157.336 14.6085 157.182 14.7595 157.152C15.014 157.101 15.2796 157.086 15.5411 157.085C16.7535 157.079 17.9649 157.083 19.1773 157.079C19.2351 157.079 19.2929 157.034 19.3497 157.011C19.3933 156.961 19.4754 156.911 19.4764 156.862C19.4835 155.436 19.4814 154.009 19.4814 152.583C19.3537 152.341 19.3983 152.138 19.6163 151.974C20.8307 151.383 22.1323 151.486 23.364 151.73C25.1005 152.074 26.8249 152.039 28.5644 151.958C28.8037 151.958 29.0206 152.033 29.2132 152.175V152.174Z" fill="#A05B47"/>
<path d="M38.9462 191.441V191.85H34.7139C34.5466 191.692 34.357 191.513 34.1746 191.341C34.1411 191.208 34.0843 191.088 34.0833 190.966C34.0772 189.624 34.0793 188.283 34.0793 186.942C33.9455 186.709 33.9972 186.531 34.2334 186.405C35.7803 186.375 37.3354 186.225 38.8519 186.713C39.0516 186.85 39.1966 187.03 39.2929 187.253C39.5453 188.68 39.8575 190.112 38.9462 191.441Z" fill="#A05B47"/>
<path d="M34.0791 186.533V186.942H29.8468C29.6785 186.783 29.4889 186.603 29.3055 186.43C29.273 186.298 29.2173 186.176 29.2173 186.055C29.2112 184.578 29.2132 183.101 29.2132 181.625C29.2801 181.625 29.3703 181.597 29.4109 181.63C29.564 181.756 29.7018 181.901 29.8397 182.034H34.0801C34.1632 182.124 34.2453 182.214 34.3295 182.303C34.7451 183.743 34.9722 185.172 34.0801 186.533H34.0791Z" fill="#A05B47"/>
<path d="M29.213 152.174H28.8075C27.3548 152.563 25.894 152.346 24.487 152.298C23.3415 151.155 24.042 149.598 23.3546 148.239C21.7134 147.556 19.8816 148.029 18.1066 147.897C16.9205 147.808 15.6635 148.13 14.6153 147.266C14.6153 145.714 14.6163 144.163 14.6113 142.613C14.6113 142.559 14.5444 142.507 14.5089 142.455C14.4552 142.422 14.4014 142.362 14.3477 142.362C13.0126 142.357 11.6776 142.358 10.3577 142.358C10.2482 142.468 10.1529 142.564 10.0586 142.66C10.0069 142.696 9.95422 142.763 9.90252 142.763C8.3647 142.768 6.82688 142.767 5.28906 142.767V142.358C6.70118 142.358 8.1133 142.359 9.52542 142.353C9.57509 142.353 9.62476 142.273 9.67444 142.23C9.69978 142.173 9.74641 142.115 9.74641 142.058C9.74945 135.75 9.74945 129.442 9.74945 123.134C9.81636 123.134 9.90658 123.163 9.94713 123.129C10.1012 123.003 10.2391 122.857 10.3759 122.725C14.964 122.725 19.54 122.725 24.1149 122.719C24.1656 122.719 24.2153 122.642 24.2711 122.597C24.4241 122.144 24.3278 121.673 24.343 121.208C24.3582 120.733 24.3461 120.258 24.3461 119.782V118.475C24.5954 118.197 24.7749 117.997 24.9381 117.814H29.212V152.173L29.213 152.174Z" fill="#C98D61"/>
<path d="M34.0801 182.032V49.5083C34.2352 49.4602 34.369 49.5012 34.4217 49.6536C34.5575 50.0446 34.4815 50.4529 34.4815 50.853C34.4866 60.4532 34.4856 70.0534 34.4856 79.6526V122.519C34.5525 122.587 34.5971 122.674 34.6478 122.677C36.0437 122.779 37.4467 122.686 38.7827 122.732C38.876 122.877 38.9409 122.931 38.9409 122.984C38.9449 137.758 38.9449 152.533 38.9449 167.307C39.7894 168.211 39.5116 169.352 39.5876 170.416C39.7113 172.161 39.3089 173.949 39.9171 175.606C41.1386 176.355 42.5822 175.801 43.7581 176.638C44.7992 177.645 44.1545 179.221 44.7789 180.409C46.4637 181.146 171.935 181.245 174.312 180.443C174.144 177.283 175.743 175.619 178.99 175.868C179.693 173.95 179.291 172.162 179.415 170.417C179.491 169.353 179.213 168.212 180.057 167.308V123.371C180.3 123.108 180.483 122.909 180.653 122.724H184.923V182.033C183.809 183.042 182.287 182.282 181.044 182.942C180.196 184.124 181.117 185.792 180.057 186.941C179.014 187.819 177.753 187.596 176.559 187.597C160.014 187.612 143.47 187.607 126.925 187.607C98.8327 187.607 70.7404 187.611 42.6491 187.596C41.3911 187.596 40.059 187.858 38.948 186.941C37.9474 185.818 38.7016 184.281 38.0468 183.028C36.8749 182.173 35.2215 183.101 34.0821 182.032H34.0801Z" fill="#C87435"/>
<path d="M38.9453 186.941H180.056V191.849H39.5738C39.437 191.717 39.2981 191.572 39.144 191.445C39.1035 191.411 39.0132 191.44 38.9453 191.44V186.94V186.941Z" fill="#010100"/>
<path d="M180.055 186.94C180.055 185.392 180.055 183.843 180.059 182.294C180.059 182.241 180.122 182.188 180.156 182.135C180.209 182.101 180.261 182.037 180.314 182.037C181.85 182.031 183.385 182.032 184.921 182.032C184.921 183.581 184.921 185.13 184.917 186.679C184.917 186.732 184.854 186.785 184.819 186.838C184.766 186.872 184.714 186.936 184.661 186.936C183.125 186.942 181.59 186.94 180.055 186.94Z" fill="#030302"/>
<path d="M19.4826 152.174V152.583H10.3368C10.2323 152.443 10.1614 152.391 10.1614 152.34C10.1553 150.785 10.1563 149.23 10.1563 147.675H14.6167C15.5868 148.657 14.8772 150.071 15.5159 151.183C16.6766 152.07 18.3482 151.065 19.4826 152.175V152.174Z" fill="#9F5A47"/>
<path d="M19.4822 152.173H14.7846C14.6852 152.02 14.6203 151.968 14.6203 151.915C14.6153 150.501 14.6163 149.088 14.6163 147.675V147.265C17.7872 147.265 20.9571 147.265 24.1281 147.265C24.2011 147.368 24.3379 147.469 24.3389 147.571C24.3531 148.864 24.347 150.157 24.3501 151.45C24.3501 151.645 24.3734 151.841 24.3845 152.008C24.4626 152.081 24.5102 152.168 24.5589 152.168C25.9751 152.175 27.3923 152.174 28.8084 152.174C28.8551 152.328 28.8095 152.445 28.6685 152.518C28.6138 152.547 28.554 152.581 28.4962 152.581C27.0364 152.584 25.5767 152.584 24.1453 152.584C24.0226 152.46 23.9284 152.365 23.8341 152.271C23.7804 152.239 23.7277 152.18 23.6739 152.18C22.277 152.174 20.8791 152.175 19.4822 152.175V152.173Z" fill="#BC7354"/>
<path d="M39.0538 117.815C38.9859 117.611 38.9473 117.552 38.9473 117.492C38.9453 96.5639 38.9453 75.635 38.9453 54.7052C39.1035 54.4074 39.3457 54.1914 39.6549 53.9827H43.6318C43.7037 53.91 43.7929 53.8629 43.7929 53.8138C43.8 52.4517 43.799 51.0906 43.799 49.707C43.9926 49.529 44.1913 49.3458 44.46 49.0981C87.8879 49.0981 131.404 49.0981 174.919 49.1022C174.974 49.1022 175.028 49.1626 175.082 49.1943C175.118 49.2476 175.185 49.3008 175.185 49.354C175.191 50.8491 175.189 52.3432 175.189 53.8486C175.713 54.174 176.26 53.9561 176.778 53.997C177.316 54.039 177.86 53.9816 178.399 54.0134C178.923 54.0441 179.463 53.8844 179.954 54.0901C180 54.1832 180.052 54.2406 180.052 54.2968C180.055 75.2932 180.055 96.2896 180.052 117.286C180.052 117.414 180.014 117.542 179.995 117.666C179.945 117.717 179.898 117.808 179.85 117.808C132.949 117.814 86.048 117.814 39.0518 117.814L39.0538 117.815Z" fill="#E9C95C"/>
<path d="M180.056 167.307C180.056 170.372 180.056 173.437 180.056 176.503C179.951 176.574 179.847 176.705 179.742 176.706C178.459 176.72 177.176 176.715 175.89 176.715C175.585 176.862 175.386 177.122 175.171 177.411V181.438C175.104 181.506 175.058 181.593 175.007 181.596C174.249 181.646 45.34 181.619 43.939 181.576C43.6501 181.081 43.8579 180.53 43.8194 180.007C43.7798 179.465 43.8103 178.919 43.8103 178.373V176.81C43.1594 176.635 42.6242 176.741 42.094 176.718C41.6226 176.699 41.1492 176.714 40.6758 176.714H39.1431C39.0356 176.6 38.9494 176.552 38.9494 176.502C38.9434 173.437 38.9434 170.372 38.9434 167.306C39.0113 167.306 39.1015 167.335 39.142 167.301C39.2961 167.175 39.435 167.029 39.5607 166.907H43.6105C43.7575 166.999 43.8103 167.11 43.8103 167.25C43.8082 168.612 43.8123 169.974 43.8052 171.335C43.8052 171.486 43.8092 171.608 43.9106 171.702C43.9643 171.737 44.017 171.801 44.0708 171.801C87.6782 171.805 131.286 171.805 174.893 171.801C174.95 171.801 175.006 171.752 175.063 171.726C175.105 171.676 175.183 171.625 175.183 171.575C175.19 170.215 175.188 168.855 175.188 167.51C175.394 167.303 175.584 167.11 175.786 166.907H179.436C179.562 167.028 179.701 167.174 179.855 167.3C179.896 167.334 179.986 167.305 180.054 167.305L180.056 167.307Z" fill="#E9C95C"/>
<path d="M34.0782 182.031C35.614 182.031 37.1487 182.03 38.6845 182.036C38.7372 182.036 38.79 182.099 38.8427 182.134C38.8761 182.187 38.94 182.24 38.94 182.293C38.9451 183.842 38.944 185.391 38.944 186.939H34.7036C34.5658 186.807 34.4289 186.661 34.2748 186.535C34.2343 186.503 34.1451 186.53 34.0771 186.53V182.03L34.0782 182.031Z" fill="#030202"/>
</g>
<defs>
<clipPath id="clip0_550_100">
<rect width="219" height="235.633" fill="white"/>
</clipPath>
</defs>
</svg>