<svg width="46" height="46" viewBox="0 0 46 46" fill="none" xmlns="http://www.w3.org/2000/svg">
<g clip-path="url(#clip0_519_10026)">
<mask id="mask0_519_10026" style="mask-type:luminance" maskUnits="userSpaceOnUse" x="0" y="0" width="46" height="46">
<path d="M-0.000244141 0H45.5527V45.553H-0.000244141V0Z" fill="white"/>
</mask>
<g mask="url(#mask0_519_10026)">
<path d="M37.0106 0H39.8555V2.84491H37.0106V0Z" fill="#241D37"/>
<path d="M34.1639 0H37.0088V2.84491H34.1639V0Z" fill="#241D37"/>
<path d="M31.3192 0H34.1641V2.84491H31.3192V0Z" fill="#241D37"/>
<path d="M28.4744 0H31.3193V2.84491H28.4744V0Z" fill="#241D37"/>
<path d="M25.6219 0H28.4668V2.84491H25.6219V0Z" fill="#241D37"/>
<path d="M22.7752 0H25.6201V2.84491H22.7752V0Z" fill="#241D37"/>
<path d="M19.9315 0H22.7764V2.84491H19.9315V0Z" fill="#241D37"/>
<path d="M17.0867 0H19.9316V2.84491H17.0867V0Z" fill="#241D37"/>
<path d="M14.2332 0H17.0781V2.84491H14.2332V0Z" fill="#241D37"/>
<path d="M11.3885 0H14.2334V2.84491H11.3885V0Z" fill="#241D37"/>
<path d="M8.54376 0H11.3887V2.84491H8.54376V0Z" fill="#241D37"/>
<path d="M5.68927 0H8.53418V2.84491H5.68927V0Z" fill="#241D37"/>
<path d="M39.8631 2.84473H42.708V5.68964H39.8631V2.84473Z" fill="#241D37"/>
<path d="M37.0106 2.84473H39.8555V5.68964H37.0106V2.84473Z" fill="#D05D60"/>
<path d="M34.1639 2.84473H37.0088V5.68964H34.1639V2.84473Z" fill="#D05D60"/>
<path d="M31.3192 2.84473H34.1641V5.68964H31.3192V2.84473Z" fill="#D05D60"/>
<path d="M28.4744 2.84473H31.3193V5.68964H28.4744V2.84473Z" fill="#D05D60"/>
<path d="M25.6219 2.84473H28.4668V5.68964H25.6219V2.84473Z" fill="#D05D60"/>
<path d="M22.7752 2.84473H25.6201V5.68964H22.7752V2.84473Z" fill="#D05D60"/>
<path d="M19.9315 2.84473H22.7764V5.68964H19.9315V2.84473Z" fill="#D05D60"/>
<path d="M17.0867 2.84473H19.9316V5.68964H17.0867V2.84473Z" fill="#D05D60"/>
<path d="M14.2332 2.84473H17.0781V5.68964H14.2332V2.84473Z" fill="#D05D60"/>
<path d="M11.3885 2.84473H14.2334V5.68964H11.3885V2.84473Z" fill="#D05D60"/>
<path d="M8.54376 2.84473H11.3887V5.68964H8.54376V2.84473Z" fill="#D05D60"/>
<path d="M5.68927 2.84473H8.53418V5.68964H5.68927V2.84473Z" fill="#D05D60"/>
<path d="M2.84454 2.84473H5.68945V5.68964H2.84454V2.84473Z" fill="#241D37"/>
<path d="M42.7078 5.69824H45.5527V8.54315H42.7078V5.69824Z" fill="#241D37"/>
<path d="M39.8631 5.69824H42.708V8.54315H39.8631V5.69824Z" fill="#D05D60"/>
<path d="M37.0106 5.69824H39.8555V8.54315H37.0106V5.69824Z" fill="#D05D60"/>
<path d="M34.1639 5.69824H37.0088V8.54315H34.1639V5.69824Z" fill="#D05D60"/>
<path d="M31.3192 5.69824H34.1641V8.54315H31.3192V5.69824Z" fill="#D05D60"/>
<path d="M28.4744 5.69824H31.3193V8.54315H28.4744V5.69824Z" fill="#D05D60"/>
<path d="M25.6219 5.69824H28.4668V8.54315H25.6219V5.69824Z" fill="#D05D60"/>
<path d="M22.7752 5.69824H25.6201V8.54315H22.7752V5.69824Z" fill="#D05D60"/>
<path d="M19.9315 5.69824H22.7764V8.54315H19.9315V5.69824Z" fill="#D05D60"/>
<path d="M17.0867 5.69824H19.9316V8.54315H17.0867V5.69824Z" fill="#D05D60"/>
<path d="M14.2332 5.69824H17.0781V8.54315H14.2332V5.69824Z" fill="#D05D60"/>
<path d="M11.3885 5.69824H14.2334V8.54315H11.3885V5.69824Z" fill="#D05D60"/>
<path d="M8.54376 5.69824H11.3887V8.54315H8.54376V5.69824Z" fill="#D05D60"/>
<path d="M5.68927 5.69824H8.53418V8.54315H5.68927V5.69824Z" fill="#D05D60"/>
<path d="M2.84454 5.69824H5.68945V8.54315H2.84454V5.69824Z" fill="#E1A1B4"/>
<path d="M-0.00018692 5.69824H2.84473V8.54315H-0.00018692V5.69824Z" fill="#241D37"/>
<path d="M42.7078 8.54321H45.5527V11.3881H42.7078V8.54321Z" fill="#241D37"/>
<path d="M39.8631 8.54321H42.708V11.3881H39.8631V8.54321Z" fill="#D05D60"/>
<path d="M37.0106 8.54321H39.8555V11.3881H37.0106V8.54321Z" fill="#D05D60"/>
<path d="M34.1639 8.54321H37.0088V11.3881H34.1639V8.54321Z" fill="#D05D60"/>
<path d="M31.3192 8.54321H34.1641V11.3881H31.3192V8.54321Z" fill="#D05D60"/>
<path d="M28.4744 8.54321H31.3193V11.3881H28.4744V8.54321Z" fill="#D05D60"/>
<path d="M25.6219 8.54321H28.4668V11.3881H25.6219V8.54321Z" fill="#D05D60"/>
<path d="M22.7752 8.54321H25.6201V11.3881H22.7752V8.54321Z" fill="#D05D60"/>
<path d="M19.9315 8.54321H22.7764V11.3881H19.9315V8.54321Z" fill="#D05D60"/>
<path d="M17.0867 8.54321H19.9316V11.3881H17.0867V8.54321Z" fill="#D05D60"/>
<path d="M14.2332 8.54321H17.0781V11.3881H14.2332V8.54321Z" fill="#D05D60"/>
<path d="M11.3885 8.54321H14.2334V11.3881H11.3885V8.54321Z" fill="#D05D60"/>
<path d="M8.54376 8.54321H11.3887V11.3881H8.54376V8.54321Z" fill="#D05D60"/>
<path d="M5.68927 8.54321H8.53418V11.3881H5.68927V8.54321Z" fill="#D05D60"/>
<path d="M2.84454 8.54321H5.68945V11.3881H2.84454V8.54321Z" fill="#E1A1B4"/>
<path d="M-0.00018692 8.54321H2.84473V11.3881H-0.00018692V8.54321Z" fill="#241D37"/>
<path d="M42.7078 11.3882H45.5527V14.2331H42.7078V11.3882Z" fill="#241D37"/>
<path d="M39.8631 11.3882H42.708V14.2331H39.8631V11.3882Z" fill="#D05D60"/>
<path d="M37.0106 11.3882H39.8555V14.2331H37.0106V11.3882Z" fill="#D05D60"/>
<path d="M34.1639 11.3882H37.0088V14.2331H34.1639V11.3882Z" fill="#D05D60"/>
<path d="M31.3192 11.3882H34.1641V14.2331H31.3192V11.3882Z" fill="#D05D60"/>
<path d="M28.4744 11.3882H31.3193V14.2331H28.4744V11.3882Z" fill="#D05D60"/>
<path d="M25.6219 11.3882H28.4668V14.2331H25.6219V11.3882Z" fill="#D05D60"/>
<path d="M22.7752 11.3882H25.6201V14.2331H22.7752V11.3882Z" fill="#D05D60"/>
<path d="M19.9315 11.3882H22.7764V14.2331H19.9315V11.3882Z" fill="#D05D60"/>
<path d="M17.0867 11.3882H19.9316V14.2331H17.0867V11.3882Z" fill="#D05D60"/>
<path d="M14.2332 11.3882H17.0781V14.2331H14.2332V11.3882Z" fill="#D05D60"/>
<path d="M11.3885 11.3882H14.2334V14.2331H11.3885V11.3882Z" fill="#D05D60"/>
<path d="M8.54376 11.3882H11.3887V14.2331H8.54376V11.3882Z" fill="#D05D60"/>
<path d="M5.68927 11.3882H8.53418V14.2331H5.68927V11.3882Z" fill="#D05D60"/>
<path d="M2.84454 11.3882H5.68945V14.2331H2.84454V11.3882Z" fill="#E1A1B4"/>
<path d="M-0.00018692 11.3882H2.84473V14.2331H-0.00018692V11.3882Z" fill="#241D37"/>
<path d="M42.7078 14.2332H45.5527V17.0781H42.7078V14.2332Z" fill="#241D37"/>
<path d="M39.8631 14.2332H42.708V17.0781H39.8631V14.2332Z" fill="#D05D60"/>
<path d="M37.0106 14.2332H39.8555V17.0781H37.0106V14.2332Z" fill="#D05D60"/>
<path d="M34.1639 14.2332H37.0088V17.0781H34.1639V14.2332Z" fill="#D05D60"/>
<path d="M31.3192 14.2332H34.1641V17.0781H31.3192V14.2332Z" fill="#D05D60"/>
<path d="M28.4744 14.2332H31.3193V17.0781H28.4744V14.2332Z" fill="#D05D60"/>
<path d="M25.6219 14.2332H28.4668V17.0781H25.6219V14.2332Z" fill="#D05D60"/>
<path d="M22.7752 14.2332H25.6201V17.0781H22.7752V14.2332Z" fill="#D05D60"/>
<path d="M19.9315 14.2332H22.7764V17.0781H19.9315V14.2332Z" fill="#D05D60"/>
<path d="M17.0867 14.2332H19.9316V17.0781H17.0867V14.2332Z" fill="#D05D60"/>
<path d="M14.2332 14.2332H17.0781V17.0781H14.2332V14.2332Z" fill="#D05D60"/>
<path d="M11.3885 14.2332H14.2334V17.0781H11.3885V14.2332Z" fill="#D05D60"/>
<path d="M8.54376 14.2332H11.3887V17.0781H8.54376V14.2332Z" fill="#D05D60"/>
<path d="M5.68927 14.2332H8.53418V17.0781H5.68927V14.2332Z" fill="#D05D60"/>
<path d="M2.84454 14.2332H5.68945V17.0781H2.84454V14.2332Z" fill="#E1A1B4"/>
<path d="M-0.00018692 14.2332H2.84473V17.0781H-0.00018692V14.2332Z" fill="#241D37"/>
<path d="M42.7078 17.0867H45.5527V19.9316H42.7078V17.0867Z" fill="#241D37"/>
<path d="M39.8631 17.0867H42.708V19.9316H39.8631V17.0867Z" fill="#D05D60"/>
<path d="M37.0106 17.0867H39.8555V19.9316H37.0106V17.0867Z" fill="#D05D60"/>
<path d="M34.1639 17.0867H37.0088V19.9316H34.1639V17.0867Z" fill="#D05D60"/>
<path d="M31.3192 17.0867H34.1641V19.9316H31.3192V17.0867Z" fill="#D05D60"/>
<path d="M28.4744 17.0867H31.3193V19.9316H28.4744V17.0867Z" fill="#D05D60"/>
<path d="M25.6219 17.0867H28.4668V19.9316H25.6219V17.0867Z" fill="#D05D60"/>
<path d="M22.7752 17.0867H25.6201V19.9316H22.7752V17.0867Z" fill="#D05D60"/>
<path d="M19.9315 17.0867H22.7764V19.9316H19.9315V17.0867Z" fill="#D05D60"/>
<path d="M17.0867 17.0867H19.9316V19.9316H17.0867V17.0867Z" fill="#D05D60"/>
<path d="M14.2332 17.0867H17.0781V19.9316H14.2332V17.0867Z" fill="#D05D60"/>
<path d="M11.3885 17.0867H14.2334V19.9316H11.3885V17.0867Z" fill="#D05D60"/>
<path d="M8.54376 17.0867H11.3887V19.9316H8.54376V17.0867Z" fill="#D05D60"/>
<path d="M5.68927 17.0867H8.53418V19.9316H5.68927V17.0867Z" fill="#D05D60"/>
<path d="M2.84454 17.0867H5.68945V19.9316H2.84454V17.0867Z" fill="#E1A1B4"/>
<path d="M-0.00018692 17.0867H2.84473V19.9316H-0.00018692V17.0867Z" fill="#241D37"/>
<path d="M42.7078 19.9314H45.5527V22.7763H42.7078V19.9314Z" fill="#241D37"/>
<path d="M39.8631 19.9314H42.708V22.7763H39.8631V19.9314Z" fill="#D05D60"/>
<path d="M37.0106 19.9314H39.8555V22.7763H37.0106V19.9314Z" fill="#D05D60"/>
<path d="M34.1639 19.9314H37.0088V22.7763H34.1639V19.9314Z" fill="#D05D60"/>
<path d="M31.3192 19.9314H34.1641V22.7763H31.3192V19.9314Z" fill="#D05D60"/>
<path d="M28.4744 19.9314H31.3193V22.7763H28.4744V19.9314Z" fill="#D05D60"/>
<path d="M25.6219 19.9314H28.4668V22.7763H25.6219V19.9314Z" fill="#D05D60"/>
<path d="M22.7752 19.9314H25.6201V22.7763H22.7752V19.9314Z" fill="#D05D60"/>
<path d="M19.9315 19.9314H22.7764V22.7763H19.9315V19.9314Z" fill="#D05D60"/>
<path d="M17.0867 19.9314H19.9316V22.7763H17.0867V19.9314Z" fill="#D05D60"/>
<path d="M14.2332 19.9314H17.0781V22.7763H14.2332V19.9314Z" fill="#D05D60"/>
<path d="M11.3885 19.9314H14.2334V22.7763H11.3885V19.9314Z" fill="#D05D60"/>
<path d="M8.54376 19.9314H11.3887V22.7763H8.54376V19.9314Z" fill="#D05D60"/>
<path d="M5.68927 19.9314H8.53418V22.7763H5.68927V19.9314Z" fill="#D05D60"/>
<path d="M2.84454 19.9314H5.68945V22.7763H2.84454V19.9314Z" fill="#E1A1B4"/>
<path d="M-0.00018692 19.9314H2.84473V22.7763H-0.00018692V19.9314Z" fill="#241D37"/>
<path d="M42.7078 22.7764H45.5527V25.6213H42.7078V22.7764Z" fill="#241D37"/>
<path d="M39.8631 22.7764H42.708V25.6213H39.8631V22.7764Z" fill="#D05D60"/>
<path d="M37.0106 22.7764H39.8555V25.6213H37.0106V22.7764Z" fill="#D05D60"/>
<path d="M34.1639 22.7764H37.0088V25.6213H34.1639V22.7764Z" fill="#D05D60"/>
<path d="M31.3192 22.7764H34.1641V25.6213H31.3192V22.7764Z" fill="#D05D60"/>
<path d="M28.4744 22.7764H31.3193V25.6213H28.4744V22.7764Z" fill="#D05D60"/>
<path d="M25.6219 22.7764H28.4668V25.6213H25.6219V22.7764Z" fill="#D05D60"/>
<path d="M22.7752 22.7764H25.6201V25.6213H22.7752V22.7764Z" fill="#D05D60"/>
<path d="M19.9315 22.7764H22.7764V25.6213H19.9315V22.7764Z" fill="#D05D60"/>
<path d="M17.0867 22.7764H19.9316V25.6213H17.0867V22.7764Z" fill="#D05D60"/>
<path d="M14.2332 22.7764H17.0781V25.6213H14.2332V22.7764Z" fill="#D05D60"/>
<path d="M11.3885 22.7764H14.2334V25.6213H11.3885V22.7764Z" fill="#D05D60"/>
<path d="M8.54376 22.7764H11.3887V25.6213H8.54376V22.7764Z" fill="#D05D60"/>
<path d="M5.68927 22.7764H8.53418V25.6213H5.68927V22.7764Z" fill="#D05D60"/>
<path d="M2.84454 22.7764H5.68945V25.6213H2.84454V22.7764Z" fill="#E1A1B4"/>
<path d="M-0.00018692 22.7764H2.84473V25.6213H-0.00018692V22.7764Z" fill="#241D37"/>
<path d="M42.7078 25.6213H45.5527V28.4662H42.7078V25.6213Z" fill="#241D37"/>
<path d="M39.8631 25.6213H42.708V28.4662H39.8631V25.6213Z" fill="#D05D60"/>
<path d="M37.0106 25.6213H39.8555V28.4662H37.0106V25.6213Z" fill="#D05D60"/>
<path d="M34.1639 25.6213H37.0088V28.4662H34.1639V25.6213Z" fill="#D05D60"/>
<path d="M31.3192 25.6213H34.1641V28.4662H31.3192V25.6213Z" fill="#D05D60"/>
<path d="M28.4744 25.6213H31.3193V28.4662H28.4744V25.6213Z" fill="#D05D60"/>
<path d="M25.6219 25.6213H28.4668V28.4662H25.6219V25.6213Z" fill="#D05D60"/>
<path d="M22.7752 25.6213H25.6201V28.4662H22.7752V25.6213Z" fill="#D05D60"/>
<path d="M19.9315 25.6213H22.7764V28.4662H19.9315V25.6213Z" fill="#D05D60"/>
<path d="M17.0867 25.6213H19.9316V28.4662H17.0867V25.6213Z" fill="#D05D60"/>
<path d="M14.2332 25.6213H17.0781V28.4662H14.2332V25.6213Z" fill="#D05D60"/>
<path d="M11.3885 25.6213H14.2334V28.4662H11.3885V25.6213Z" fill="#D05D60"/>
<path d="M8.54376 25.6213H11.3887V28.4662H8.54376V25.6213Z" fill="#D05D60"/>
<path d="M5.68927 25.6213H8.53418V28.4662H5.68927V25.6213Z" fill="#D05D60"/>
<path d="M2.84454 25.6213H5.68945V28.4662H2.84454V25.6213Z" fill="#E1A1B4"/>
<path d="M-0.00018692 25.6213H2.84473V28.4662H-0.00018692V25.6213Z" fill="#241D37"/>
<path d="M42.7078 28.4749H45.5527V31.3198H42.7078V28.4749Z" fill="#241D37"/>
<path d="M39.8631 28.4749H42.708V31.3198H39.8631V28.4749Z" fill="#E1A1B4"/>
<path d="M37.0106 28.4749H39.8555V31.3198H37.0106V28.4749Z" fill="#D05D60"/>
<path d="M34.1639 28.4749H37.0088V31.3198H34.1639V28.4749Z" fill="#D05D60"/>
<path d="M31.3192 28.4749H34.1641V31.3198H31.3192V28.4749Z" fill="#D05D60"/>
<path d="M28.4744 28.4749H31.3193V31.3198H28.4744V28.4749Z" fill="#D05D60"/>
<path d="M25.6219 28.4749H28.4668V31.3198H25.6219V28.4749Z" fill="#D05D60"/>
<path d="M22.7752 28.4749H25.6201V31.3198H22.7752V28.4749Z" fill="#D05D60"/>
<path d="M19.9315 28.4749H22.7764V31.3198H19.9315V28.4749Z" fill="#D05D60"/>
<path d="M17.0867 28.4749H19.9316V31.3198H17.0867V28.4749Z" fill="#D05D60"/>
<path d="M14.2332 28.4749H17.0781V31.3198H14.2332V28.4749Z" fill="#D05D60"/>
<path d="M11.3885 28.4749H14.2334V31.3198H11.3885V28.4749Z" fill="#D05D60"/>
<path d="M8.54376 28.4749H11.3887V31.3198H8.54376V28.4749Z" fill="#D05D60"/>
<path d="M5.68927 28.4749H8.53418V31.3198H5.68927V28.4749Z" fill="#E1A1B4"/>
<path d="M2.84454 28.4749H5.68945V31.3198H2.84454V28.4749Z" fill="#E1A1B4"/>
<path d="M-0.00018692 28.4749H2.84473V31.3198H-0.00018692V28.4749Z" fill="#241D37"/>
<path d="M42.7078 31.3196H45.5527V34.1645H42.7078V31.3196Z" fill="#241D37"/>
<path d="M39.8631 31.3196H42.708V34.1645H39.8631V31.3196Z" fill="#AF3C55"/>
<path d="M37.0106 31.3196H39.8555V34.1645H37.0106V31.3196Z" fill="#E1A1B4"/>
<path d="M34.1639 31.3196H37.0088V34.1645H34.1639V31.3196Z" fill="#E1A1B4"/>
<path d="M31.3192 31.3196H34.1641V34.1645H31.3192V31.3196Z" fill="#E1A1B4"/>
<path d="M28.4744 31.3196H31.3193V34.1645H28.4744V31.3196Z" fill="#E1A1B4"/>
<path d="M25.6219 31.3196H28.4668V34.1645H25.6219V31.3196Z" fill="#E1A1B4"/>
<path d="M22.7752 31.3196H25.6201V34.1645H22.7752V31.3196Z" fill="#E1A1B4"/>
<path d="M19.9315 31.3196H22.7764V34.1645H19.9315V31.3196Z" fill="#E1A1B4"/>
<path d="M17.0867 31.3196H19.9316V34.1645H17.0867V31.3196Z" fill="#E1A1B4"/>
<path d="M14.2332 31.3196H17.0781V34.1645H14.2332V31.3196Z" fill="#E1A1B4"/>
<path d="M11.3885 31.3196H14.2334V34.1645H11.3885V31.3196Z" fill="#E1A1B4"/>
<path d="M8.54376 31.3196H11.3887V34.1645H8.54376V31.3196Z" fill="#E1A1B4"/>
<path d="M5.68927 31.3196H8.53418V34.1645H5.68927V31.3196Z" fill="#E1A1B4"/>
<path d="M2.84454 31.3196H5.68945V34.1645H2.84454V31.3196Z" fill="#AF3C55"/>
<path d="M-0.00018692 31.3196H2.84473V34.1645H-0.00018692V31.3196Z" fill="#241D37"/>
<path d="M42.7078 34.1648H45.5527V37.0097H42.7078V34.1648Z" fill="#241D37"/>
<path d="M39.8631 34.1648H42.708V37.0097H39.8631V34.1648Z" fill="#AF3C55"/>
<path d="M37.0106 34.1648H39.8555V37.0097H37.0106V34.1648Z" fill="#AF3C55"/>
<path d="M34.1639 34.1648H37.0088V37.0097H34.1639V34.1648Z" fill="#AF3C55"/>
<path d="M31.3192 34.1648H34.1641V37.0097H31.3192V34.1648Z" fill="#AF3C55"/>
<path d="M28.4744 34.1648H31.3193V37.0097H28.4744V34.1648Z" fill="#AF3C55"/>
<path d="M25.6219 34.1648H28.4668V37.0097H25.6219V34.1648Z" fill="#AF3C55"/>
<path d="M22.7752 34.1648H25.6201V37.0097H22.7752V34.1648Z" fill="#AF3C55"/>
<path d="M19.9315 34.1648H22.7764V37.0097H19.9315V34.1648Z" fill="#AF3C55"/>
<path d="M17.0867 34.1648H19.9316V37.0097H17.0867V34.1648Z" fill="#AF3C55"/>
<path d="M14.2332 34.1648H17.0781V37.0097H14.2332V34.1648Z" fill="#AF3C55"/>
<path d="M11.3885 34.1648H14.2334V37.0097H11.3885V34.1648Z" fill="#AF3C55"/>
<path d="M8.54376 34.1648H11.3887V37.0097H8.54376V34.1648Z" fill="#AF3C55"/>
<path d="M5.68927 34.1648H8.53418V37.0097H5.68927V34.1648Z" fill="#AF3C55"/>
<path d="M2.84454 34.1648H5.68945V37.0097H2.84454V34.1648Z" fill="#AF3C55"/>
<path d="M-0.00018692 34.1648H2.84473V37.0097H-0.00018692V34.1648Z" fill="#241D37"/>
<path d="M42.7078 37.0095H45.5527V39.8544H42.7078V37.0095Z" fill="#241D37"/>
<path d="M39.8631 37.0095H42.708V39.8544H39.8631V37.0095Z" fill="#AF3C55"/>
<path d="M37.0106 37.0095H39.8555V39.8544H37.0106V37.0095Z" fill="#AF3C55"/>
<path d="M34.1639 37.0095H37.0088V39.8544H34.1639V37.0095Z" fill="#AF3C55"/>
<path d="M31.3192 37.0095H34.1641V39.8544H31.3192V37.0095Z" fill="#AF3C55"/>
<path d="M28.4744 37.0095H31.3193V39.8544H28.4744V37.0095Z" fill="#AF3C55"/>
<path d="M25.6219 37.0095H28.4668V39.8544H25.6219V37.0095Z" fill="#AF3C55"/>
<path d="M22.7752 37.0095H25.6201V39.8544H22.7752V37.0095Z" fill="#AF3C55"/>
<path d="M19.9315 37.0095H22.7764V39.8544H19.9315V37.0095Z" fill="#AF3C55"/>
<path d="M17.0867 37.0095H19.9316V39.8544H17.0867V37.0095Z" fill="#AF3C55"/>
<path d="M14.2332 37.0095H17.0781V39.8544H14.2332V37.0095Z" fill="#AF3C55"/>
<path d="M11.3885 37.0095H14.2334V39.8544H11.3885V37.0095Z" fill="#AF3C55"/>
<path d="M8.54376 37.0095H11.3887V39.8544H8.54376V37.0095Z" fill="#AF3C55"/>
<path d="M5.68927 37.0095H8.53418V39.8544H5.68927V37.0095Z" fill="#AF3C55"/>
<path d="M2.84454 37.0095H5.68945V39.8544H2.84454V37.0095Z" fill="#AF3C55"/>
<path d="M-0.00018692 37.0095H2.84473V39.8544H-0.00018692V37.0095Z" fill="#241D37"/>
<path d="M39.8631 39.863H42.708V42.7079H39.8631V39.863Z" fill="#241D37"/>
<path d="M37.0106 39.863H39.8555V42.7079H37.0106V39.863Z" fill="#AF3C55"/>
<path d="M34.1639 39.863H37.0088V42.7079H34.1639V39.863Z" fill="#AF3C55"/>
<path d="M31.3192 39.863H34.1641V42.7079H31.3192V39.863Z" fill="#AF3C55"/>
<path d="M28.4744 39.863H31.3193V42.7079H28.4744V39.863Z" fill="#AF3C55"/>
<path d="M25.6219 39.863H28.4668V42.7079H25.6219V39.863Z" fill="#AF3C55"/>
<path d="M22.7752 39.863H25.6201V42.7079H22.7752V39.863Z" fill="#AF3C55"/>
<path d="M19.9315 39.863H22.7764V42.7079H19.9315V39.863Z" fill="#AF3C55"/>
<path d="M17.0867 39.863H19.9316V42.7079H17.0867V39.863Z" fill="#AF3C55"/>
<path d="M14.2332 39.863H17.0781V42.7079H14.2332V39.863Z" fill="#AF3C55"/>
<path d="M11.3885 39.863H14.2334V42.7079H11.3885V39.863Z" fill="#AF3C55"/>
<path d="M8.54376 39.863H11.3887V42.7079H8.54376V39.863Z" fill="#AF3C55"/>
<path d="M5.68927 39.863H8.53418V42.7079H5.68927V39.863Z" fill="#AF3C55"/>
<path d="M2.84454 39.863H5.68945V42.7079H2.84454V39.863Z" fill="#241D37"/>
<path d="M37.0106 42.7078H39.8555V45.5527H37.0106V42.7078Z" fill="#241D37"/>
<path d="M34.1639 42.7078H37.0088V45.5527H34.1639V42.7078Z" fill="#241D37"/>
<path d="M31.3192 42.7078H34.1641V45.5527H31.3192V42.7078Z" fill="#241D37"/>
<path d="M28.4744 42.7078H31.3193V45.5527H28.4744V42.7078Z" fill="#241D37"/>
<path d="M25.6219 42.7078H28.4668V45.5527H25.6219V42.7078Z" fill="#241D37"/>
<path d="M22.7752 42.7078H25.6201V45.5527H22.7752V42.7078Z" fill="#241D37"/>
<path d="M19.9315 42.7078H22.7764V45.5527H19.9315V42.7078Z" fill="#241D37"/>
<path d="M17.0867 42.7078H19.9316V45.5527H17.0867V42.7078Z" fill="#241D37"/>
<path d="M14.2332 42.7078H17.0781V45.5527H14.2332V42.7078Z" fill="#241D37"/>
<path d="M11.3885 42.7078H14.2334V45.5527H11.3885V42.7078Z" fill="#241D37"/>
<path d="M8.54376 42.7078H11.3887V45.5527H8.54376V42.7078Z" fill="#241D37"/>
<path d="M5.68927 42.7078H8.53418V45.5527H5.68927V42.7078Z" fill="#241D37"/>
</g>
<path d="M31.7139 10.4011H33.417V12.1042H31.7139V10.4011Z" fill="#21397A"/>
<path d="M31.7139 12.104H33.417V13.8071H31.7139V12.104Z" fill="#21397A"/>
<path d="M31.7139 13.8076H33.417V15.5107H31.7139V13.8076Z" fill="#21397A"/>
<path d="M31.7139 15.5105H33.417V17.2136H31.7139V15.5105Z" fill="#21397A"/>
<path d="M31.7139 17.2136H33.417V18.9167H31.7139V17.2136Z" fill="#21397A"/>
<path d="M31.7139 18.9167H33.417V20.6199H31.7139V18.9167Z" fill="#21397A"/>
<path d="M31.7139 20.6196H33.417V22.3227H31.7139V20.6196Z" fill="#21397A"/>
<path d="M31.7139 22.3232H33.417V24.0264H31.7139V22.3232Z" fill="#21397A"/>
<path d="M31.7139 24.0261H33.417V25.7292H31.7139V24.0261Z" fill="#21397A"/>
<path d="M31.7139 25.7292H33.417V27.4324H31.7139V25.7292Z" fill="#21397A"/>
<path d="M31.7139 27.4324H33.417V29.1355H31.7139V27.4324Z" fill="#21397A"/>
<path d="M30.0108 8.698H31.7139V10.4011H30.0108V8.698Z" fill="#21397A"/>
<path d="M30.0108 10.4011H31.7139V12.1042H30.0108V10.4011Z" fill="#21397A"/>
<path d="M30.0108 12.104H31.7139V13.8071H30.0108V12.104Z" fill="#6BCBFF"/>
<path d="M30.0108 13.8076H31.7139V15.5107H30.0108V13.8076Z" fill="#6BCBFF"/>
<path d="M30.0108 15.5105H31.7139V17.2136H30.0108V15.5105Z" fill="#6BCBFF"/>
<path d="M30.0108 17.2136H31.7139V18.9167H30.0108V17.2136Z" fill="#6BCBFF"/>
<path d="M30.0108 18.9167H31.7139V20.6199H30.0108V18.9167Z" fill="#6BCBFF"/>
<path d="M30.0108 20.6196H31.7139V22.3227H30.0108V20.6196Z" fill="#6BCBFF"/>
<path d="M30.0108 22.3232H31.7139V24.0264H30.0108V22.3232Z" fill="#6BCBFF"/>
<path d="M30.0108 24.0261H31.7139V25.7292H30.0108V24.0261Z" fill="#4DA9FF"/>
<path d="M30.0108 25.7292H31.7139V27.4324H30.0108V25.7292Z" fill="#4DA9FF"/>
<path d="M30.0108 27.4324H31.7139V29.1355H30.0108V27.4324Z" fill="#21397A"/>
<path d="M30.0108 29.1353H31.7139V30.8384H30.0108V29.1353Z" fill="#21397A"/>
<path d="M28.3076 8.698H30.0107V10.4011H28.3076V8.698Z" fill="#21397A"/>
<path d="M28.3076 10.4011H30.0107V12.1042H28.3076V10.4011Z" fill="#C7EBFF"/>
<path d="M28.3076 12.104H30.0107V13.8071H28.3076V12.104Z" fill="#C7EBFF"/>
<path d="M28.3076 13.8076H30.0107V15.5107H28.3076V13.8076Z" fill="#C7EBFF"/>
<path d="M28.3076 15.5105H30.0107V17.2136H28.3076V15.5105Z" fill="#C7EBFF"/>
<path d="M28.3076 17.2136H30.0107V18.9167H28.3076V17.2136Z" fill="#C7EBFF"/>
<path d="M28.3076 18.9167H30.0107V20.6199H28.3076V18.9167Z" fill="#6BCBFF"/>
<path d="M28.3076 20.6196H30.0107V22.3227H28.3076V20.6196Z" fill="#6BCBFF"/>
<path d="M28.3076 22.3232H30.0107V24.0264H28.3076V22.3232Z" fill="#4DA9FF"/>
<path d="M28.3076 24.0261H30.0107V25.7292H28.3076V24.0261Z" fill="#4DA9FF"/>
<path d="M28.3076 25.7292H30.0107V27.4324H28.3076V25.7292Z" fill="#4DA9FF"/>
<path d="M28.3076 27.4324H30.0107V29.1355H28.3076V27.4324Z" fill="#4DA9FF"/>
<path d="M28.3076 29.1353H30.0107V30.8384H28.3076V29.1353Z" fill="#21397A"/>
<path d="M26.6045 8.698H28.3076V10.4011H26.6045V8.698Z" fill="#21397A"/>
<path d="M26.6045 10.4011H28.3076V12.1042H26.6045V10.4011Z" fill="#21397A"/>
<path d="M26.6045 12.104H28.3076V13.8071H26.6045V12.104Z" fill="#6BCBFF"/>
<path d="M26.6045 13.8076H28.3076V15.5107H26.6045V13.8076Z" fill="#6BCBFF"/>
<path d="M26.6045 15.5105H28.3076V17.2136H26.6045V15.5105Z" fill="#6BCBFF"/>
<path d="M26.6045 17.2136H28.3076V18.9167H26.6045V17.2136Z" fill="#6BCBFF"/>
<path d="M26.6045 18.9167H28.3076V20.6199H26.6045V18.9167Z" fill="#6BCBFF"/>
<path d="M26.6045 20.6196H28.3076V22.3227H26.6045V20.6196Z" fill="#6BCBFF"/>
<path d="M26.6045 22.3232H28.3076V24.0264H26.6045V22.3232Z" fill="#4DA9FF"/>
<path d="M26.6045 24.0261H28.3076V25.7292H26.6045V24.0261Z" fill="#4DA9FF"/>
<path d="M26.6045 25.7292H28.3076V27.4324H26.6045V25.7292Z" fill="#4DA9FF"/>
<path d="M26.6045 27.4324H28.3076V29.1355H26.6045V27.4324Z" fill="#21397A"/>
<path d="M26.6045 29.1353H28.3076V30.8384H26.6045V29.1353Z" fill="#21397A"/>
<path d="M24.9014 10.4011H26.6045V12.1042H24.9014V10.4011Z" fill="#21397A"/>
<path d="M24.9014 12.104H26.6045V13.8071H24.9014V12.104Z" fill="#6BCBFF"/>
<path d="M24.9014 13.8076H26.6045V15.5107H24.9014V13.8076Z" fill="#6BCBFF"/>
<path d="M24.9014 15.5105H26.6045V17.2136H24.9014V15.5105Z" fill="#6BCBFF"/>
<path d="M24.9014 17.2136H26.6045V18.9167H24.9014V17.2136Z" fill="#6BCBFF"/>
<path d="M24.9014 18.9167H26.6045V20.6199H24.9014V18.9167Z" fill="#6BCBFF"/>
<path d="M24.9014 20.6196H26.6045V22.3227H24.9014V20.6196Z" fill="#6BCBFF"/>
<path d="M24.9014 22.3232H26.6045V24.0264H24.9014V22.3232Z" fill="#4DA9FF"/>
<path d="M24.9014 24.0261H26.6045V25.7292H24.9014V24.0261Z" fill="#4DA9FF"/>
<path d="M24.9014 25.7292H26.6045V27.4324H24.9014V25.7292Z" fill="#4DA9FF"/>
<path d="M24.9014 27.4324H26.6045V29.1355H24.9014V27.4324Z" fill="#21397A"/>
<path d="M23.1983 10.4011H24.9014V12.1042H23.1983V10.4011Z" fill="#21397A"/>
<path d="M23.1983 12.104H24.9014V13.8071H23.1983V12.104Z" fill="#21397A"/>
<path d="M23.1983 13.8076H24.9014V15.5107H23.1983V13.8076Z" fill="#6BCBFF"/>
<path d="M23.1983 15.5105H24.9014V17.2136H23.1983V15.5105Z" fill="#6BCBFF"/>
<path d="M23.1983 17.2136H24.9014V18.9167H23.1983V17.2136Z" fill="#6BCBFF"/>
<path d="M23.1983 18.9167H24.9014V20.6199H23.1983V18.9167Z" fill="#6BCBFF"/>
<path d="M23.1983 20.6196H24.9014V22.3227H23.1983V20.6196Z" fill="#4DA9FF"/>
<path d="M23.1983 22.3232H24.9014V24.0264H23.1983V22.3232Z" fill="#4DA9FF"/>
<path d="M23.1983 24.0261H24.9014V25.7292H23.1983V24.0261Z" fill="#4DA9FF"/>
<path d="M23.1983 25.7292H24.9014V27.4324H23.1983V25.7292Z" fill="#21397A"/>
<path d="M23.1983 27.4324H24.9014V29.1355H23.1983V27.4324Z" fill="#21397A"/>
<path d="M21.4951 12.104H23.1982V13.8071H21.4951V12.104Z" fill="#21397A"/>
<path d="M21.4951 13.8076H23.1982V15.5107H21.4951V13.8076Z" fill="#6BCBFF"/>
<path d="M21.4951 15.5105H23.1982V17.2136H21.4951V15.5105Z" fill="#6BCBFF"/>
<path d="M21.4951 17.2136H23.1982V18.9167H21.4951V17.2136Z" fill="#6BCBFF"/>
<path d="M21.4951 18.9167H23.1982V20.6199H21.4951V18.9167Z" fill="#6BCBFF"/>
<path d="M21.4951 20.6196H23.1982V22.3227H21.4951V20.6196Z" fill="#4DA9FF"/>
<path d="M21.4951 22.3232H23.1982V24.0264H21.4951V22.3232Z" fill="#4DA9FF"/>
<path d="M21.4951 24.0261H23.1982V25.7292H21.4951V24.0261Z" fill="#4DA9FF"/>
<path d="M21.4951 25.7292H23.1982V27.4324H21.4951V25.7292Z" fill="#21397A"/>
<path d="M19.792 12.104H21.4951V13.8071H19.792V12.104Z" fill="#21397A"/>
<path d="M19.792 13.8076H21.4951V15.5107H19.792V13.8076Z" fill="#21397A"/>
<path d="M19.792 15.5105H21.4951V17.2136H19.792V15.5105Z" fill="#6BCBFF"/>
<path d="M19.792 17.2136H21.4951V18.9167H19.792V17.2136Z" fill="#6BCBFF"/>
<path d="M19.792 18.9167H21.4951V20.6199H19.792V18.9167Z" fill="#4DA9FF"/>
<path d="M19.792 20.6196H21.4951V22.3227H19.792V20.6196Z" fill="#4DA9FF"/>
<path d="M19.792 22.3232H21.4951V24.0264H19.792V22.3232Z" fill="#4DA9FF"/>
<path d="M19.792 24.0261H21.4951V25.7292H19.792V24.0261Z" fill="#21397A"/>
<path d="M19.792 25.7292H21.4951V27.4324H19.792V25.7292Z" fill="#21397A"/>
<path d="M18.0889 13.8076H19.792V15.5107H18.0889V13.8076Z" fill="#21397A"/>
<path d="M18.0889 15.5105H19.792V17.2136H18.0889V15.5105Z" fill="#6BCBFF"/>
<path d="M18.0889 17.2136H19.792V18.9167H18.0889V17.2136Z" fill="#4DA9FF"/>
<path d="M18.0889 18.9167H19.792V20.6199H18.0889V18.9167Z" fill="#4DA9FF"/>
<path d="M18.0889 20.6196H19.792V22.3227H18.0889V20.6196Z" fill="#4DA9FF"/>
<path d="M18.0889 22.3232H19.792V24.0264H18.0889V22.3232Z" fill="#4DA9FF"/>
<path d="M18.0889 24.0261H19.792V25.7292H18.0889V24.0261Z" fill="#21397A"/>
<path d="M16.3858 13.8076H18.0889V15.5107H16.3858V13.8076Z" fill="#21397A"/>
<path d="M16.3858 15.5105H18.0889V17.2136H16.3858V15.5105Z" fill="#21397A"/>
<path d="M16.3858 17.2136H18.0889V18.9167H16.3858V17.2136Z" fill="#4DA9FF"/>
<path d="M16.3858 18.9167H18.0889V20.6199H16.3858V18.9167Z" fill="#4DA9FF"/>
<path d="M16.3858 20.6196H18.0889V22.3227H16.3858V20.6196Z" fill="#4DA9FF"/>
<path d="M16.3858 22.3232H18.0889V24.0264H16.3858V22.3232Z" fill="#21397A"/>
<path d="M16.3858 24.0261H18.0889V25.7292H16.3858V24.0261Z" fill="#21397A"/>
<path d="M14.6826 15.5105H16.3857V17.2136H14.6826V15.5105Z" fill="#21397A"/>
<path d="M14.6826 17.2136H16.3857V18.9167H14.6826V17.2136Z" fill="#4DA9FF"/>
<path d="M14.6826 18.9167H16.3857V20.6199H14.6826V18.9167Z" fill="#4DA9FF"/>
<path d="M14.6826 20.6196H16.3857V22.3227H14.6826V20.6196Z" fill="#4DA9FF"/>
<path d="M14.6826 22.3232H16.3857V24.0264H14.6826V22.3232Z" fill="#21397A"/>
<path d="M12.9785 15.5105H14.6816V17.2136H12.9785V15.5105Z" fill="#21397A"/>
<path d="M12.9785 17.2136H14.6816V18.9167H12.9785V17.2136Z" fill="#21397A"/>
<path d="M12.9785 18.9167H14.6816V20.6199H12.9785V18.9167Z" fill="#4DA9FF"/>
<path d="M12.9785 20.6196H14.6816V22.3227H12.9785V20.6196Z" fill="#21397A"/>
<path d="M12.9785 22.3232H14.6816V24.0264H12.9785V22.3232Z" fill="#21397A"/>
<path d="M11.2754 17.2136H12.9785V18.9167H11.2754V17.2136Z" fill="#21397A"/>
<path d="M11.2754 18.9167H12.9785V20.6199H11.2754V18.9167Z" fill="#21397A"/>
<path d="M11.2754 20.6196H12.9785V22.3227H11.2754V20.6196Z" fill="#21397A"/>
</g>
<defs>
<clipPath id="clip0_519_10026">
<rect width="45.553" height="45.553" fill="white" transform="matrix(-1 0 0 1 45.5527 0)"/>
</clipPath>
</defs>
</svg>
