<svg xmlns="http://www.w3.org/2000/svg" width="33" height="27" viewBox="0 0 33 27" fill="none">
<g clip-path="url(#clip0_309_29974)">
<path d="M17.7392 2.95386H14.7852V8.86961H17.7392V2.95386Z" fill="#07042D"/>
<path d="M17.7392 17.7395H14.7852V23.6553H17.7392V17.7395Z" fill="#07042D"/>
<path d="M2.95406 11.824H0V14.778H2.95406V11.824Z" fill="#07042D"/>
<path d="M23.6474 5.91577H20.6934V20.7013H23.6474V5.91577Z" fill="#4EB947"/>
<path d="M20.6943 2.95386H17.7402V23.6476H20.6943V2.95386Z" fill="#4EB947"/>
<path d="M26.6093 8.86963H23.6553V17.7394H26.6093V8.86963Z" fill="#4EB947"/>
<path d="M17.7392 8.86963H14.7852V17.7394H17.7392V8.86963Z" fill="#4EB947"/>
<path d="M29.5644 11.824H26.6104V14.778H29.5644V11.824Z" fill="#298941"/>
<path d="M26.6093 14.7856H23.6553V17.7397H26.6093V14.7856Z" fill="#298941"/>
<path d="M26.6093 8.86963H23.6553V11.8237H26.6093V8.86963Z" fill="#6AE061"/>
<path d="M23.6474 17.7395H20.6934V20.6936H23.6474V17.7395Z" fill="#298941"/>
<path d="M23.6474 5.91577H20.6934V8.86983H23.6474V5.91577Z" fill="#6AE061"/>
<path d="M20.6943 20.6936H17.7402V23.6477H20.6943V20.6936Z" fill="#298941"/>
<path d="M20.6943 2.95386H17.7402V5.90792H20.6943V2.95386Z" fill="#6AE061"/>
<path d="M17.7392 14.7856H14.7852V17.7397H17.7392V14.7856Z" fill="#298941"/>
<path d="M14.777 11.824H2.95312V14.778H14.777V11.824Z" fill="#4EB947"/>
<path d="M23.6563 8.86963H26.6104V5.91557H23.6563V8.86963Z" fill="#07042D"/>
<path d="M26.6094 11.824H29.5635V8.86991H26.6094V11.824Z" fill="#07042D"/>
<path d="M29.5713 14.7856H32.5254V11.8316H29.5713V14.7856Z" fill="#07042D"/>
<path d="M23.6563 20.6936H26.6104V17.7395H23.6563V20.6936Z" fill="#07042D"/>
<path d="M26.6094 17.7395H29.5635V14.7854H26.6094V17.7395Z" fill="#07042D"/>
<path d="M23.6474 2.95386H20.6934V5.90792H23.6474V2.95386Z" fill="#07042D"/>
<path d="M20.6943 0H17.7402V2.95406H20.6943V0Z" fill="#07042D"/>
<path d="M23.6474 20.6936H20.6934V23.6477H23.6474V20.6936Z" fill="#07042D"/>
<path d="M20.6943 23.6553H17.7402V26.6093H20.6943V23.6553Z" fill="#07042D"/>
<path d="M14.777 8.86963H2.95312V11.8237H14.777V8.86963Z" fill="#07042D"/>
<path d="M14.777 14.7856H2.95312V17.7397H14.777V14.7856Z" fill="#07042D"/>
</g>
<defs>
<clipPath id="clip0_309_29974">
<rect width="32.5252" height="26.6094" fill="white"/>
</clipPath>
</defs>
</svg>