<svg xmlns="http://www.w3.org/2000/svg" width="56" height="56" viewBox="0 0 56 56" fill="none">
<path d="M47.3194 34.157H45.6553V35.8211H47.3194V34.157Z" fill="black"/>
<path d="M47.3194 32.4924H45.6553V34.1569H47.3194V32.4924Z" fill="black"/>
<path d="M47.3194 30.8279H45.6553V32.492H47.3194V30.8279Z" fill="black"/>
<path d="M47.3194 29.1638H45.6553V30.8279H47.3194V29.1638Z" fill="black"/>
<path d="M47.3194 27.4988H45.6553V29.1633H47.3194V27.4988Z" fill="black"/>
<path d="M45.6553 37.4856H43.9912V39.1497H45.6553V37.4856Z" fill="black"/>
<path d="M45.6553 35.821H43.9912V37.4851H45.6553V35.821Z" fill="black"/>
<path d="M45.6553 34.157H43.9912V35.8211H45.6553V34.157Z" fill="#BF1313"/>
<path d="M45.6553 32.4924H43.9912V34.1569H45.6553V32.4924Z" fill="#BF1313"/>
<path d="M45.6553 30.8279H43.9912V32.492H45.6553V30.8279Z" fill="#BF1313"/>
<path d="M45.6553 29.1638H43.9912V30.8279H45.6553V29.1638Z" fill="#BF1313"/>
<path d="M45.6553 27.4988H43.9912V29.1633H45.6553V27.4988Z" fill="#BF1313"/>
<path d="M45.6553 25.835H43.9912V27.4991H45.6553V25.835Z" fill="black"/>
<path d="M45.6553 24.1707H43.9912V25.8348H45.6553V24.1707Z" fill="black"/>
<path d="M43.9912 40.8145H42.3271V42.4786H43.9912V40.8145Z" fill="black"/>
<path d="M43.9912 39.1497H42.3271V40.8142H43.9912V39.1497Z" fill="black"/>
<path d="M43.9912 37.4856H42.3271V39.1497H43.9912V37.4856Z" fill="#BF1313"/>
<path d="M43.9912 35.821H42.3271V37.4851H43.9912V35.821Z" fill="#BF1313"/>
<path d="M43.9912 34.157H42.3271V35.8211H43.9912V34.157Z" fill="#BF1313"/>
<path d="M43.9912 32.4924H42.3271V34.1569H43.9912V32.4924Z" fill="#6B0000"/>
<path d="M43.9912 30.8279H42.3271V32.492H43.9912V30.8279Z" fill="#6B0000"/>
<path d="M43.9912 29.1638H42.3271V30.8279H43.9912V29.1638Z" fill="#6B0000"/>
<path d="M43.9912 27.4988H42.3271V29.1633H43.9912V27.4988Z" fill="#BF1313"/>
<path d="M43.9912 25.835H42.3271V27.4991H43.9912V25.835Z" fill="#BF1313"/>
<path d="M43.9912 24.1707H42.3271V25.8348H43.9912V24.1707Z" fill="#BF1313"/>
<path d="M43.9912 22.5059H42.3271V24.1704H43.9912V22.5059Z" fill="black"/>
<path d="M43.9912 20.8418H42.3271V22.5059H43.9912V20.8418Z" fill="black"/>
<path d="M42.3266 42.4788H40.6621V44.1429H42.3266V42.4788Z" fill="black"/>
<path d="M42.3266 40.8145H40.6621V42.4786H42.3266V40.8145Z" fill="#BF1313"/>
<path d="M42.3266 39.1497H40.6621V40.8142H42.3266V39.1497Z" fill="#BF1313"/>
<path d="M42.3266 37.4856H40.6621V39.1497H42.3266V37.4856Z" fill="#BF1313"/>
<path d="M42.3266 35.821H40.6621V37.4851H42.3266V35.821Z" fill="#6B0000"/>
<path d="M42.3266 34.157H40.6621V35.8211H42.3266V34.157Z" fill="#6B0000"/>
<path d="M42.3266 32.4924H40.6621V34.1569H42.3266V32.4924Z" fill="#DDDBD4"/>
<path d="M42.3266 30.8279H40.6621V32.492H42.3266V30.8279Z" fill="#DDDBD4"/>
<path d="M42.3266 29.1638H40.6621V30.8279H42.3266V29.1638Z" fill="#DDDBD4"/>
<path d="M42.3266 27.4988H40.6621V29.1633H42.3266V27.4988Z" fill="#6B0000"/>
<path d="M42.3266 25.835H40.6621V27.4991H42.3266V25.835Z" fill="#6B0000"/>
<path d="M42.3266 24.1707H40.6621V25.8348H42.3266V24.1707Z" fill="#BF1313"/>
<path d="M42.3266 22.5059H40.6621V24.1704H42.3266V22.5059Z" fill="#BF1313"/>
<path d="M42.3266 20.8418H40.6621V22.5059H42.3266V20.8418Z" fill="#BF1313"/>
<path d="M42.3266 19.1772H40.6621V20.8413H42.3266V19.1772Z" fill="black"/>
<path d="M40.6631 44.1428H38.999V45.8073H40.6631V44.1428Z" fill="black"/>
<path d="M40.6631 42.4788H38.999V44.1429H40.6631V42.4788Z" fill="#BF1313"/>
<path d="M40.6631 40.8145H38.999V42.4786H40.6631V40.8145Z" fill="#BF1313"/>
<path d="M40.6631 39.1497H38.999V40.8142H40.6631V39.1497Z" fill="#6B0000"/>
<path d="M40.6631 37.4856H38.999V39.1497H40.6631V37.4856Z" fill="#6B0000"/>
<path d="M40.6631 35.821H38.999V37.4851H40.6631V35.821Z" fill="#DDDBD4"/>
<path d="M40.6631 34.157H38.999V35.8211H40.6631V34.157Z" fill="#DDDBD4"/>
<path d="M40.6631 32.4924H38.999V34.1569H40.6631V32.4924Z" fill="#DDDBD4"/>
<path d="M40.6631 30.8279H38.999V32.492H40.6631V30.8279Z" fill="#DDDBD4"/>
<path d="M40.6631 29.1638H38.999V30.8279H40.6631V29.1638Z" fill="#DDDBD4"/>
<path d="M40.6631 27.4988H38.999V29.1633H40.6631V27.4988Z" fill="#DDDBD4"/>
<path d="M40.6631 25.835H38.999V27.4991H40.6631V25.835Z" fill="#DDDBD4"/>
<path d="M40.6631 24.1707H38.999V25.8348H40.6631V24.1707Z" fill="#6B0000"/>
<path d="M40.6631 22.5059H38.999V24.1704H40.6631V22.5059Z" fill="#6B0000"/>
<path d="M40.6631 20.8418H38.999V22.5059H40.6631V20.8418Z" fill="#BF1313"/>
<path d="M40.6631 19.1772H38.999V20.8413H40.6631V19.1772Z" fill="#BF1313"/>
<path d="M40.6631 17.5132H38.999V19.1773H40.6631V17.5132Z" fill="black"/>
<path d="M38.9981 45.8076H37.334V47.4717H38.9981V45.8076Z" fill="black"/>
<path d="M38.9981 44.1428H37.334V45.8073H38.9981V44.1428Z" fill="#BF1313"/>
<path d="M38.9981 42.4788H37.334V44.1429H38.9981V42.4788Z" fill="#BF1313"/>
<path d="M38.9981 40.8142H37.334V42.4783H38.9981V40.8142Z" fill="#6B0000"/>
<path d="M38.9981 39.1497H37.334V40.8142H38.9981V39.1497Z" fill="#DDDBD4"/>
<path d="M38.9981 37.4856H37.334V39.1497H38.9981V37.4856Z" fill="#DDDBD4"/>
<path d="M38.9981 35.821H37.334V37.4851H38.9981V35.821Z" fill="#DDDBD4"/>
<path d="M38.9981 34.157H37.334V35.8211H38.9981V34.157Z" fill="#DDDBD4"/>
<path d="M38.9981 32.4924H37.334V34.1569H38.9981V32.4924Z" fill="#DDDBD4"/>
<path d="M38.9981 30.8279H37.334V32.492H38.9981V30.8279Z" fill="black"/>
<path d="M38.9981 29.1638H37.334V30.8279H38.9981V29.1638Z" fill="#DDDBD4"/>
<path d="M38.9981 27.4988H37.334V29.1633H38.9981V27.4988Z" fill="#DDDBD4"/>
<path d="M38.9981 25.835H37.334V27.4991H38.9981V25.835Z" fill="#DDDBD4"/>
<path d="M38.9981 24.1707H37.334V25.8348H38.9981V24.1707Z" fill="#DDDBD4"/>
<path d="M38.9981 22.5059H37.334V24.1704H38.9981V22.5059Z" fill="#DDDBD4"/>
<path d="M38.9981 20.8418H37.334V22.5059H38.9981V20.8418Z" fill="#6B0000"/>
<path d="M38.9981 19.1772H37.334V20.8413H38.9981V19.1772Z" fill="#BF1313"/>
<path d="M38.9981 17.5132H37.334V19.1773H38.9981V17.5132Z" fill="#BF1313"/>
<path d="M38.9981 15.8486H37.334V17.5131H38.9981V15.8486Z" fill="black"/>
<path d="M37.3344 45.8076H35.6699V47.4717H37.3344V45.8076Z" fill="black"/>
<path d="M37.3344 44.1428H35.6699V45.8073H37.3344V44.1428Z" fill="#BF1313"/>
<path d="M37.3344 42.4788H35.6699V44.1429H37.3344V42.4788Z" fill="#6B0000"/>
<path d="M37.3344 40.8142H35.6699V42.4783H37.3344V40.8142Z" fill="#DDDBD4"/>
<path d="M37.3344 39.1497H35.6699V40.8142H37.3344V39.1497Z" fill="#DDDBD4"/>
<path d="M37.3344 37.4856H35.6699V39.1497H37.3344V37.4856Z" fill="#DDDBD4"/>
<path d="M37.3344 35.821H35.6699V37.4851H37.3344V35.821Z" fill="#DDDBD4"/>
<path d="M37.3344 34.157H35.6699V35.8211H37.3344V34.157Z" fill="#DDDBD4"/>
<path d="M37.3344 32.4924H35.6699V34.1569H37.3344V32.4924Z" fill="#DDDBD4"/>
<path d="M37.3344 30.8279H35.6699V32.492H37.3344V30.8279Z" fill="#DDDBD4"/>
<path d="M37.3344 29.1638H35.6699V30.8279H37.3344V29.1638Z" fill="#DDDBD4"/>
<path d="M37.3344 27.4988H35.6699V29.1633H37.3344V27.4988Z" fill="#DDDBD4"/>
<path d="M37.3344 25.835H35.6699V27.4991H37.3344V25.835Z" fill="#DDDBD4"/>
<path d="M37.3344 24.1707H35.6699V25.8348H37.3344V24.1707Z" fill="#DDDBD4"/>
<path d="M37.3344 22.5059H35.6699V24.1704H37.3344V22.5059Z" fill="#DDDBD4"/>
<path d="M37.3344 20.8418H35.6699V22.5059H37.3344V20.8418Z" fill="#DDDBD4"/>
<path d="M37.3344 19.1772H35.6699V20.8413H37.3344V19.1772Z" fill="#6B0000"/>
<path d="M37.3344 17.5132H35.6699V19.1773H37.3344V17.5132Z" fill="#BF1313"/>
<path d="M37.3344 15.8486H35.6699V17.5131H37.3344V15.8486Z" fill="black"/>
<path d="M35.669 47.4717H34.0049V49.1358H35.669V47.4717Z" fill="black"/>
<path d="M35.669 45.8076H34.0049V47.4717H35.669V45.8076Z" fill="#BF1313"/>
<path d="M35.669 44.1428H34.0049V45.8073H35.669V44.1428Z" fill="#BF1313"/>
<path d="M35.669 42.4788H34.0049V44.1429H35.669V42.4788Z" fill="#6B0000"/>
<path d="M35.669 40.8142H34.0049V42.4783H35.669V40.8142Z" fill="#DDDBD4"/>
<path d="M35.669 39.1497H34.0049V40.8142H35.669V39.1497Z" fill="#DDDBD4"/>
<path d="M35.669 37.4856H34.0049V39.1497H35.669V37.4856Z" fill="#DDDBD4"/>
<path d="M35.669 35.821H34.0049V37.4851H35.669V35.821Z" fill="#DDDBD4"/>
<path d="M35.669 34.157H34.0049V35.8211H35.669V34.157Z" fill="#DDDBD4"/>
<path d="M35.669 32.4924H34.0049V34.1569H35.669V32.4924Z" fill="#DDDBD4"/>
<path d="M35.669 30.8279H34.0049V32.492H35.669V30.8279Z" fill="#DDDBD4"/>
<path d="M35.669 29.1638H34.0049V30.8279H35.669V29.1638Z" fill="#DDDBD4"/>
<path d="M35.669 27.4988H34.0049V29.1633H35.669V27.4988Z" fill="#DDDBD4"/>
<path d="M35.669 25.835H34.0049V27.4991H35.669V25.835Z" fill="#DDDBD4"/>
<path d="M35.669 24.1707H34.0049V25.8348H35.669V24.1707Z" fill="#DDDBD4"/>
<path d="M35.669 22.5059H34.0049V24.1704H35.669V22.5059Z" fill="#DDDBD4"/>
<path d="M35.669 20.8418H34.0049V22.5059H35.669V20.8418Z" fill="#DDDBD4"/>
<path d="M35.669 19.1772H34.0049V20.8413H35.669V19.1772Z" fill="#6B0000"/>
<path d="M35.669 17.5132H34.0049V19.1773H35.669V17.5132Z" fill="#BF1313"/>
<path d="M35.669 15.8486H34.0049V17.5131H35.669V15.8486Z" fill="#BF1313"/>
<path d="M35.669 14.1841H34.0049V15.8482H35.669V14.1841Z" fill="black"/>
<path d="M35.669 7.5271H34.0049V9.1912H35.669V7.5271Z" fill="black"/>
<path d="M35.669 5.86206H34.0049V7.52656H35.669V5.86206Z" fill="black"/>
<path d="M34.0049 47.4717H32.3408V49.1358H34.0049V47.4717Z" fill="black"/>
<path d="M34.0049 45.8076H32.3408V47.4717H34.0049V45.8076Z" fill="#BF1313"/>
<path d="M34.0049 44.1428H32.3408V45.8073H34.0049V44.1428Z" fill="#6B0000"/>
<path d="M34.0049 42.4788H32.3408V44.1429H34.0049V42.4788Z" fill="#DDDBD4"/>
<path d="M34.0049 40.8142H32.3408V42.4783H34.0049V40.8142Z" fill="#DDDBD4"/>
<path d="M34.0049 39.1497H32.3408V40.8142H34.0049V39.1497Z" fill="#DDDBD4"/>
<path d="M34.0049 37.4856H32.3408V39.1497H34.0049V37.4856Z" fill="#DDDBD4"/>
<path d="M34.0049 35.821H32.3408V37.4851H34.0049V35.821Z" fill="#DDDBD4"/>
<path d="M34.0049 34.157H32.3408V35.8211H34.0049V34.157Z" fill="#DDDBD4"/>
<path d="M34.0049 32.4924H32.3408V34.1569H34.0049V32.4924Z" fill="#DDDBD4"/>
<path d="M34.0049 30.8279H32.3408V32.492H34.0049V30.8279Z" fill="#DDDBD4"/>
<path d="M34.0049 29.1638H32.3408V30.8279H34.0049V29.1638Z" fill="#DDDBD4"/>
<path d="M34.0049 27.4988H32.3408V29.1633H34.0049V27.4988Z" fill="#DDDBD4"/>
<path d="M34.0049 25.835H32.3408V27.4991H34.0049V25.835Z" fill="#DDDBD4"/>
<path d="M34.0049 24.1707H32.3408V25.8348H34.0049V24.1707Z" fill="#DDDBD4"/>
<path d="M34.0049 22.5059H32.3408V24.1704H34.0049V22.5059Z" fill="#DDDBD4"/>
<path d="M34.0049 20.8418H32.3408V22.5059H34.0049V20.8418Z" fill="#DDDBD4"/>
<path d="M34.0049 19.1772H32.3408V20.8413H34.0049V19.1772Z" fill="#FFFCEE"/>
<path d="M34.0049 17.5132H32.3408V19.1773H34.0049V17.5132Z" fill="#6B0000"/>
<path d="M34.0049 15.8486H32.3408V17.5131H34.0049V15.8486Z" fill="#BF1313"/>
<path d="M34.0049 14.1841H32.3408V15.8482H34.0049V14.1841Z" fill="black"/>
<path d="M34.0049 9.19092H32.3408V10.855H34.0049V9.19092Z" fill="black"/>
<path d="M34.0049 7.5271H32.3408V9.1912H34.0049V7.5271Z" fill="#EAC800"/>
<path d="M34.0049 5.86206H32.3408V7.52656H34.0049V5.86206Z" fill="#EAC800"/>
<path d="M34.0049 4.198H32.3408V5.8621H34.0049V4.198Z" fill="black"/>
<path d="M32.3413 49.1362H30.6768V50.8007H32.3413V49.1362Z" fill="black"/>
<path d="M32.3413 47.4717H30.6768V49.1358H32.3413V47.4717Z" fill="#BF1313"/>
<path d="M32.3413 45.8076H30.6768V47.4717H32.3413V45.8076Z" fill="#BF1313"/>
<path d="M32.3413 44.1428H30.6768V45.8073H32.3413V44.1428Z" fill="#6B0000"/>
<path d="M32.3413 42.4788H30.6768V44.1429H32.3413V42.4788Z" fill="#DDDBD4"/>
<path d="M32.3413 40.8142H30.6768V42.4783H32.3413V40.8142Z" fill="#DDDBD4"/>
<path d="M32.3413 39.1497H30.6768V40.8142H32.3413V39.1497Z" fill="#DDDBD4"/>
<path d="M32.3413 37.4856H30.6768V39.1497H32.3413V37.4856Z" fill="#DDDBD4"/>
<path d="M32.3413 35.821H30.6768V37.4851H32.3413V35.821Z" fill="#DDDBD4"/>
<path d="M32.3413 34.157H30.6768V35.8211H32.3413V34.157Z" fill="#DDDBD4"/>
<path d="M32.3413 32.4924H30.6768V34.1569H32.3413V32.4924Z" fill="#DDDBD4"/>
<path d="M32.3413 30.8279H30.6768V32.492H32.3413V30.8279Z" fill="#DDDBD4"/>
<path d="M32.3413 29.1638H30.6768V30.8279H32.3413V29.1638Z" fill="#DDDBD4"/>
<path d="M32.3413 27.4988H30.6768V29.1633H32.3413V27.4988Z" fill="#DDDBD4"/>
<path d="M32.3413 25.835H30.6768V27.4991H32.3413V25.835Z" fill="#DDDBD4"/>
<path d="M32.3413 24.1707H30.6768V25.8348H32.3413V24.1707Z" fill="#DDDBD4"/>
<path d="M32.3413 22.5059H30.6768V24.1704H32.3413V22.5059Z" fill="#FFFCEE"/>
<path d="M32.3413 20.8418H30.6768V22.5059H32.3413V20.8418Z" fill="#FFFCEE"/>
<path d="M32.3413 19.1772H30.6768V20.8413H32.3413V19.1772Z" fill="#FFFCEE"/>
<path d="M32.3413 17.5132H30.6768V19.1773H32.3413V17.5132Z" fill="#6B0000"/>
<path d="M32.3413 15.8486H30.6768V17.5131H32.3413V15.8486Z" fill="#BF1313"/>
<path d="M32.3413 14.1841H30.6768V15.8482H32.3413V14.1841Z" fill="#BF1313"/>
<path d="M32.3413 12.52H30.6768V14.1841H32.3413V12.52Z" fill="black"/>
<path d="M32.3413 9.19092H30.6768V10.855H32.3413V9.19092Z" fill="black"/>
<path d="M32.3413 7.5271H30.6768V9.1912H32.3413V7.5271Z" fill="#EAC800"/>
<path d="M32.3413 5.86206H30.6768V7.52656H32.3413V5.86206Z" fill="#EAC800"/>
<path d="M32.3413 4.198H30.6768V5.8621H32.3413V4.198Z" fill="black"/>
<path d="M30.6758 49.1362H29.0117V50.8007H30.6758V49.1362Z" fill="black"/>
<path d="M30.6758 47.4717H29.0117V49.1358H30.6758V47.4717Z" fill="#BF1313"/>
<path d="M30.6758 45.8076H29.0117V47.4717H30.6758V45.8076Z" fill="#6B0000"/>
<path d="M30.6758 44.1428H29.0117V45.8073H30.6758V44.1428Z" fill="#DDDBD4"/>
<path d="M30.6758 42.4788H29.0117V44.1429H30.6758V42.4788Z" fill="#DDDBD4"/>
<path d="M30.6758 40.8142H29.0117V42.4783H30.6758V40.8142Z" fill="#DDDBD4"/>
<path d="M30.6758 39.1497H29.0117V40.8142H30.6758V39.1497Z" fill="#DDDBD4"/>
<path d="M30.6758 37.4856H29.0117V39.1497H30.6758V37.4856Z" fill="#DDDBD4"/>
<path d="M30.6758 35.821H29.0117V37.4851H30.6758V35.821Z" fill="#DDDBD4"/>
<path d="M30.6758 34.157H29.0117V35.8211H30.6758V34.157Z" fill="#DDDBD4"/>
<path d="M30.6758 32.4924H29.0117V34.1569H30.6758V32.4924Z" fill="#DDDBD4"/>
<path d="M30.6758 30.8279H29.0117V32.492H30.6758V30.8279Z" fill="#DDDBD4"/>
<path d="M30.6758 29.1638H29.0117V30.8279H30.6758V29.1638Z" fill="#DDDBD4"/>
<path d="M30.6758 27.4988H29.0117V29.1633H30.6758V27.4988Z" fill="#DDDBD4"/>
<path d="M30.6758 25.835H29.0117V27.4991H30.6758V25.835Z" fill="#DDDBD4"/>
<path d="M30.6758 24.1707H29.0117V25.8348H30.6758V24.1707Z" fill="#FFFCEE"/>
<path d="M30.6758 22.5059H29.0117V24.1704H30.6758V22.5059Z" fill="#FFFCEE"/>
<path d="M30.6758 20.8418H29.0117V22.5059H30.6758V20.8418Z" fill="#FFFCEE"/>
<path d="M30.6758 19.1772H29.0117V20.8413H30.6758V19.1772Z" fill="#FFFCEE"/>
<path d="M30.6758 17.5132H29.0117V19.1773H30.6758V17.5132Z" fill="#FFFCEE"/>
<path d="M30.6758 15.8486H29.0117V17.5131H30.6758V15.8486Z" fill="#6B0000"/>
<path d="M30.6758 14.1841H29.0117V15.8482H30.6758V14.1841Z" fill="#BF1313"/>
<path d="M30.6758 12.52H29.0117V14.1841H30.6758V12.52Z" fill="black"/>
<path d="M30.6758 10.8555H29.0117V12.52H30.6758V10.8555Z" fill="black"/>
<path d="M30.6758 9.19092H29.0117V10.855H30.6758V9.19092Z" fill="#BC5E00"/>
<path d="M30.6758 7.5271H29.0117V9.1912H30.6758V7.5271Z" fill="#EAC800"/>
<path d="M30.6758 5.86206H29.0117V7.52656H30.6758V5.86206Z" fill="#EAC800"/>
<path d="M30.6758 4.198H29.0117V5.8621H30.6758V4.198Z" fill="black"/>
<path d="M29.0118 49.1362H27.3477V50.8007H29.0118V49.1362Z" fill="black"/>
<path d="M29.0118 47.4717H27.3477V49.1358H29.0118V47.4717Z" fill="#BF1313"/>
<path d="M29.0118 45.8076H27.3477V47.4717H29.0118V45.8076Z" fill="#6B0000"/>
<path d="M29.0118 44.1428H27.3477V45.8073H29.0118V44.1428Z" fill="#DDDBD4"/>
<path d="M29.0118 42.4788H27.3477V44.1429H29.0118V42.4788Z" fill="black"/>
<path d="M29.0118 40.8142H27.3477V42.4783H29.0118V40.8142Z" fill="#DDDBD4"/>
<path d="M29.0118 39.1497H27.3477V40.8142H29.0118V39.1497Z" fill="#DDDBD4"/>
<path d="M29.0118 37.4856H27.3477V39.1497H29.0118V37.4856Z" fill="#DDDBD4"/>
<path d="M29.0118 35.821H27.3477V37.4851H29.0118V35.821Z" fill="#DDDBD4"/>
<path d="M29.0118 34.157H27.3477V35.8211H29.0118V34.157Z" fill="#DDDBD4"/>
<path d="M29.0118 32.4924H27.3477V34.1569H29.0118V32.4924Z" fill="#DDDBD4"/>
<path d="M29.0118 30.8279H27.3477V32.492H29.0118V30.8279Z" fill="black"/>
<path d="M29.0118 29.1638H27.3477V30.8279H29.0118V29.1638Z" fill="black"/>
<path d="M29.0118 27.4988H27.3477V29.1633H29.0118V27.4988Z" fill="black"/>
<path d="M29.0118 25.835H27.3477V27.4991H29.0118V25.835Z" fill="black"/>
<path d="M29.0118 24.1707H27.3477V25.8348H29.0118V24.1707Z" fill="black"/>
<path d="M29.0118 22.5059H27.3477V24.1704H29.0118V22.5059Z" fill="#FFFCEE"/>
<path d="M29.0118 20.8418H27.3477V22.5059H29.0118V20.8418Z" fill="#FFFCEE"/>
<path d="M29.0118 19.1772H27.3477V20.8413H29.0118V19.1772Z" fill="black"/>
<path d="M29.0118 17.5132H27.3477V19.1773H29.0118V17.5132Z" fill="#FFFCEE"/>
<path d="M29.0118 15.8486H27.3477V17.5131H29.0118V15.8486Z" fill="#6B0000"/>
<path d="M29.0118 14.1841H27.3477V15.8482H29.0118V14.1841Z" fill="#BF1313"/>
<path d="M29.0118 12.52H27.3477V14.1841H29.0118V12.52Z" fill="black"/>
<path d="M29.0118 10.8555H27.3477V12.52H29.0118V10.8555Z" fill="#EAC800"/>
<path d="M29.0118 9.19092H27.3477V10.855H29.0118V9.19092Z" fill="#BC5E00"/>
<path d="M29.0118 7.5271H27.3477V9.1912H29.0118V7.5271Z" fill="#EAC800"/>
<path d="M29.0118 5.86206H27.3477V7.52656H29.0118V5.86206Z" fill="#EAC800"/>
<path d="M29.0118 4.198H27.3477V5.8621H29.0118V4.198Z" fill="black"/>
<path d="M27.3467 49.1362H25.6826V50.8007H27.3467V49.1362Z" fill="black"/>
<path d="M27.3467 47.4717H25.6826V49.1358H27.3467V47.4717Z" fill="#BF1313"/>
<path d="M27.3467 45.8076H25.6826V47.4717H27.3467V45.8076Z" fill="#6B0000"/>
<path d="M27.3467 44.1428H25.6826V45.8073H27.3467V44.1428Z" fill="#DDDBD4"/>
<path d="M27.3467 42.4788H25.6826V44.1429H27.3467V42.4788Z" fill="#DDDBD4"/>
<path d="M27.3467 40.8142H25.6826V42.4783H27.3467V40.8142Z" fill="#DDDBD4"/>
<path d="M27.3467 39.1497H25.6826V40.8142H27.3467V39.1497Z" fill="#DDDBD4"/>
<path d="M27.3467 37.4856H25.6826V39.1497H27.3467V37.4856Z" fill="#DDDBD4"/>
<path d="M27.3467 35.821H25.6826V37.4851H27.3467V35.821Z" fill="#DDDBD4"/>
<path d="M27.3467 34.157H25.6826V35.8211H27.3467V34.157Z" fill="#DDDBD4"/>
<path d="M27.3467 32.4924H25.6826V34.1569H27.3467V32.4924Z" fill="#DDDBD4"/>
<path d="M27.3467 30.8279H25.6826V32.492H27.3467V30.8279Z" fill="black"/>
<path d="M27.3467 29.1638H25.6826V30.8279H27.3467V29.1638Z" fill="#FFFCEE"/>
<path d="M27.3467 27.4988H25.6826V29.1633H27.3467V27.4988Z" fill="#FFFCEE"/>
<path d="M27.3467 25.835H25.6826V27.4991H27.3467V25.835Z" fill="#FFFCEE"/>
<path d="M27.3467 24.1707H25.6826V25.8348H27.3467V24.1707Z" fill="#FFFCEE"/>
<path d="M27.3467 22.5059H25.6826V24.1704H27.3467V22.5059Z" fill="#FFFCEE"/>
<path d="M27.3467 20.8418H25.6826V22.5059H27.3467V20.8418Z" fill="#FFFCEE"/>
<path d="M27.3467 19.1772H25.6826V20.8413H27.3467V19.1772Z" fill="#FFFCEE"/>
<path d="M27.3467 17.5132H25.6826V19.1773H27.3467V17.5132Z" fill="#FFFCEE"/>
<path d="M27.3467 15.8486H25.6826V17.5131H27.3467V15.8486Z" fill="#6B0000"/>
<path d="M27.3467 14.1841H25.6826V15.8482H27.3467V14.1841Z" fill="#BF1313"/>
<path d="M27.3467 12.52H25.6826V14.1841H27.3467V12.52Z" fill="black"/>
<path d="M27.3467 10.8555H25.6826V12.52H27.3467V10.8555Z" fill="#EAC800"/>
<path d="M27.3467 9.19092H25.6826V10.855H27.3467V9.19092Z" fill="#BC5E00"/>
<path d="M27.3467 7.5271H25.6826V9.1912H27.3467V7.5271Z" fill="#F98200"/>
<path d="M27.3467 5.86206H25.6826V7.52656H27.3467V5.86206Z" fill="#EAC800"/>
<path d="M27.3467 4.198H25.6826V5.8621H27.3467V4.198Z" fill="black"/>
<path d="M25.6831 49.1362H24.0186V50.8007H25.6831V49.1362Z" fill="black"/>
<path d="M25.6831 47.4717H24.0186V49.1358H25.6831V47.4717Z" fill="#BF1313"/>
<path d="M25.6831 45.8076H24.0186V47.4717H25.6831V45.8076Z" fill="#6B0000"/>
<path d="M25.6831 44.1428H24.0186V45.8073H25.6831V44.1428Z" fill="#DDDBD4"/>
<path d="M25.6831 42.4788H24.0186V44.1429H25.6831V42.4788Z" fill="#DDDBD4"/>
<path d="M25.6831 40.8142H24.0186V42.4783H25.6831V40.8142Z" fill="#DDDBD4"/>
<path d="M25.6831 39.1497H24.0186V40.8142H25.6831V39.1497Z" fill="#DDDBD4"/>
<path d="M25.6831 37.4856H24.0186V39.1497H25.6831V37.4856Z" fill="#DDDBD4"/>
<path d="M25.6831 35.821H24.0186V37.4851H25.6831V35.821Z" fill="#DDDBD4"/>
<path d="M25.6831 34.157H24.0186V35.8211H25.6831V34.157Z" fill="#DDDBD4"/>
<path d="M25.6831 32.4924H24.0186V34.1569H25.6831V32.4924Z" fill="#FFFCEE"/>
<path d="M25.6831 30.8279H24.0186V32.492H25.6831V30.8279Z" fill="#FFFCEE"/>
<path d="M25.6831 29.1638H24.0186V30.8279H25.6831V29.1638Z" fill="#FFFCEE"/>
<path d="M25.6831 27.4988H24.0186V29.1633H25.6831V27.4988Z" fill="#FFFCEE"/>
<path d="M25.6831 25.835H24.0186V27.4991H25.6831V25.835Z" fill="#FFFCEE"/>
<path d="M25.6831 24.1707H24.0186V25.8348H25.6831V24.1707Z" fill="#FFFCEE"/>
<path d="M25.6831 22.5059H24.0186V24.1704H25.6831V22.5059Z" fill="#FFFCEE"/>
<path d="M25.6831 20.8418H24.0186V22.5059H25.6831V20.8418Z" fill="#FFFCEE"/>
<path d="M25.6831 19.1772H24.0186V20.8413H25.6831V19.1772Z" fill="#FFFCEE"/>
<path d="M25.6831 17.5132H24.0186V19.1773H25.6831V17.5132Z" fill="#FFFCEE"/>
<path d="M25.6831 15.8486H24.0186V17.5131H25.6831V15.8486Z" fill="#6B0000"/>
<path d="M25.6831 14.1841H24.0186V15.8482H25.6831V14.1841Z" fill="#BF1313"/>
<path d="M25.6831 12.52H24.0186V14.1841H25.6831V12.52Z" fill="black"/>
<path d="M25.6831 10.8555H24.0186V12.52H25.6831V10.8555Z" fill="black"/>
<path d="M25.6831 9.19092H24.0186V10.855H25.6831V9.19092Z" fill="#BC5E00"/>
<path d="M25.6831 7.5271H24.0186V9.1912H25.6831V7.5271Z" fill="#F98200"/>
<path d="M25.6831 5.86206H24.0186V7.52656H25.6831V5.86206Z" fill="#EAC800"/>
<path d="M25.6831 4.198H24.0186V5.8621H25.6831V4.198Z" fill="black"/>
<path d="M24.0186 49.1362H22.3545V50.8007H24.0186V49.1362Z" fill="black"/>
<path d="M24.0186 47.4717H22.3545V49.1358H24.0186V47.4717Z" fill="#960C0C"/>
<path d="M24.0186 45.8076H22.3545V47.4717H24.0186V45.8076Z" fill="#960C0C"/>
<path d="M24.0186 44.1428H22.3545V45.8073H24.0186V44.1428Z" fill="#6B0000"/>
<path d="M24.0186 42.4788H22.3545V44.1429H24.0186V42.4788Z" fill="#DDDBD4"/>
<path d="M24.0186 40.8142H22.3545V42.4783H24.0186V40.8142Z" fill="#DDDBD4"/>
<path d="M24.0186 39.1497H22.3545V40.8142H24.0186V39.1497Z" fill="#DDDBD4"/>
<path d="M24.0186 37.4856H22.3545V39.1497H24.0186V37.4856Z" fill="#DDDBD4"/>
<path d="M24.0186 35.821H22.3545V37.4851H24.0186V35.821Z" fill="#FFFCEE"/>
<path d="M24.0186 34.157H22.3545V35.8211H24.0186V34.157Z" fill="#FFFCEE"/>
<path d="M24.0186 32.4924H22.3545V34.1569H24.0186V32.4924Z" fill="#FFFCEE"/>
<path d="M24.0186 30.8279H22.3545V32.492H24.0186V30.8279Z" fill="#FFFCEE"/>
<path d="M24.0186 29.1638H22.3545V30.8279H24.0186V29.1638Z" fill="#FFFCEE"/>
<path d="M24.0186 27.4988H22.3545V29.1633H24.0186V27.4988Z" fill="#FFFCEE"/>
<path d="M24.0186 25.835H22.3545V27.4991H24.0186V25.835Z" fill="#FFFCEE"/>
<path d="M24.0186 24.1707H22.3545V25.8348H24.0186V24.1707Z" fill="#FFFCEE"/>
<path d="M24.0186 22.5059H22.3545V24.1704H24.0186V22.5059Z" fill="#FFFCEE"/>
<path d="M24.0186 20.8418H22.3545V22.5059H24.0186V20.8418Z" fill="#FFFCEE"/>
<path d="M24.0186 19.1772H22.3545V20.8413H24.0186V19.1772Z" fill="#FFFCEE"/>
<path d="M24.0186 17.5132H22.3545V19.1773H24.0186V17.5132Z" fill="#6B0000"/>
<path d="M24.0186 15.8486H22.3545V17.5131H24.0186V15.8486Z" fill="#960C0C"/>
<path d="M24.0186 14.1841H22.3545V15.8482H24.0186V14.1841Z" fill="#960C0C"/>
<path d="M24.0186 12.52H22.3545V14.1841H24.0186V12.52Z" fill="black"/>
<path d="M24.0186 9.19092H22.3545V10.855H24.0186V9.19092Z" fill="black"/>
<path d="M24.0186 7.5271H22.3545V9.1912H24.0186V7.5271Z" fill="#F98200"/>
<path d="M24.0186 5.86206H22.3545V7.52656H24.0186V5.86206Z" fill="#EAC800"/>
<path d="M24.0186 4.198H22.3545V5.8621H24.0186V4.198Z" fill="black"/>
<path d="M22.3545 47.4717H20.6904V49.1358H22.3545V47.4717Z" fill="black"/>
<path d="M22.3545 45.8076H20.6904V47.4717H22.3545V45.8076Z" fill="#960C0C"/>
<path d="M22.3545 44.1428H20.6904V45.8073H22.3545V44.1428Z" fill="#6B0000"/>
<path d="M22.3545 42.4788H20.6904V44.1429H22.3545V42.4788Z" fill="#DDDBD4"/>
<path d="M22.3545 40.8142H20.6904V42.4783H22.3545V40.8142Z" fill="#DDDBD4"/>
<path d="M22.3545 39.1497H20.6904V40.8142H22.3545V39.1497Z" fill="#DDDBD4"/>
<path d="M22.3545 37.4856H20.6904V39.1497H22.3545V37.4856Z" fill="#DDDBD4"/>
<path d="M22.3545 35.821H20.6904V37.4851H22.3545V35.821Z" fill="#FFFCEE"/>
<path d="M22.3545 34.157H20.6904V35.8211H22.3545V34.157Z" fill="#FFFCEE"/>
<path d="M22.3545 32.4924H20.6904V34.1569H22.3545V32.4924Z" fill="#FFFCEE"/>
<path d="M22.3545 30.8279H20.6904V32.492H22.3545V30.8279Z" fill="#FFFCEE"/>
<path d="M22.3545 29.1638H20.6904V30.8279H22.3545V29.1638Z" fill="#FFFCEE"/>
<path d="M22.3545 27.4988H20.6904V29.1633H22.3545V27.4988Z" fill="#FFFCEE"/>
<path d="M22.3545 25.835H20.6904V27.4991H22.3545V25.835Z" fill="#FFFCEE"/>
<path d="M22.3545 24.1707H20.6904V25.8348H22.3545V24.1707Z" fill="#FFFCEE"/>
<path d="M22.3545 22.5059H20.6904V24.1704H22.3545V22.5059Z" fill="#FFFCEE"/>
<path d="M22.3545 20.8418H20.6904V22.5059H22.3545V20.8418Z" fill="#FFFCEE"/>
<path d="M22.3545 19.1772H20.6904V20.8413H22.3545V19.1772Z" fill="#FFFCEE"/>
<path d="M22.3545 17.5132H20.6904V19.1773H22.3545V17.5132Z" fill="#6B0000"/>
<path d="M22.3545 15.8486H20.6904V17.5131H22.3545V15.8486Z" fill="#960C0C"/>
<path d="M22.3545 14.1841H20.6904V15.8482H22.3545V14.1841Z" fill="black"/>
<path d="M22.3545 9.19092H20.6904V10.855H22.3545V9.19092Z" fill="black"/>
<path d="M22.3545 7.5271H20.6904V9.1912H22.3545V7.5271Z" fill="#F98200"/>
<path d="M22.3545 5.86206H20.6904V7.52656H22.3545V5.86206Z" fill="#F98200"/>
<path d="M22.3545 4.198H20.6904V5.8621H22.3545V4.198Z" fill="black"/>
<path d="M20.6899 47.4717H19.0254V49.1358H20.6899V47.4717Z" fill="black"/>
<path d="M20.6899 45.8076H19.0254V47.4717H20.6899V45.8076Z" fill="#960C0C"/>
<path d="M20.6899 44.1428H19.0254V45.8073H20.6899V44.1428Z" fill="#960C0C"/>
<path d="M20.6899 42.4788H19.0254V44.1429H20.6899V42.4788Z" fill="#6B0000"/>
<path d="M20.6899 40.8142H19.0254V42.4783H20.6899V40.8142Z" fill="#DDDBD4"/>
<path d="M20.6899 39.1497H19.0254V40.8142H20.6899V39.1497Z" fill="#DDDBD4"/>
<path d="M20.6899 37.4856H19.0254V39.1497H20.6899V37.4856Z" fill="#FFFCEE"/>
<path d="M20.6899 35.821H19.0254V37.4851H20.6899V35.821Z" fill="#FFFCEE"/>
<path d="M20.6899 34.157H19.0254V35.8211H20.6899V34.157Z" fill="#FFFCEE"/>
<path d="M20.6899 32.4924H19.0254V34.1569H20.6899V32.4924Z" fill="#FFFCEE"/>
<path d="M20.6899 30.8279H19.0254V32.492H20.6899V30.8279Z" fill="#FFFCEE"/>
<path d="M20.6899 29.1638H19.0254V30.8279H20.6899V29.1638Z" fill="#FFFCEE"/>
<path d="M20.6899 27.4988H19.0254V29.1633H20.6899V27.4988Z" fill="#FFFCEE"/>
<path d="M20.6899 25.835H19.0254V27.4991H20.6899V25.835Z" fill="#FFFCEE"/>
<path d="M20.6899 24.1707H19.0254V25.8348H20.6899V24.1707Z" fill="#FFFCEE"/>
<path d="M20.6899 22.5059H19.0254V24.1704H20.6899V22.5059Z" fill="#FFFCEE"/>
<path d="M20.6899 20.8418H19.0254V22.5059H20.6899V20.8418Z" fill="#FFFCEE"/>
<path d="M20.6899 19.1772H19.0254V20.8413H20.6899V19.1772Z" fill="#6B0000"/>
<path d="M20.6899 17.5132H19.0254V19.1773H20.6899V17.5132Z" fill="#960C0C"/>
<path d="M20.6899 15.8486H19.0254V17.5131H20.6899V15.8486Z" fill="#960C0C"/>
<path d="M20.6899 14.1841H19.0254V15.8482H20.6899V14.1841Z" fill="black"/>
<path d="M20.6899 7.5271H19.0254V9.1912H20.6899V7.5271Z" fill="black"/>
<path d="M20.6899 5.86206H19.0254V7.52656H20.6899V5.86206Z" fill="black"/>
<path d="M19.0254 45.8076H17.3613V47.4717H19.0254V45.8076Z" fill="black"/>
<path d="M19.0254 44.1428H17.3613V45.8073H19.0254V44.1428Z" fill="#960C0C"/>
<path d="M19.0254 42.4788H17.3613V44.1429H19.0254V42.4788Z" fill="#6B0000"/>
<path d="M19.0254 40.8142H17.3613V42.4783H19.0254V40.8142Z" fill="#DDDBD4"/>
<path d="M19.0254 39.1497H17.3613V40.8142H19.0254V39.1497Z" fill="#FFFCEE"/>
<path d="M19.0254 37.4856H17.3613V39.1497H19.0254V37.4856Z" fill="#FFFCEE"/>
<path d="M19.0254 35.821H17.3613V37.4851H19.0254V35.821Z" fill="#FFFCEE"/>
<path d="M19.0254 34.157H17.3613V35.8211H19.0254V34.157Z" fill="#FFFCEE"/>
<path d="M19.0254 32.4924H17.3613V34.1569H19.0254V32.4924Z" fill="#FFFCEE"/>
<path d="M19.0254 30.8279H17.3613V32.492H19.0254V30.8279Z" fill="#FFFCEE"/>
<path d="M19.0254 29.1638H17.3613V30.8279H19.0254V29.1638Z" fill="#FFFCEE"/>
<path d="M19.0254 27.4988H17.3613V29.1633H19.0254V27.4988Z" fill="#FFFCEE"/>
<path d="M19.0254 25.835H17.3613V27.4991H19.0254V25.835Z" fill="#FFFCEE"/>
<path d="M19.0254 24.1707H17.3613V25.8348H19.0254V24.1707Z" fill="#FFFCEE"/>
<path d="M19.0254 22.5059H17.3613V24.1704H19.0254V22.5059Z" fill="#FFFCEE"/>
<path d="M19.0254 20.8418H17.3613V22.5059H19.0254V20.8418Z" fill="#FFFCEE"/>
<path d="M19.0254 19.1772H17.3613V20.8413H19.0254V19.1772Z" fill="#6B0000"/>
<path d="M19.0254 17.5132H17.3613V19.1773H19.0254V17.5132Z" fill="#960C0C"/>
<path d="M19.0254 15.8486H17.3613V17.5131H19.0254V15.8486Z" fill="black"/>
<path d="M17.3614 45.8076H15.6973V47.4717H17.3614V45.8076Z" fill="black"/>
<path d="M17.3614 44.1428H15.6973V45.8073H17.3614V44.1428Z" fill="#960C0C"/>
<path d="M17.3614 42.4788H15.6973V44.1429H17.3614V42.4788Z" fill="#960C0C"/>
<path d="M17.3614 40.8142H15.6973V42.4783H17.3614V40.8142Z" fill="#6B0000"/>
<path d="M17.3614 39.1497H15.6973V40.8142H17.3614V39.1497Z" fill="#FFFCEE"/>
<path d="M17.3614 37.4856H15.6973V39.1497H17.3614V37.4856Z" fill="#FFFCEE"/>
<path d="M17.3614 35.821H15.6973V37.4851H17.3614V35.821Z" fill="#FFFCEE"/>
<path d="M17.3614 34.157H15.6973V35.8211H17.3614V34.157Z" fill="#FFFCEE"/>
<path d="M17.3614 32.4924H15.6973V34.1569H17.3614V32.4924Z" fill="#FFFCEE"/>
<path d="M17.3614 30.8279H15.6973V32.492H17.3614V30.8279Z" fill="black"/>
<path d="M17.3614 29.1638H15.6973V30.8279H17.3614V29.1638Z" fill="#FFFCEE"/>
<path d="M17.3614 27.4988H15.6973V29.1633H17.3614V27.4988Z" fill="#FFFCEE"/>
<path d="M17.3614 25.835H15.6973V27.4991H17.3614V25.835Z" fill="#FFFCEE"/>
<path d="M17.3614 24.1707H15.6973V25.8348H17.3614V24.1707Z" fill="#FFFCEE"/>
<path d="M17.3614 22.5059H15.6973V24.1704H17.3614V22.5059Z" fill="#FFFCEE"/>
<path d="M17.3614 20.8418H15.6973V22.5059H17.3614V20.8418Z" fill="#6B0000"/>
<path d="M17.3614 19.1772H15.6973V20.8413H17.3614V19.1772Z" fill="#960C0C"/>
<path d="M17.3614 17.5132H15.6973V19.1773H17.3614V17.5132Z" fill="#960C0C"/>
<path d="M17.3614 15.8486H15.6973V17.5131H17.3614V15.8486Z" fill="black"/>
<path d="M15.6967 44.1428H14.0322V45.8073H15.6967V44.1428Z" fill="black"/>
<path d="M15.6967 42.4788H14.0322V44.1429H15.6967V42.4788Z" fill="#960C0C"/>
<path d="M15.6967 40.8142H14.0322V42.4783H15.6967V40.8142Z" fill="#960C0C"/>
<path d="M15.6967 39.1497H14.0322V40.8142H15.6967V39.1497Z" fill="#6B0000"/>
<path d="M15.6967 37.4856H14.0322V39.1497H15.6967V37.4856Z" fill="#6B0000"/>
<path d="M15.6967 35.821H14.0322V37.4851H15.6967V35.821Z" fill="#FFFCEE"/>
<path d="M15.6967 34.157H14.0322V35.8211H15.6967V34.157Z" fill="#FFFCEE"/>
<path d="M15.6967 32.4924H14.0322V34.1569H15.6967V32.4924Z" fill="#FFFCEE"/>
<path d="M15.6967 30.8279H14.0322V32.492H15.6967V30.8279Z" fill="#FFFCEE"/>
<path d="M15.6967 29.1638H14.0322V30.8279H15.6967V29.1638Z" fill="#FFFCEE"/>
<path d="M15.6967 27.4988H14.0322V29.1633H15.6967V27.4988Z" fill="#FFFCEE"/>
<path d="M15.6967 25.835H14.0322V27.4991H15.6967V25.835Z" fill="#FFFCEE"/>
<path d="M15.6967 24.1707H14.0322V25.8348H15.6967V24.1707Z" fill="#6B0000"/>
<path d="M15.6967 22.5059H14.0322V24.1704H15.6967V22.5059Z" fill="#6B0000"/>
<path d="M15.6967 20.8418H14.0322V22.5059H15.6967V20.8418Z" fill="#960C0C"/>
<path d="M15.6967 19.1772H14.0322V20.8413H15.6967V19.1772Z" fill="#960C0C"/>
<path d="M15.6967 17.5132H14.0322V19.1773H15.6967V17.5132Z" fill="black"/>
<path d="M14.0323 42.4788H12.3682V44.1429H14.0323V42.4788Z" fill="black"/>
<path d="M14.0323 40.8142H12.3682V42.4783H14.0323V40.8142Z" fill="#960C0C"/>
<path d="M14.0323 39.1497H12.3682V40.8142H14.0323V39.1497Z" fill="#960C0C"/>
<path d="M14.0323 37.4856H12.3682V39.1497H14.0323V37.4856Z" fill="#960C0C"/>
<path d="M14.0323 35.821H12.3682V37.4851H14.0323V35.821Z" fill="#6B0000"/>
<path d="M14.0323 34.157H12.3682V35.8211H14.0323V34.157Z" fill="#6B0000"/>
<path d="M14.0323 32.4924H12.3682V34.1569H14.0323V32.4924Z" fill="#FFFCEE"/>
<path d="M14.0323 30.8279H12.3682V32.492H14.0323V30.8279Z" fill="#FFFCEE"/>
<path d="M14.0323 29.1638H12.3682V30.8279H14.0323V29.1638Z" fill="#FFFCEE"/>
<path d="M14.0323 27.4988H12.3682V29.1633H14.0323V27.4988Z" fill="#6B0000"/>
<path d="M14.0323 25.835H12.3682V27.4991H14.0323V25.835Z" fill="#6B0000"/>
<path d="M14.0323 24.1707H12.3682V25.8348H14.0323V24.1707Z" fill="#960C0C"/>
<path d="M14.0323 22.5059H12.3682V24.1704H14.0323V22.5059Z" fill="#960C0C"/>
<path d="M14.0323 20.8418H12.3682V22.5059H14.0323V20.8418Z" fill="#960C0C"/>
<path d="M14.0323 19.1772H12.3682V20.8413H14.0323V19.1772Z" fill="black"/>
<path d="M12.3682 40.8142H10.7041V42.4783H12.3682V40.8142Z" fill="black"/>
<path d="M12.3682 39.1497H10.7041V40.8142H12.3682V39.1497Z" fill="black"/>
<path d="M12.3682 37.4856H10.7041V39.1497H12.3682V37.4856Z" fill="#960C0C"/>
<path d="M12.3682 35.821H10.7041V37.4851H12.3682V35.821Z" fill="#960C0C"/>
<path d="M12.3682 34.157H10.7041V35.8211H12.3682V34.157Z" fill="#960C0C"/>
<path d="M12.3682 32.4924H10.7041V34.1569H12.3682V32.4924Z" fill="#6B0000"/>
<path d="M12.3682 30.8279H10.7041V32.492H12.3682V30.8279Z" fill="#6B0000"/>
<path d="M12.3682 29.1638H10.7041V30.8279H12.3682V29.1638Z" fill="#6B0000"/>
<path d="M12.3682 27.4988H10.7041V29.1633H12.3682V27.4988Z" fill="#960C0C"/>
<path d="M12.3682 25.835H10.7041V27.4991H12.3682V25.835Z" fill="#960C0C"/>
<path d="M12.3682 24.1707H10.7041V25.8348H12.3682V24.1707Z" fill="#960C0C"/>
<path d="M12.3682 22.5059H10.7041V24.1704H12.3682V22.5059Z" fill="black"/>
<path d="M12.3682 20.8418H10.7041V22.5059H12.3682V20.8418Z" fill="black"/>
<path d="M10.7041 37.4856H9.04004V39.1497H10.7041V37.4856Z" fill="black"/>
<path d="M10.7041 35.821H9.04004V37.4851H10.7041V35.821Z" fill="black"/>
<path d="M10.7041 34.157H9.04004V35.8211H10.7041V34.157Z" fill="#960C0C"/>
<path d="M10.7041 32.4924H9.04004V34.1569H10.7041V32.4924Z" fill="#960C0C"/>
<path d="M10.7041 30.8279H9.04004V32.492H10.7041V30.8279Z" fill="#960C0C"/>
<path d="M10.7041 29.1638H9.04004V30.8279H10.7041V29.1638Z" fill="#960C0C"/>
<path d="M10.7041 27.4988H9.04004V29.1633H10.7041V27.4988Z" fill="#960C0C"/>
<path d="M10.7041 25.835H9.04004V27.4991H10.7041V25.835Z" fill="black"/>
<path d="M10.7041 24.1707H9.04004V25.8348H10.7041V24.1707Z" fill="black"/>
<path d="M9.0395 34.157H7.375V35.8211H9.0395V34.157Z" fill="black"/>
<path d="M9.0395 32.4924H7.375V34.1569H9.0395V32.4924Z" fill="black"/>
<path d="M9.0395 30.8279H7.375V32.492H9.0395V30.8279Z" fill="black"/>
<path d="M9.0395 29.1638H7.375V30.8279H9.0395V29.1638Z" fill="black"/>
<path d="M9.0395 27.4988H7.375V29.1633H9.0395V27.4988Z" fill="black"/>
</svg>