<svg width="37" height="35" viewBox="0 0 37 35" fill="none" xmlns="http://www.w3.org/2000/svg">
<g clip-path="url(#clip0_309_2)">
<path d="M11.5653 23.1243H13.876L13.876 4.62128H11.5653L11.5653 23.1243Z" fill="#FFD91D"/>
<path d="M13.8759 25.4409H16.1865L16.1865 2.31667H13.8759L13.8759 25.4409Z" fill="#FFD91D"/>
<path d="M18.4972 2.31079H16.1865V25.435H18.4972V2.31079Z" fill="#FFD91D"/>
<path d="M20.8136 2.31079H18.5029V25.435H20.8136V2.31079Z" fill="#FFD91D"/>
<path d="M20.8134 25.4409H23.124L23.124 2.31667H20.8134L20.8134 25.4409Z" fill="#FFD91D"/>
<path d="M23.1298 23.1243H25.4404L25.4404 4.62128H23.1298L23.1298 23.1243Z" fill="#FFD91D"/>
<path d="M9.2548 23.1243H11.5654L11.5654 4.62128H9.2548L9.2548 23.1243Z" fill="#FFD91D"/>
<path d="M25.4355 23.1243H27.7461L27.7461 4.62128H25.4355L25.4355 23.1243Z" fill="#FFD91D"/>
<path d="M6.93839 20.8137H9.24902L9.24902 6.93797H6.93839L6.93839 20.8137Z" fill="#FFD91D"/>
<path d="M30.0626 6.93799H27.752V20.8137H30.0626V6.93799Z" fill="#FFD91D"/>
<path d="M30.0683 18.5029H32.3789V9.25442H30.0683V18.5029Z" fill="#FFD91D"/>
<path d="M20.8134 32.3728H23.124V25.4349H20.8134V32.3728Z" fill="#FFA72E"/>
<path d="M23.1298 30.0623H25.4404V23.1244H23.1298V30.0623Z" fill="#FFA72E"/>
<path d="M25.4355 30.0623H27.7461V23.1244H25.4355V30.0623Z" fill="#FFA72E"/>
<path d="M9.2548 30.0623H11.5654V23.1244H9.2548V30.0623Z" fill="#FFA72E"/>
<path d="M11.5653 30.0623H13.876V23.1244H11.5653V30.0623Z" fill="#FFA72E"/>
<path d="M27.7519 27.7515H30.0625V20.8136H27.7519V27.7515Z" fill="#FFA72E"/>
<path d="M6.93839 27.7515H9.24902V20.8136H6.93839L6.93839 27.7515Z" fill="#FFA72E"/>
<path d="M30.0683 25.4351H32.3789V18.4972H30.0683V25.4351Z" fill="#FFA72E"/>
<path d="M4.62687 25.4351H6.9375L6.9375 18.4972H4.62687L4.62687 25.4351Z" fill="#FFA72E"/>
<path d="M32.373 20.8137H34.6836V16.1865H32.373V20.8137Z" fill="#FFA72E"/>
<path d="M2.31632 20.8137H4.62695L4.62695 16.1865H2.31632L2.31632 20.8137Z" fill="#FFA72E"/>
<path d="M18.497 32.3728H20.8076V25.4349H18.497V32.3728Z" fill="#FFA72E"/>
<path d="M16.1866 25.4409H13.876V32.3788H16.1866V25.4409Z" fill="#FFA72E"/>
<path d="M16.1923 32.3728H18.5029V25.4349H16.1923V32.3728Z" fill="#FFA72E"/>
<path d="M4.62687 18.5029H6.9375L6.9375 9.25442H4.62687L4.62687 18.5029Z" fill="#FFD91D"/>
<path d="M9.25488 2.31656V4.6272H13.8821V2.31656L9.25488 2.31656Z" fill="#07042D"/>
<path d="M6.9375 4.62735V6.93799H9.24813V4.62735H6.9375Z" fill="#07042D"/>
<path d="M11.5586 9.24845V11.5591H13.8692V9.24845H11.5586Z" fill="#F47D25"/>
<path d="M23.124 9.25455V11.5652H25.4347V9.25455H23.124Z" fill="#F47D25"/>
<path d="M23.124 23.1303V25.4409H25.4347V23.1303H23.124Z" fill="#F47D25"/>
<path d="M11.5586 23.1244V25.4351H13.8692V23.1244H11.5586Z" fill="#F47D25"/>
<path d="M9.25488 11.5651V13.8757H11.5655V11.5651H9.25488Z" fill="#F47D25"/>
<path d="M25.4404 11.5651V13.8757H27.7511V11.5651H25.4404Z" fill="#F47D25"/>
<path d="M32.3789 13.8759V16.1865H34.6895V13.8759H32.3789Z" fill="#FFD91D"/>
<path d="M2.31055 13.8817V16.1924H4.62118V13.8817H2.31055Z" fill="#FFD91D"/>
<path d="M25.4404 20.8136V23.1243H27.7511V20.8136H25.4404Z" fill="#F47D25"/>
<path d="M9.24902 20.8195V23.1301H11.5597V20.8195H9.24902Z" fill="#F47D25"/>
<path d="M11.5654 18.5031V20.8137H13.8761V18.5031H11.5654Z" fill="#FFFFC9"/>
<path d="M6.9375 23.1303V25.4409H9.24813V23.1303H6.9375Z" fill="#FFD91D"/>
<path d="M16.1865 20.8136V23.1243H18.4972V20.8136H16.1865Z" fill="#FFFFC9"/>
<path d="M20.8135 16.1923V18.5029H23.1241V16.1923H20.8135Z" fill="#FFFFC9"/>
<path d="M23.124 13.8817V16.1924H25.4347V13.8817H23.124Z" fill="#FFFFC9"/>
<path d="M27.752 9.25455V11.5652H30.0626V9.25455H27.752Z" fill="#FFFFC9"/>
<path d="M13.876 23.1244V25.4351H16.1866V23.1244H13.876Z" fill="#FFFFC9"/>
<path d="M11.5654 25.4408V27.7515H13.8761V25.4408H11.5654Z" fill="#FFD91D"/>
<path d="M9.24902 27.7575V30.0681H11.5597V27.7575H9.24902Z" fill="#FFD91D"/>
<path d="M13.876 16.1923V18.5029H16.1866V16.1923H13.876Z" fill="#FFFFC9"/>
<path d="M16.1865 13.8817V16.1924H18.4972V13.8817H16.1865Z" fill="#FFFFC9"/>
<path d="M18.5029 11.5651V13.8757H20.8136V11.5651H18.5029Z" fill="#FFFFC9"/>
<path d="M20.8135 9.25455V11.5652H23.1241V9.25455H20.8135Z" fill="#FFFFC9"/>
<path d="M23.124 6.94376V9.25439H25.4347V6.94376H23.124Z" fill="#FFFFC9"/>
<path d="M25.4404 4.62735V6.93799H27.7511V4.62735H25.4404Z" fill="#FFFFC9"/>
<path d="M4.62695 6.9379V9.24854H6.93759V6.9379H4.62695Z" fill="#07042D"/>
<path d="M2.31055 9.24849L2.31055 13.8757H4.62118V9.24849H2.31055Z" fill="#07042D"/>
<path d="M13.8701 32.3729V30.0623H9.24288V32.3729H13.8701Z" fill="#07042D"/>
<path d="M23.124 34.6893V32.3787H13.8755V34.6893H23.124Z" fill="#07042D"/>
<path d="M23.124 2.31063V0L13.8755 0V2.31063L23.124 2.31063Z" fill="#07042D"/>
<path d="M23.124 9.24862V6.93799L13.8755 6.93799V9.24862H23.124Z" fill="#F47D25"/>
<path d="M23.124 27.7516V25.4409H13.8755V27.7516H23.124Z" fill="#F47D25"/>
<path d="M9.24902 30.0621V27.7515H6.93839V30.0621H9.24902Z" fill="#07042D"/>
<path d="M6.9375 27.7516V25.4409H4.62687V27.7516H6.9375Z" fill="#07042D"/>
<path d="M4.62109 25.441V20.8137H2.31046L2.31046 25.441H4.62109Z" fill="#07042D"/>
<path d="M0 13.8758L0 20.8137H2.31063L2.31063 13.8758H0Z" fill="#07042D"/>
<path d="M6.9375 13.8758V20.8137H9.24813V13.8758H6.9375Z" fill="#F47D25"/>
<path d="M27.752 13.8697V20.8076H30.0626V13.8697H27.752Z" fill="#F47D25"/>
<path d="M23.1299 2.31656V4.6272H27.7571V2.31656L23.1299 2.31656Z" fill="#07042D"/>
<path d="M27.752 4.62735V6.93799H30.0626V4.62735H27.752Z" fill="#07042D"/>
<path d="M30.0625 6.9379V9.24854H32.3731V6.9379H30.0625Z" fill="#07042D"/>
<path d="M32.3789 9.24849V13.8757H34.6895V9.24849H32.3789Z" fill="#07042D"/>
<path d="M27.7461 32.3729V30.0623H23.1189V32.3729H27.7461Z" fill="#07042D"/>
<path d="M30.0625 30.0621V27.7515H27.7519V30.0621H30.0625Z" fill="#07042D"/>
<path d="M32.373 27.7457V25.4351H30.0624V27.7457H32.373Z" fill="#07042D"/>
<path d="M34.6836 25.441V20.8137H32.373V25.441H34.6836Z" fill="#07042D"/>
<path d="M34.6895 13.8697V20.8076H37.0001V13.8697H34.6895Z" fill="#07042D"/>
<path d="M9.2548 11.5652H11.5654V9.25455H9.2548V11.5652Z" fill="#FFFFC9"/>
<path d="M11.5653 9.24854H13.876V6.9379H11.5653V9.24854Z" fill="#FFFFC9"/>
<path d="M6.93839 13.8757H9.24902V11.5651H6.93839V13.8757Z" fill="#FFFFC9"/>
</g>
<defs>
<clipPath id="clip0_309_2">
<rect width="37" height="34.6894" fill="white"/>
</clipPath>
</defs>
</svg>
