<svg xmlns="http://www.w3.org/2000/svg" width="30" height="25" viewBox="0 0 30 25" fill="none">
<g clip-path="url(#clip0_309_29613)">
<path d="M2.85449 4.16308V2.77539H1.42715V4.16308H2.85449Z" fill="#07042D"/>
<path d="M2.8584 9.72095V8.33325H1.43106V9.72095H2.8584Z" fill="#07042D"/>
<path d="M1.42734 4.16675H0L0 8.33341H1.42734L1.42734 4.16675Z" fill="#07042D"/>
<path d="M5.71677 1.3877H2.8584V2.77539H5.71677V1.3877Z" fill="#07042D"/>
<path d="M5.71677 4.16675H2.8584V5.55444H5.71677V4.16675Z" fill="#07042D"/>
<path d="M5.71677 6.94556H2.8584V8.33325H5.71677V6.94556Z" fill="#07042D"/>
<path d="M4.28574 5.5542H2.8584V8.33317H4.28574V5.5542Z" fill="#07042D"/>
<path d="M5.71677 2.77905H2.8584V4.16675H5.71677V2.77905Z" fill="#FFD91D"/>
<path d="M7.14411 8.33325H2.8584V9.72095H7.14411V8.33325Z" fill="#FFD91D"/>
<path d="M1.42773 4.16659L1.42773 8.33325H2.85508V4.16659H1.42773Z" fill="#FFD91D"/>
<path d="M21.4287 1.38778V6.94214H22.8561V1.38778H21.4287Z" fill="#FFD91D"/>
<path d="M7.14411 9.72095H2.8584V11.1086H7.14411V9.72095Z" fill="#07042D"/>
<path d="M28.5693 4.16675V2.77905H27.142V4.16675H28.5693Z" fill="#07042D"/>
<path d="M28.5693 9.72095V8.33325H27.142V9.72095H28.5693Z" fill="#07042D"/>
<path d="M29.9967 4.16675H28.5693V8.33341H29.9967V4.16675Z" fill="#07042D"/>
<path d="M24.2871 2.77905H27.1455V1.39136H24.2871V2.77905Z" fill="#07042D"/>
<path d="M27.1416 4.16675H24.2832V5.55444H27.1416V4.16675Z" fill="#07042D"/>
<path d="M27.1416 6.9458H24.2832V8.33349H27.1416V6.9458Z" fill="#07042D"/>
<path d="M27.1422 5.55444H25.7148V8.33342H27.1422V5.55444Z" fill="#07042D"/>
<path d="M24.2871 4.16675H27.1455V2.77905H24.2871V4.16675Z" fill="#FFD91D"/>
<path d="M22.8559 9.72119H27.1416V8.3335H22.8559V9.72119Z" fill="#FFD91D"/>
<path d="M27.1416 4.16683V8.3335H28.5689V4.16683H27.1416Z" fill="#FFD91D"/>
<path d="M22.8559 11.1123H27.1416V9.72461H22.8559V11.1123Z" fill="#07042D"/>
<path d="M12.8574 16.6667V15.2791H9.99905V16.6667H12.8574Z" fill="#07042D"/>
<path d="M10.0029 15.2754V13.8877H8.57559V15.2754H10.0029Z" fill="#07042D"/>
<path d="M8.57129 13.8876V9.72095H7.14395V13.8876H8.57129Z" fill="#07042D"/>
<path d="M7.14062 9.72103V1.3877H5.71328V9.72103H7.14062Z" fill="#07042D"/>
<path d="M12.8535 22.2209V20.8333H8.5678V22.2209H12.8535Z" fill="#07042D"/>
<path d="M21.4248 22.2212V20.8335H17.1391V22.2212H21.4248Z" fill="#07042D"/>
<path d="M7.14453 1.39128V9.72461H8.57187V1.39128H7.14453Z" fill="#FFD91D"/>
<path d="M8.57129 1.3877V13.8877H9.99863V1.3877H8.57129Z" fill="#FFD91D"/>
<path d="M9.99902 1.39112V15.2788H11.4264V1.39112H9.99902Z" fill="#FFD91D"/>
<path d="M11.4258 1.3877V15.2754H12.8531V1.3877H11.4258Z" fill="#FFD91D"/>
<path d="M12.8574 1.38753V16.6665H14.2848V1.38753H12.8574Z" fill="#FFD91D"/>
<path d="M14.2842 1.39136V15.2791H15.7115V1.39136H14.2842Z" fill="#FFD91D"/>
<path d="M12.8574 20.8333V23.6123H14.2848V20.8333H12.8574Z" fill="#FFD91D"/>
<path d="M14.2881 20.8297V23.6086H15.7154V20.8297H14.2881Z" fill="#FFD91D"/>
<path d="M12.857 22.2212H11.4297V23.6089H12.857V22.2212Z" fill="#FFD91D"/>
<path d="M9.99863 22.2212H8.57129V23.6089H9.99863V22.2212Z" fill="#FFFFC9"/>
<path d="M21.4283 22.2212H17.1426V23.6089H21.4283V22.2212Z" fill="#E8B714"/>
<path d="M12.857 22.2212H8.57129V23.6089H12.857V22.2212Z" fill="#E8B714"/>
<path d="M15.7158 20.8333V22.2209H17.1432V20.8333H15.7158Z" fill="#E8B714"/>
<path d="M12.8574 20.8335V22.2212H14.2848V20.8335H12.8574Z" fill="#E8B714"/>
<path d="M15.7119 22.2209V23.6086H17.1393V22.2209H15.7119Z" fill="#FFD91D"/>
<path d="M15.7115 15.2791H14.2842V20.8334H15.7115V15.2791Z" fill="#E8B714"/>
<path d="M15.7158 1.39111V13.8911H17.1432V1.39111H15.7158Z" fill="#FFD91D"/>
<path d="M17.1436 1.38769V12.5H18.5709V1.38769H17.1436Z" fill="#FFD91D"/>
<path d="M18.5703 11.1087V15.2754H19.9977V11.1087H18.5703Z" fill="#E8B714"/>
<path d="M17.1426 12.5001V15.2791H18.5699V12.5001H17.1426Z" fill="#E8B714"/>
<path d="M15.7158 13.8878V16.6667H17.1432V13.8878H15.7158Z" fill="#E8B714"/>
<path d="M23.3564 2.09294V11.814H24.7838V2.09294H23.3564Z" fill="#FFD91D"/>
<path d="M20.002 8.33333V13.8877H21.4293V8.33333H20.002Z" fill="#E8B714"/>
<path d="M20.001 1.38761V8.33325H21.4283V1.38761H20.001Z" fill="#FFD91D"/>
<path d="M21.4287 6.94197V9.72095H22.8561V6.94197H21.4287Z" fill="#E8B714"/>
<path d="M9.99902 11.1121V15.2788H11.4264V11.1121H9.99902Z" fill="#E8B714"/>
<path d="M11.4297 12.4964V15.2754H12.857V12.4964H11.4297Z" fill="#E8B714"/>
<path d="M12.8574 13.8875V16.6665H14.2848V13.8875H12.8574Z" fill="#E8B714"/>
<path d="M8.57129 8.33334V13.8877H9.99863V8.33334H8.57129Z" fill="#E8B714"/>
<path d="M7.14062 6.94197V9.72095H8.56797V6.94197H7.14062Z" fill="#E8B714"/>
<path d="M19.998 16.6667V15.2791H17.1397V16.6667H19.998Z" fill="#07042D"/>
<path d="M21.4287 15.2791V13.8914H20.0014V15.2791H21.4287Z" fill="#07042D"/>
<path d="M22.8561 9.72095H21.4287V13.8876H22.8561V9.72095Z" fill="#07042D"/>
<path d="M22.8594 1.38762V9.72095H24.2867V1.38762H22.8594Z" fill="#07042D"/>
<path d="M22.86 23.6123H7.14453V25H22.86V23.6123Z" fill="#07042D"/>
<path d="M7.14062 22.2209V23.6086H8.56797V22.2209H7.14062Z" fill="#07042D"/>
<path d="M21.4287 22.2209V23.6086H22.8561V22.2209H21.4287Z" fill="#07042D"/>
<path d="M12.8574 16.6632V20.8298H14.2848V16.6632H12.8574Z" fill="#07042D"/>
<path d="M15.7119 16.6666V20.8333H17.1393V16.6666H15.7119Z" fill="#07042D"/>
<path d="M8.57129 4.16659V8.33325H9.99863V4.16659H8.57129Z" fill="white"/>
<path d="M10.0029 8.32967V11.1086H11.4303V8.32967H10.0029Z" fill="white"/>
<path d="M11.4297 11.1123V12.5H12.857V11.1123H11.4297Z" fill="white"/>
<path d="M8.57129 2.77905H15.6748V1.39136L8.57129 1.39136V2.77905Z" fill="white"/>
<path d="M7.14062 0.00366414V1.39136L22.8561 1.39136V0.00366414L7.14062 0.00366414Z" fill="#07042D"/>
</g>
<defs>
<clipPath id="clip0_309_29613">
<rect width="30" height="25" fill="white"/>
</clipPath>
</defs>
</svg>