<svg xmlns="http://www.w3.org/2000/svg" width="13" height="22" viewBox="0 0 13 22" fill="none">
<path d="M6.50134 14.7727C6.37759 14.7727 6.25294 14.7388 6.14443 14.6701L0.315396 11.03C0.00600888 10.8372 -0.0917397 10.4346 0.0938926 10.1213L5.92292 0.327589C6.04399 0.124966 6.2637 0 6.50134 0C6.73899 0 6.9587 0.124966 7.08066 0.328481L12.9061 10.1222C13.0917 10.4346 12.994 10.8372 12.6846 11.0309L6.85916 14.671C6.74975 14.7388 6.626 14.7727 6.50134 14.7727ZM1.58523 10.2427L6.50134 13.3124L11.4139 10.2427L6.50134 1.98338L1.58523 10.2427Z" fill="white"/>
<path d="M6.4991 21.8636C6.28306 21.8636 6.08047 21.7591 5.95408 21.5835L0.12731 13.4807C-0.0609398 13.2185 -0.0385293 12.8592 0.181991 12.6232C0.401616 12.3872 0.7566 12.3403 1.03001 12.5124L6.5 15.9603L11.97 12.5124C12.2434 12.3403 12.5984 12.3872 12.818 12.6232C13.0385 12.8592 13.0609 13.2185 12.8727 13.4807L7.04592 21.5835C6.91773 21.7591 6.71514 21.8636 6.4991 21.8636ZM3.2388 15.501L6.4991 20.0343L9.7594 15.501L6.85588 17.3312C6.63805 17.469 6.35926 17.469 6.14143 17.3312L3.2388 15.501Z" fill="white"/>
</svg>